<mxfile host="app.diagrams.net" modified="2020-11-25T09:11:45.981Z" agent="5.0 (Macintosh; Intel Mac OS X 10_14_5) AppleWebKit/537.36 (KHTML, like Gecko) Chrome/86.0.4240.198 Safari/537.36" etag="FWJfZjIIFxW7ysmAqbWw" version="13.10.0" type="github">
  <diagram id="iDywVuf9zq2q6Rqd0D83" name="第 1 页">
    <mxGraphModel dx="1081" dy="771" grid="1" gridSize="10" guides="1" tooltips="1" connect="1" arrows="1" fold="1" page="1" pageScale="1" pageWidth="827" pageHeight="1169" math="0" shadow="0">
      <root>
        <mxCell id="0" />
        <mxCell id="1" parent="0" />
        <mxCell id="cg8t9oTA7BQWd0N7k8i4-5" value="" style="group" vertex="1" connectable="0" parent="1">
          <mxGeometry x="10" y="250.5" width="243.75" height="180" as="geometry" />
        </mxCell>
        <mxCell id="cg8t9oTA7BQWd0N7k8i4-3" value="" style="shape=image;verticalLabelPosition=bottom;labelBackgroundColor=#ffffff;verticalAlign=top;aspect=fixed;imageAspect=0;image=data:image/png,iVBORw0KGgoAAAANSUhEUgAAAggAAAFACAYAAADZH4T/AAAgAElEQVR4XuxdBXhUx9p+1yXuAWKQ4MEpHlwLlGKFUtpCW1rq3t72/m2pt9TdqBduKS7F3d0tWALEPdnsZn3/5/s2G4JHFmIzzxNIduecM/POnJl3PpXk5ec7IIpAQCAgEBAICAQEAgKBUghIunbr5rBarNcAhbiDpPi7svxeUWzLcu/SdcRznAgI3Co2EwRuAjfx/lRsDgjc6gpuCoUcks6dOzus1msRhIpDIa4UCAgEBAICAYGAQKBmIiCXC4JQM0dOtFogIBAQCAgEBAI3EYHrEgSHwwH6oSKRSFjT4LA7+Hf6sdvtV22a6/ub2G5xa4GAQEAgIBAQCAgEbiIC1yQItPm3adsGnW7rxGSgQKfDyhUrMGbMGOzZswf79u3FhHsmwtfHu7h5EkilUv593rz5yMhI59+Dg4ORlZUFepCnpycCAwMRf/Ik1CqVk3QUFyIiJpOJ71G/fn2kpafDz9cXGRkZxE6gVCj4O29vb8hkMpjNZuTk5NxEaMStBQICAYGAQEAgUHcRuK4EITgoCPMXLIRCoUBKSjKeefZZTP9wOnx8fDBkyCD07t0XL774Am/0tMEHBQXhZPxJ3D/pfrhsGiZNmgyDwYDevXshPz8fy5cvx6FDh/Htt98gIzMTcpmcJRNeXl6YPGkS2rRpi7Zt2yAlJQWjR4/BnDn/YPfu3fi///s//Pjjj3juueeYIBw4cABff/31JSSj7g6j6LlAQCAgEBAIVBQBtUbDh1aL1QJ9ob6it6l1191QxTBx4kQ8/vjjGH/33UhMTER4WAMsWLAQP/zwI3788XtIpTJYLBY8+tijeHjKwxg/fjwSEhIYqIiICN7w9+7dgxYtWqJly5ZYu24tki4kYdqb05gsNGvWDBazBYWFOsyePRu//vorXnjhRfTp2xdWiwVGoxErVixHSEgIunfvjvbtO6J+/VAmHU88+SRMRmOtGxTRIYGAQEAgIBC4+QjQ4bd//wGIiAiHzUYqcwcKdYVYsGgBTEbTTW8Aa+4lDjhKSdNdD5UUq/cvbwR97HBclL6Xt5F0mC8tvb/e9Tc0UlSr1Zg7dy5v1iNG3kktw+uvT8OwYcMwbPgwZGZkwNfXF4sXL8bqNWvw1ptvljzcZrOhdevWKDIa4e3lhcjIKMS2bIlvvv0WkydPQsOGDfHJJ5/gnbff4WvnzZuHBx98EHPmzsWggQNA1xcWFuLMmbN4/Y3XsWTxEkRGRqJevXrw9/fD/ZMmwVhUVF58RH2BgEBAICAQqOMI0CY5ZuxY+Pn6YdOmjTh69CgThAceeAhKhRw/zZhRJoSuteE64ICkJETAlbdywI4B3+VC6yslLToXFyegv6/1e/xCBY7/z+O6m7xGq4FBb4DWQ8v3JbJD7bTarAgLC2cJfVkoxg0JAt28ffsO+P777/DRxx9j9uy/oVVpsWr1Shw9dhwPPzyFRf0dOnTA8OHDkZubW4IENWj4HXcgLzcPen0hBgwYgOkfTYe3lzdLCWx2O6xWC1JTU9GkcWO88sorGDlyJI4ePYZJkyexqMff3x/PPPMUpk17E0lJySgqMiAiMhItmjfH1KlTUSQIQpkmsagkEBAICAQEAhcRoH1k8OAhsNts+GvmX3zYpD1ryO23Izw8AkePHMHWrVuuvhGX3sEBtGrVGocPH2J7Odp4ScXeo0cP7Nq1E3Y7UQU69l+Kvt1uw8h/dIhW9sfp/O3oGnIvtqT/Ci9lALwVwajn0RRpRSdwXr8fnQPvgRRSHM5bgdOb87Hvu2sTBOpD48aNkV9QgLZt2iBfV4gL5xKh1Wpx5OgRTLj7bmzZshX5+Xkwmy3XnRJlIghkHPjFF18gNjYWQ4YMYfH+4CFD8O477+Djjz5m24T3338PixYtugRMkj689NLLSE1LQ0R4OJKSk1idsHXbVrY3mPbmm4iJiYFcJsM999yDl156EaNGjcHZs2fQt29fJCUl4Y477sCLL76Ih6ZMgb+fP3bu2gWlUoHo6Bh8/tmnwlBRvPECAYGAQEAgUC4EaBPt3qMHWrZoyfv2H7//xobv9Hm/fv0QHdMYZpMJv/326yV7GhnvDxw0GFqNGps2bUbnLp1gt9nZEJ+k5YV6PYoMBmRnZ8FkMkMikSIsrAEMRUVYvXoVpBKnIT8VCWy4c7YB99WbB6OtAEW2HBwpWIpgdRt4SX3QQNsWyYb9WJ/xFe4M+5AJwvqMb7Bnw4HrEgSSjPTp0xfbtm9DXFwcdAU6JCQmQqVSIjwsHDEx0UhNTcP69WthuWaARGcby0QQqKJ/QACWL1uGtWvW4uX/vMTdI9VDdHQ0kpNTMHrMaFZDlC4ENpELYk/EorQaDeRyGQpJ9KHRMNGgQnoglVoNXUEBezoYTSbIZFIGnv7OzctjeYvDbodXsReDyWSE0Wgqsy6lXLNHVBYICAQEAgKBWosA7U23deqE9u3aMyk4dfoU1q9bB7lCgYenTIHVaoO+UIeZs2ZdQRDo8EpGjecSz/HedeDAfrRv354308ysTOTm5KJ58xYwGotgdzjYyH7AgIHYuHEDpJfYGthw5986tPWYiNv87oNS6o1/zj+KDv5344JhN7oFPo6dOd9DBi2Mthw4IIOXLABzl/1yXYJAg+bj4w2JVAqVUoX+AwZg1qxZGHnnSMya9RfbCZKnYfPmzREfH3/dPbTMBIFAfOCBB1isP3bsWDZYJCPEOXPmYMqUKThy5MgVk4nYFola+CESCf8ukUqcngsAx1FweUCU/C+VMBFwKmUo1oKNWRfrc4rBJSEOeTKQjQLHY3BabRTTMgkPAj2TGKFUJmMREsl96Ll0jSu2A8d14OskIIMQAtSlT6LnlWZ7tfZNER0TCAgEBAJ1EAE/P1/cddc4PryStODX338Dee6R9xwVOhCfv3D+EmRozyJVOu07ZxMSEdagAe9pmZmZfBjOzs5Gbk4OG9/TQZf2pd17dqNvn77YuHFjSSgAuqnD4VQx+EoboX/Q21A6gLXpn6F78BRc0O9DO7+x2JH9KwosaWjjcyd09hykGg9hxfJFNyQI7dq3Zzs9Iiv79u9Dk8ZNEBvbCseOHUWHjh2xf98+lm4cOXLYPQSBOkSnfAItKzML48aPY/EFuScuW77cualfVkgNQHET/v13KfLy8jBmzFikZ6Tjf//7H2/aI0aMYE8GrdaDgbt96O3w8vSCVqtBSkoqlixdgsGDBjMZ6dq1C1avXo3jx4+zIaNeb4DNZsXOnTsRFhbG8RIyM7PQo0d3VmGMu2sc8vILEBwchOSkJLZz6NEjjuM3BAYGIScnF+npqRg2fAS2btmE7OwcHDp8CE8/+RTWrFuLiRPvxbq1a7Bhw4Y6+OqILgsEBAICgdqNAB0GO3ToyLF5tmzZDL1ezwfRiPBIdOrcCfPmzr3m5nmtTC4uxC43XLyqIaPDhjv/0cFktsFmdpoMyhUSOGCDzSoF2FPBwSp1s8UMidQBmVSB1G2yGxIEknAY9Hp4etLe6jxMK5Uq5ORms40E7bcqlQYkib9eKbMEwXUTEqX88MMPOHnyJEJDQjF4yGB2c7xa6dKlC5o2a4Z58+Zi+LDh7MZIQJFxIvmcTphwD7s3rlq9CiqVil0iiXwkJibgrnHjMW/uHJZS0H3IaCQjMwM6nQ7/Ll3Cmz2xuCVLliCmcWN2g6SO0yDv3rOHbSXob5JskJEleUO0at0Kx44eRXBIKNs5HD50CP955VUcPHAA27dvZ6ONN96YhpWrVsJDq4Wvrx8bZ7oCQNXu10X0TiAgEBAI1D0EKJhfy9hYthkwGYv4EHvhwoXreiC4AyUSXkd1s8CrkdOd0kkHnP+U1kRclGo7OUPaZjWyEmW3RL1eboJAmzK5f5B15E8//cRk4VqF1ABSmRR3jhjJnVm0aCHGjRuPv/+ehaZNm7FeRq1W4Ysvv2QLS/JQGDRwEBo0aIBvv/0WZrMJDzz4EOtRQkKCYSgy4ptvvkaD+vXRu3dv3rhnzfof/Px9MX78BJYUnDp1ksU9gwYN5siPJJVYtWoVQkLroXFMDEJDQ3HuXCIyMjKRmZmBHnE9uW0kYSAd0bPPPovff/uNJ8zOHTv4c1EEAgIBgYBAoHYj4FJz3+peOrXjl8skXK1wekWwF0Rx4U/K4qPoho6UmyDQM4lx/f333+zJQLqbqxViPZ06deZwzXt272Z7gK7durOogyxDST2xY/t2kK7k7JkzDECH9h3Z4pMMREiysG/fPtw+dCgSExKg0WhZXPL37L/ZpaRhVENoNBqsW7eG3R9JAkFeFtShY8eOsftKWloaB1favHkTh3H29PJio8qNGzYiIjICcrkCF86fYwkEGUOuXbuWJR0Uznnbtq1o36Ejfv55xjX76Ab8xS0EAgIBgYBAQCBQLRGoEEGgngQEBiI7K+uGnXIZE1JF0oU4HPaLRoKXXU0EoLA4zCURAtKPkFEIbf50H/qdIitSo13+pqSuIHsGMjCkYEykSijxniiOGMVqDZuNLU7JUJLcL4mw0GcqtQo2q43VJC4jSKVSyd9TPXqeKAIBgYBAQCAgEKhrCFSYINQ1oER/BQICAYGAQEAgUJcQEAShLo226KtAQCAgEBAICATKiAAThA4dOjhc2RfLeF2trkaqB1JpiCIQEAgIBAQCAoG6igAThKVLlzquFsegLoKiUCrZVkEUgYBAQCAgEBAI1GUEyLZPkpKS4iiJLliX0QA4PgMFmbhRKe0Scy33GHLDJMNKUQQCAgGBgEBAIFATERAEodSo3YggWKxWjq9AcbwD/P0hk0rx+59/olVsLFasWIGePXuia9eu7P3w559/YdKkSZBKJeyJIYpAQCAgEBAICARqEgKCIJSRIOzZswdr1q7lsNGRERGcbfK+++7jTJeU+MLfPwD7D+zHq6+8gg8++IAzUlJkR4rS+Mknn1zTvbMmTRbRVoGAQEAgIBCoOwjUaoLAAacuyaDlStB09QGmkz4FYLpa2b5jB44fO4bsnBy0bNGCk3A8OPlBfPrZp4ht1YoTdFBCjmefeQa//Porh2v29vbh0NFPPPGEsG2oO++U6KlAQCAgEKgVCNRqgpCens5JnCjjFgdQkkjRsmWLa57mr0cQKGIjZffat3cv53cwGPRo27YtZsyYgbF33YVZM2dy5Md2bdrg2eeex8MPT+HnkDSB0m0Ke4Ra8b6ITggEBAICgTqDQK0mCCRByMzKQmhISHEiDGeyqGuV6xEEpzBCggULFnLWyKCgIM40uXLlSg7bTLkdKDMYpQP99LPPEB4WzsKL02fO4vPPPhUEoc68UqKjAgGBgECgdiBQqwnCuXPnkJ6ZDa3GGTZZSVkjW8VWSIJQMtyUXeMytQURB1eoZpekoPTfrt9rx5QRvRAICAQEAgKBuoBArSYIJEFISk5BWIP6F/f364zqjSQIfKkz/VbFymXEotL3K08rrvbs8lxflrruxqYszyxPncq0zylCuvrTrnbf8uJd2bZdr33lwagsdSvT1vLiUpb2XF6nurevouvIrcCuIniLa2otArWaIFBGx+zsnJLBI1sEMjC8VtyHaxKEUguOiBlRa98Ft3bsEqnRDYiFmFNuhb5W36xkXgmyUKvHubp0rlYThPKCfFWCUEwOaBEvvZCLRb286NaN+qWJQWnV0xXSh1LzScyrujE3KtrLy+eUU1gkubZEq6IPEtcJBC5DQBCEUoBcQRCKF3EXObDbHSXGjmImCQSuiQDZpHCKc6dtSglRcJ36Ss0rslkhDsqKq8qIxsVw1G4EeB4BNLNKz6trqb3EVKrd08HdvbuWQEoQhFJIXxFJ0eFg7wMiCHZI4eXpUWKM6O4BEverXQjQnCnQ6SGFDRR2m354Mb+MHChUWqhVIv9H7Rr9m9cbfZEJdouR59MVxLP4sTaHBJ5aNckZbl5DxJ1rAQJ0LJHA7nCgqKgI0qtMF0lycnIlrO5qAUbXIgjFCzkRBPqRKdXFL13t6rPozc1DQG8wwWouKiEILlExkQfKGkrzytvHl0+EoggEyoKA2WKDobCA5xRlnb2aqkEiVUCjFqSzLHiKOk4ECvVEEK6kApL8/HxBEIq5NqW9VqmJeTvFvaUXcjkRBI8bJ3ISE04g4EKgUG8sIQgliznAxIB+iCT4+PoJgiCmTJkRMJmsMOgLmBxcIpkqvgMHhJMpBUEoM6Ki4nUJgkjleHGC5ObmXkysdBlBkClU8PLUitkkECgzAkQQLCbDpYt5MUEgckA/vn7+giCUGVFR0UgEoZAIglOCUKK6KgWNkCCIeVJeBK4pQRAE4doEwXXSYxVDOQgCSSKIbAQEBHAchojwMKchmsPBIsHs7GwEBgbw33q9AXKFHA67vSQPBD0vOTkF4eFh5R1nUb8aIXAjgkDzxM8/oEwEgcR8yUlJCAsLw+nTZxET04jnj9Fo4v+1Wg2ysrIREODPcyw/vwA+Pt5XoJGckgIfb294enpWI6REU8qKgLsJAq01OTk5nGyOTGVddg1nziaiUcNIlq2S6QwlqfPw8IDJZGJSotVqWQp29mwCYmKiufkXkpIRHtagrF0R9aoRAoIglGEwcnNyLlExVIQg0DXf/fQL1qzbjhYto3H86Fm89dqz+ODTz3D32LGIjz8DiUyO8AYh8A8IxCeffgmL3QKjyY5WLZrgPy88hemffYuIsPo4fOQM3nr9WURFRpSh9aJKdUPARRBc+mI+7QEl9gflIQiHjhzD2+9+hMIiAwKC/ZCVnoGXnnkKz73yOtQaP4y4vRfqh4aiY/t2eP+jj5GVZ4McOvj5+uLdt6dh4eK1MJksWL5mBfJzcrB43l9o0EAs5tVtztyoPaUJgmteXRHZtYw2CEQsP/z4C/h4e2HH3kPITEvBH79+j3XrN+J4fCISL1zAlMn3oFOHdnjtrQ8hl0lw/OQJqDUqhIU2wsYtG3HhfCruHDUY9QL8kZydiW8//uhGXRDfV0MEBEEow6C4gyDQY7KyszF56mNo1bwldGYTPn/3LXTvNxCjht6ODZt3wGaXYOqU+/HW229h3px/8OFnX8LqsOOZqQ/xgj7t3emIqB+C42cS8P601wRBKMPYVccqNyYIFvj5B5ZJgqDT6fHiK28irEEQunTqgNnzl2LsyOH4+Y+/YDZZEBYViY6xzXH3uDEsVXj82f/DmBEDEB4ejpYtmuFE/Ck4HHZMe/t9zPjhG/j6+EAul1VH2ESbroMA2SDoC/NL1AukZqgMQdh/4BB+/fNvNG8aA4vNhj5x3XH8xAns2neUXW/PnknEgtk/Y96ipQj098VPv/+B/j17oW2b1njj3Xdx5OhJDO4/APVDQ5Cck4bvBEGokfNXEIQyDJs7CALpld9+bzoUKg3SU5KwcftO/DnjO0ya8jB6dO2OHnG9kJqeAW+tGjk5mRjQrx8++fonWCw2PPLAPWgd2ww//joTWZkZ0Gg8MfWhe1G/fr0ytF5UqW4IuJMgfPPDDGzfuRsarQdS0jOhVivxn6cexeff/gKT3YiIelFo0zIGE8aPRVZWFo4ei0fzZk3wxY8z8N5rr+L3v/5Gq5Yt8MXX3+GbLz9mgiBKzUPAbLaiUOcuggCs37ABjz37Bp54eCJOnT2L9958Ddt27MT8xcugy8+Hp7cnpr/zJm4fdQ8emnQ3/pkzD5BJ8cC9E7Fp206sWbMGoWH10btLd6TmpguCUPOmFLdYEIQyDJx7CIIdM/+ejdTUdKzduA33TxiD5s2a4rc/5+FUwlk0igyDrtCIzp3awmLWo13rNli/eTsCAvzg7+uHg4cOobAgB8OH34E9+w6g0GDGh2//twytF1WqGwJ6vRFmk6HEJe1KFUPZJQg5OXl48913MPne+/C/OfMxdtQITjmenJqB5ctX4snHH8HmLTsw9eFJmHD/VMyf/Rvy8/Pxy8x/cPeoEXj+5f/CIVFg7MihWLVuK556dDJatmha3SAT7bkBAu4lCA68/vZHUCulyM3NR0pGJqa9+gL+N3seTFYT2rZqhTXrN6J7pw6QKtRo17oFzp1PZmJw/4Sx+PGXv3D08F6YHVL88t03+Pjbb/Hdx9PFGNZABMpPEGxWIPvcJV11yNWQ+F+pt3SFii3x87bbISF9q90GSEuJMS//u5oB6Q6CQF1KTkmFXl/EumbK/xDTKAopKWmAxIHMjCwEh4RAr9fB7pDA39cXOXm5UCiUUMik8PX1RV5+HrKy8xAY4Ivg4GBoNcK9sppNlTI1x50EgeaUxWKB0WguTh0uQcOoMDZypSAnfn6+OHL0ONq1bY38fB2CggKwYeMWdO3SiVUJRUVGeHho2Qht56496NihHeRyeZn6ISpVHwTcSRAoMuyFpCQUFurh7+8Pu90GTw8trFan4WJOfh4a1KsHjVqNs4mJiG7UCGnpGewCrlar4e/niz379qFL5044cuQ4oiLDERoaUn3AEi0pMwLlJgiOlOOA1QaJSg2c3Ao06QEsnw5M+uFS0mAqAixm4MJBILI9JBoPYOMMOFRekBxYDDTsCAx6Fo5TWyCxWuCQKSBpGlfmht/Kiu4iCLeyzeJZ1RcBdxKE6ttL0bJbiYA7CcKtbLd4VvVGoGIEwScMKMyEZOUngNYfsJmAcZeJkH5+CI4ek4DMREhSDsPR+xFIVn0OaAPgCI4CMhMgaTMUWP0F0CQOOHcAjnZ3QNJmSLVDTBCEajckNbpBgiDU6OGrlo0XBKFaDkuNb1SFCILDaIb0xCo4igogUaiAooIrCcKH/YFmvYC0E4ChAI5h/4VkxXTAOwSOgAhIcpLgGPM+JCR90HixtMHRqAskrQZUO1AFQah2Q1KjGyQIQo0evmrZeEEQquWw1PhGlZsgQJ8Dx4nNQG4yJEkH4Wg7HDDqIOly96Vg5CTDofEGEnZDEhbrVC0sm85SBcm6r+GIexDwCYVk6x9wNOkJSfJhOEKaQhLTqdqBKghCtRuSGt0gQRBq9PBVy8YLglAth6XGN6r8BIHiamWdA+I3AjnJQHQXoHnvq2YzdNhsQEE6JH71AUM+kBoPh80MmI3OhGIx3YCTW5wSBHMRENYKEu+gageqIAjVbkhqdIMEQajRw1ctG+8OglDbU0FfK3XxjQa0LuNSIYJwI0Br2/fuIAjp6ek4ffoMwsIawGAwoGnTphymlCIsUvHy8uJ8D4cPHWby5O3jw6Fvt23bjqioSGg0WjRoUB9KpbIEXvKGOH78BHJzc9iSPTo6mu+3Y8cO1KtXDwqlEp1uuw0KhQLr169Hnz59+NotW7aiUaOGKCwshE5XiHbt2mLXrl1o1ry5sy2enhxwZf/+/QgKCuIwvhQGuqCgAPXr18exY8fRqlUs0tLSkJmZiYiICA6xunnzFu7fgYOH0LVLZwQGBsJiseLgoYNo3aoV93HPnr2cRtRusyE2tiWHkdbr9fxcsp4nb43aXtxJEHbu2oXoRtE4dOgQj2Nqahry8/PQpnUb5OblcYjlLVu2ICMjk7Ht1Ok2+Pn5McQ0tyIjI3j8Shej0Yi9e/chLDwMAf7+PLY0v2jcY2NbQCaTIz7+JEJDQrBr925+Ln2/e88e9O/Xj8eR5hwH6xHlliBQWYJA3gk0ZrUxfygFdqJ1kdaa0utnWQaG1lhaJ2XF0U7Lck1NqXMxG6MEXl5XD7EuCEIZRtMdBGH37t28INsof4NMhscenYrXX38Dw4YN5clLbmnkCrR23Tp07twZKcnJ6Nq1K376aQYHRKJrIiMj0aNHD16wqdB1mzZvwZHDh5hQdGjfHmazGVu3buNFOjwiAnHdu2Pr9m1YuGAhRo4a5byXVIpTp05h48aNTFQemDwZP834GSEhIUxOBvQfgPT0NCYILVq0ZNcmcpc7d+4cPLQeOH32DMaPH4/PPv0MjaIbITQ0FM2bNcObb76FkNBQbl+P7t35fn/88Tv69u2HU6dPY9xdYzF//gLON0HhhLt06YKtW7fC188PGrUGBw8ewBNPPFGGEanZVdxFEAoKdPj00085NLKPjw8TzLNnz/LYjh07hl3UiKS9//4HCAwKRHhYGEaPHo19+/ZDJpdhyeLFuO22Thg8aBC8fbxLpID/zJnDrri0oBbkF2Dw4EE4dPgwNqxfj959+qBlixaYO3culCoVjxvnEAkKwpIlizHxnnvQqVMnfq5wl7x187SyBCEzKwtBgYG3rsG3+Em0VpLbL+WNKE8h4kvz2OWqX55ra0rd9IwMhAQHX7W5giCUYRTdQRCSk5OxcNEi3hgVcgUGDhqIf/9dhqefepJbsGDhIsRER2PNmtUwmkxo06YNn/6nTXsTQ4cNg8VsQmxsK5jNJjRr1qyEIFDEshPx8WjUsCEngaIXYeOmzQgJCUZ2Vjaef/55DpzzxrQ3+VkkWViyZAlLDmhDoXZNfeQRLF+xnNuWnp6BqVMfwapVa3D8+DEU6HT4z8svYfv2Hbhw4QInACIWPmjQQHzz9dfQGwzo2PE2DB16O1avWQN/Pz8cO3ESOdmZ6Ne3L06dOo327dvh5KlT6BkXxy8bkSCT0YS77x6PZcuWo2/fPkwqFi1ahBEjRpRhRGp2FXcShOkfTUf79u0RHBTMkgOntGgD+vXrh+DgIF7YvvrqKx53X78ATLr/Xmzfvp0JQFLx2JP0oWXLliUb+py5c+Hp4cnzIz0jHaNGjsT2HTtKCAIR0RkzfmZpEkkfTpw4gbZt2+KTTz7G2LF3oXNnQRBu9QwVBOH6iNO6RQTBdbgq6/jQmlg6JXtZr6tJ9QRBqORouYMgHDx4CBs3bYKxqAhdunbh0/77H3yAO4s3xMzMLHTv3g2//fY7b76//vorxo0bj+TkJA6WRJuyVCpBYGAQWrZswT2iSX/s2DHevOm016t3L87st3LVKiYYa9asxaeffIw//vgD99xzD9977JjR2Lx1G4xFBvj6+sBgKEKDsDCcPXMWVqsFEqkMI+8cgQULF6J+vXqc3Y8yUBIpOXr0GLp06buKRFcAACAASURBVIzFS5bgjuHDsWLlSthtdjRv3gw+vr747bffcMfwO2B32LFr5y48+uhUVl38/fdsPPLII1xv/7792L5zB4uuBw8ezG2kjYYCrOzZsxtTp06t5GhV/8vdRRBo8frzz79w550jMH/+fJYO/PnXX5yBTyGXoUmTJozrokWLeZHLyMjAY489ykSvyGhERnoGNFoN6terj9tu61hCEEiC4OfrB41GjQsXkjB6zGgUGQyY/c8/GHfXXUwcNm7cxHNhyZKlGDxkMI8rjTXNw/vuu5fVGUKCcOvmoiAIgiBUdLYJglBR5IqvcwdBoFMaLZqJiYmQSKS8uO7evQeNGzfmnCqkhycVwoYNG1g0n5CQiIEDB7DImHT3ubl5aNasKUsIXAsv6YppUY7r0QNWm41PhiS237RpM7y9vaFSKXnzV8jlLIKmsnfffshlUt4g6J60yQwaOIBPnitXrWbbBJJkWC1WlioMGjQIMqkM586fQ0xMDN8jKSmJxdd0Ov132TKMHjWKbRH27z+AuLgerJqw2R3w8vRAgwZhCAoK5FDRwUFBrK6g0yqJ7o4fPw4PT094enhwn8imITY2tpKjVf0vdxdBIN3o4cNHYCgyoMhQxPYGNEZkh0B2K6Rq6t+/H7Zt38HfRUVGIjU1lechjR8RTLJXIZVAad0sjQt9R6TCbLbA28sTJ+JPMvGTSqSIjm6E8+fPQ63WsB2NUqngeXfw4EEev82bNrHUqzaLZavbLKuuBMG0bz+Mm7dCHdcDqvZtS2Ajeyaaez179mQSS3NOqVShoCCfDyNENN1ZKqpicJsEgQzzE5YCDhscDYdDotLyO3bo0GGOqms2mtCiZQteQ2lvIMlr06ZNcPr0aQ6NnpKaiv6kqj1zmqW09N6RxJgOV5UtgiBUEkF3EIRKNkFcXosQcBdBqEWQiK5UEoHqSBAcRiOyR9xZ0jP/BfMh1WpZrfnrb7/zwebIkcPo3qMHVq9ajXvvnYhjx4+jd69enKfEnaWqCYLj2O+QpMxxdimoP9DmGT7sEcEnSS6R+NuHDMYzzzyLfv36onHjJmyTRuq7+JMnWSU7cuSdOHjoMNQqJRMrwqpzp8qHBagQQcjPy7to5OjOkaph92ILWJsNKrXa2XKywLfbS35kChW8PJ1Gg6IIBMqCgCAIZUFJ1CkPAtWSIJhMyL5jBOwyBaQ2C/znzYXU0xM2q5VtkhYtXoy7x4+Hh4cnVqxcgeHDhvEJunfvXuXpepnqVjlBOPwTJOmLnG0N7A20fYFtIv6ePRv1QkOxZ+9eTLh7AmbOmonYli1hMlvRtWtnrFixAkcOH0Z0TGNMvGcC1m/YiISzZ9m4XVdYWHUEISUlxeFKtlSmEajFldQqFdQukZcgCLV4pG9N1wRBuDU416WnVEeCQPjrlyyDacliKIcOg+eIYTwktDGSimr16tUYMGAAq0PJhZaMao8dPcrqKbJ9cmepaiNFh0kHycHPAakJaPkyx/4hQ+Eli5di2PChWLhwIRtok1dSaloGJk+6n1WBRBBI7XLy5ClMm/YGFi9eiokTJ7B7O6k/unXrWmmYKiRBEAThIu7uIAhkL0AuiGTwR/p30hWbTCZmzBER4WxlzizXaISuQMf6W3IHJIMy0gWTvonqk+7YVWiC0Y9TV2xm4zHyU7TZrGxTQC9iaV0etYE+c9kjUDuoHt2X9IAunTHVoc+oHr1YdG/63lXoOqpDxhOujJLUBrqG7kfiQdKPk10BPZ90aK4Xnu5X143X3EkQSARJcSoSEhJ4ThHWefn57NVCbpAkviSRLv2QvjIqKgpnz5yBzWZHcEgwe600bhxzib0A1aXFh8aKYlY0qF8fNHfOnDnDz6C5QLYkND9o3NPT0tmNkuxQ+FDhcCAiMpLnNtnYJKcks/0DedUU6Aq4DYmJ51jH6m5RcqVXyxp6g+pKEK4GJ61znNFWIoGjOMMvzSPXZ/S5u+dFVROEq+FAbWKvNoWC9wTXukj2aK51m76ndd21DtP/9P7RmkwYuWMtFQShki+9OwgCGQTu3LkTaakp0Hp6YejtQ/DRRx+hU+fOOHrkCOueyGiH6uh0BWjUKJqt05ctWwZvbx9otRomCc2bN+cJ5WLiP3z/Ay/G9D0Z/5Gx2cmTJ9GtWze89977eO21/+O69PK98sor6Ny5Cy/M5L2wdOkSPPDAA/jnn3/YHZJeUtoIyC3Oz98fzZo25Qm4cdNGvPzSyyUokiEl1aMJSmIu0o/17BmHX3/7DSqlElOmPIQPp3+CoiI9XnzhBezdtw/6Qj37y3fs2IHjO9Tl4i6CkJOTi7ffeRsR4RF8+jKZzWyEeOJEPO679142DiVSMGfOXPZs6dO7N8aOHYvVq8mF9SgiIxtC66HF+HHj2GPBVcgdlwJbpaWm4nxSEhuRSiQyqFQKnjdyhRx79+5FYEAg1Bo1EhMSMGzYcCQlp6DTbR14DpI72ZNPPsUxLlq3iuX5Qqmpky5c4PEng8eHHnzQLQtcXZ5Lrr7XJIJQFeNVHQlCVeBwtWcKglDJkXAHQUhJSWGXsOzsLHh6emHSpPvx9rvvoW3rVkhKSkZIaAgv9GR9Ti6PdDIcPnwYG7HQxq1UKTnAEU30jh07lvRo7dq1OHfuPFq3boXNW7ZCqVCgXds26NylCz7++GM89NAUZuoUC4GC1xD7pJP+d999z5ILEmNRZLzWrVs7jWaOHEFEeBh7R0RGReFkfDyfFHv37l0S9fHAgQPsXREeHoEdO3cgNCSUF3pyo3vuuWfZI2P237P55BgUHOwMxPTTT5gwYQKLFslqvi4XdxEEOnW888676NylM2/oFN3Qw9ODxZIDBwyEh4eWXRj37d/HJ3bykiGRJBFAOujfeeed2LRpExNL+txFPBcvWgRDURFOnzmDZk2ashsjWVVv2bqF3XJ9ff3wyNSpfH3zpk05ngJ5xpAbLxFQcpkkMjtp0mQ2QBs9ciSysrNZ6kBxO2Jiovn+Dz7wgCAIbnoRBEG4PpCCIFwbH0EQKvkSuoMgkEj+k08+RefOt2Hbth14/fXX8OOPP7FKISa6EUdI3LFzJ9asXsMuhcOGDcOIO+7A0qX/Ys+ePXzqIstVwMHqCComk5njJZALG8VHIL93cjmjoDaREZFYv2E9niyOTEikgO7VvXt3HDiwn42EhgwejB9++BHPPPM0wsPDmXyQCoROmxRNcdWqVXwaJPdK2tiHDHGm4iZJBwXnITEYRUak+Azk4vb444+zSyb1laL5bdu2jQP2yOUKbNi4AWNGj8bZs2fQqVPnSo5Izb7cXQSBxmvmzJkYN24cRzYcM2YMZsyYwUSTSFqz5s1YJUXxKv5duhRDbr8dAwcO5EiKefl5UMrlbC3tJKfhJWJdClilK9SzJIviIVCAqz/+/BP+/n4YMeJODsv62BNPYuKEu/n+FEacSCxJv+rXb8DzhAJ10dx66KEHMWvWLI7DQdIwIqPkzkptnzx5kiAIbprKlSUIWVlZTOpqq2sqiepJLF/eQElEwqVSGWQy93pVuGnYK30beg8piia5oF+tXDOSorBBuAiXOwgCTTQS/VMeBjrJ0aJKJyqKX0BeEt27dcPyFSvZxYWMdsiAh2II7Nq1G3a7084gtlUrtG3TuuSkxzo7sjqQSlmX5dJH0aATISDdVWldHumdjUZnuFGSFtBiQPe4XI9Fn9HL5AzOJOV6pe/vupZ1iMWZTOgzaqPzT6dujb6ne9Nm5Xoxqb679YuVfktu8Q3cRRDI3oAkPWTvoTcUITDAH+3atcPZhARWD1Gkzl69enHY7A4dOuL8+XMoKjJi67atHM+Axofmyf333XvRCBfgeahWO+1ZsrOyODAX2R5s2bqNJUokAWrSpDHPw7lz56FXr57sl01huWnsf/31N4wfPw5HjhzhttD8rlevPtq0ac3GaHS/lStXYdy4u2rthnSLpxQqSxDofafYBLW1VCbPC81tWs9qa7keMawUQaAFhk6LpQ3YXCC6Ng8XI6WNgX+nHcSVVqv4d9rkaF9xbTalWWx18KRwB0GorZNL9Kv8CLiLIJT/yeKK2opAZQlCbcVF9KtyCFSYIJBhWuL5c2gcHY3snBzO+ucqUokEv/z2GxtFrVu/AfHx8fjvq69g5qxZ8Pby5vDB4RGRaNG8OWcipFDClIOgZ1xPtGjRgvWVFM7XajFjwoR7OLpfVRZBEKoS/dr3bEEQat+YVnWPBEGo6hGonc8vN0GgE/2ZM2ehUqnh7e2FU6fPIDysAescSxfKOZCdk8ti9cOHD3PI3u+//x5xPeM4U6FG68GpZ/Ny85CVncUiz1Ej72RjqIJCHceWb9asOQYO6M/GdVVZBEGoSvRr37MFQah9Y1rVPRIEoapHoHY+v0IEISUljXPNk278fHIqW0v37xXHqYypUKKYl//zX8TFdUduXgGyszI5/eyff/6JgIBAtnomwzeyiP7mm28hlzt112PGjGbJARk6ka6TPhw3fhyns63KcrMIQtKFJPZFd8UZIN08/U5qG7JDIJ0+FcrfQEaHpJpxaWeqEg/x7Moh4E6CQHODDExpLkVGRXJOBno3Ka036U5pHpHKjog32Q24CtnA0LvozFR3aX9cWkCybSDXVJfNDN2L7GZc72NWVnaxYZvzepvVhpTUFG6PKLcWAUEQbi3eteVppTX+V+tTuQmC6ya0GJBlZ+L5JCSnpCCuWxcOquIqZHlPPvuUXY4s8Cl73+7du9GhQwc2gmrQoD67zlGOeQroQtbQAYEBbE1JKgcK9kMJKtq2bgMVG0xVXbkZBIGMXqZP/wj3T7of27dtR//+/bF27RqOebB48SKWmjz66KPss04+6rTY9+ndB1ENG5Ys6DqdDtOmTcPDDz+MmTNnMQkjaQ2FMr33vvvw1VdfIiqqIWP+448/ckre4OAQNpSka8njYcuWLbhnwgQcOnKEDRcpSBMZqNHYUCrfb7/7DlaLBQ9NmYJDBw/yBjF8+HAeS/JsCI+IwJzZ/7A//DNPP4Ol//6LhMQENGncmKVMlPp39uzZ/LxhQ4fxBmI2mTFm7JiqG9AqfrK7CALF1qA4CBSMSKPWMNEml1lyQaW49rShazVazJ03D/kF+QgODuY49/MXLOCsoneMGIHDhw7jkUcevsRQlYwfZ/3vf4iKjEJsbEs2ZF21ajUbsXl5e6Ff335YsHABkpNTOIiSp6cHS/to/uj1hZDKZOjWtStGjhqN9evW1nmj1Fsx3SpLEMiLwRVA7Va091Y/g4zEiQw7g8mVvdA6TYa8pZOZlf3q6l+TtuyiIsM1x77CBKF010sMEEt9SItJQX4BQuuFgmIABAUGssU+FbIopVMy+ewX6vUlhos0CPQ5kYWC/Hw2XKSYAbQAVWW5WQTh408+RZfOnREW1gCUDpqMPRs1aoRdu3cjulEjtvamgDRnzibAYjbzok/+7GQNToUWZEqX3LVrF6xbtx5Dhgxm7welQokBAwfgt99/x7nEc5zi9/ff/8D5C+fxyMOPYOnSxWjdug27o3399dd48MGHsG37Nlb3nD51EkkpKRwYiUgcLRxffvkVJk+ahGMnjnNmR3oO+dI//PAj+Oabb5CYmIAuXbthyKCB0Gi1+Orrb5CTk4133n4by5ev4HgL5MlAZOXAwQNoFduK+1xXi7sIAo3/m2++hbi4OLRr15YzLlKgKoprP2jgQChVKvZmSE5Kxt79+/idmjx5Mih2xs+//MLv2bPPPFMcwOpiumcio599/jniesTBYjGjWfPm2LRxI7sokjcKEU4KzPTuu+8itlVrjrtBn7//wYcc1ZHcdsnl8rHHHsO3334rCMItmOiVJQjk6kZrdG0tRHIpWBd5cJWnuCIc1lb3T8JCxEEoz4y4St2bQRBIlfDXzJno17cv5s2bj4kTJ2Lr1i1o2LAhBz6iiUlqGIqWd+jwIVBGyWeffRaFhXrO8uUqRBC6dO2CVStWQqFUom27tpg3dx5HYfzppxmYOvUR3jg8tBps3bYNGo0WY8eMZsJwzz0T+GR/5OhRtGndmv3Y6SXqEReH1JRUJiskCSKRBamNKEYCiaqffPIJlmyQextJICjOAcVEIEnR0qVLOcDT9OnTeYMgiQPFXEhNScF9992Pf/6ZjSlTptTpTcNdBIHI9B9//MEBixYvWYo7hg/H3LlzioNfydAyNhaNYxpjyZLFGDVqNDZu3MiJcL76+mvs27uX0+u2aduGJTtE4lzupxS2mX5I0kRzql5oPY7NUWQwMKmIjW3FAb/oej8/X1y4kASDvhAz//c3p6clu6Gnn34ajz46lWN91HW31kouP2W6XBCE68MkAiVdGx9BEMr0il270s0gCCS6InUAia9IKkBGnh6eXggNCebTNm3UMrmcT3cSSNjeIzAoiDN/lfYYodMeBSei/ynfwamTJxEZ1ZC9Q+hzUtPQKZLEzuS3TkGWaBEnvTKRA+e9JIg/cRwNwsJgNlt4Uye7Eoq9Hx0dzW0hP3g6sZJkiMgNRWAkA1RSI5E+22gyITQkBOfOnWNRHhEdigZJUfqSkpJ4k6Cwv/RMurYuF3cRBH1hIccmUKmUHHyIchz4+fkjNTUFMdExnCGOQmA7Y7trWUpEZID+b9miBY8nRV8kckBj49rI9+/fz2oFuhdF4KTIiXR/EkETSVQoKeSygTPJLVu2HAMHDmB1E0mP9u/bz3OGwnmTfQTNm9p8+qou81gQBEEQKjoXBUGoKHLF190MglDJJt30y4lxi6BGNwdmdxGEm9M6cdeaiEB1IAgOUgqfXAfToqWw+MbC84FJkBQbWv/551+cSIwMZcm+icLGk0ST1GOkxqRDCX1vtlhY7Xrg4EEmqYU6HUsmyxsB8fIxrA4ShONFCZiW+Qt8ZJ54L+QRBMp9+YC4fv16KFVq6At17O1HauIuXbrAbDJxqPp9+/axup1CC1CQMpLa0iGLDoEU0ZYCHVWmCIJQGfQA1EWCUEnIxOXXQUAQBDE93I1AdSAIMGTC8PJEGE463WLkQ4bD95nHQRIpMpCdM3cuR+Z84403sHLlSiSeOw+Hw46ht9/OEiqSPvr7ByA8PIwjbpL0SqcrxLDhwzgUeGVKVRMEi8OCvgnPYLvuODzkSnTXNMWyRl9whMZDhw6xZxCpiwcPHoRvvv0WiQmJiOvZkyPrHj1yFBarlW32iGBt3bqVpX/krUSG6y6btIriIwhCRZGrwxKESkImLhcEQcyBW4hAdSAIjsIs6KdOht3LAQd5vPu0hs/09ziJ27x58zj2DdmxkO0TGcqSBX3fvn3YcHDb9u1IT0tjQ1jynNmzZy97ZS1fsQLDhg4tcfmuKKRVTRCsDhvizj6O89Z0mBxmRMtCsSNmBhvlL1iwAK1atWLJwPDhd+C11/8PPeN6wc/PD/379+NsrEQIKAcK5eOh/DtPPvkkJ/8bfsdweHl6VhQWvk4QhErBJyQIlYRPXH4ZAkKCIKaEuxGoDgSBAubbjm1H4Q9zIJFJ4fF//4XM359VBWRLRTk6HnzwAbZfoRTzZJtCHjIx0dHsrXUiPp6NnSn9+IULF9h+hRJ8PfTQQ5WGq6oJAnXgiPEsXkr5EtlWPT6q/zh6erZl2zGSHFByvoULF3AytXnz58Og13P+lBYtmnNCvDNnz7KdUFz37jh1+hS7Gv/8y8946qmnyu26eTmYgiBUcnoJFUMlARSXX4JAWQiCr38AKGS5KAKBsiBgMlthKCzgkzYZm3KQtcvmj0SqgEatuOrt3OrmeJXoO3a7g/3tXYniSufYodMxub6T5xYVajt9RoXIxdVy/ZQFk9J1qgNBoPZcnm+odOI7V6wGIk5kCO5Kv05/03dkrC6ROhPsEUYVyU55NdwEQSjvbLqsviAIlQRQXF5OgmCFWqOFtDQ/uBpZKBWYrOQBVUUqXG253vPLUkfMlfIj4HDAYgOsZiMHr6tyglD+Htz0K6oLQbjpHa3AAwRBqABopS8RBKGSAIrLK0QQqmqvF8NV8xCw2QGLSRCEa40cndRJ3y8CJV2JkCAIlXzfBUGoJIDickEQxBy4qQhUmiBkZlZ5UrybCRCJ6Ek0TzYO5SnkZUDSB1KB1NZCLqbXcpV0S6jl2gqcq1+CINT2Eb61/buxDYJTxSAkCLd2XGry0ypLEFxJ4ti1oBYWyg9CgeMqUii4m704TUBFrq/W10gkJQndrtZOQRDKMHqCIJQBJFGlzAgIgnB1qFwRF0sbsLlqls73QvUur+P6rPT/pa8t8+DU0IqVJQg1tNui2TcZAUEQygCwIAhlAElUKTMCgiA4LdXJ/zskJISD4nTr1hX5+QXIz8+DVCpD48YxHAZ886bNaN+hPebPn88R+CgZ1IKFC9G+XTt4eXnj+++/xzvvvI05c+Zw3hIiCJMnT8LixUtw7lwiR6SjnBGU/prcxGprEQShto5s1farQgSB2DsZfbArzTUKiawoO6OxyAiNVsOM3+W6Qla2lJ2QEsFwPYWCQ2y63DrolqQvoped6lZ1LHdBEKp2kta2pwuCAM7zQZu7RCLFhaQL+M/L/0GrVrG8+dN3dpsdI0aMwBvT3uCEZpTT4+TJU+jUuRPOnD7NxmZ79+5j//nHn3gcs2bN4uh8dA0lrTpxIh5nzpxG9+7d2UWsY8fbEBMTXdumUkl/SAJuqYQXQ60FRnSsUgiUmyDQJp+QeB4SiYNzzdPGT3GyfXy8SxpC/poLFy2Gt7cn1q3fgMiICM7w988/c9gQhhIFUdIfShm7aNEiNGnalF/6AQMGIiMjnUlDenoGB9QYN+4url+VRRCEqkS/9j1bEARwpLzFixejadOmvBa0bt0a8SfjERwUxEFyCnQ6vPTCC3j+xRfRsUNHtG3bliUCffv2xS+//AoPTw/kZOdg27ZtePnllzmm/c6dOzi2P5GHRYsWo3PnToiMiMTMWTMxefIDtTrFuLWSbo617y0TPXIHAuUmCPRQsuykQkQgKycbQQEBICMQV6ET/+IlSxAeFo7klGSOs92rVy/s2LGTQ22SRWi9+vWg1Wg4fbChqAhajRqBQcFMGuj+8SfiOfPf6FEjEeEmgkDRvIjIUHpim9WKjKws1A8N5UQY1ysatRoqtdpZpVgSQkSJpSgKFbw8te4YC3GPOoLAjQgCSc9Uak2tNlIko68PPvwQHTp2xNYtWzkTpVwhh1wmR8OGUfjhxx8w48cZWLR4EUaPHo3NmzezukCvN3DyGv8Af07u8/WXX+GLL7/gMLUkQejVqzf69OnNGUvjT57Egf370bFjR9x9993ldnGrSdNRqBhq0mjVnLZWiCCwpWuxiXVmRiaCggIvidqlkMvw4ssvo0ePOBw/dpw34AcfeAB/z/4bDrsdUpmcpQoj7hiO9z/4EIGBASgo0OHpp5/itMTkipKSkoLzFy5g4IAB5XZNuR78Z84moEH9ejh//gKaNml8Q3JA9xIShJozoWtCSwv1RlhMhpKod640y0QMiHTWCYJgt+P0mTM4deoUWrdqxVJCWksolTQl96EMftu3b0dScjKnrk5IOMtHEkotbbVYoCvUc1CgLVu2IjwinNOgN2vWjFOLkyqC4v+TZIIiz5E6c/CgwYhqGFUTpkeF2ugkCEUVjqRYoYeKi2o9AuUmCLSApaSmcY554gkeWg28vL3g6+NTAhaFiJ07bz4bHh0+cgQNoxqykRAxf9IvkrgwMfEcxowehc8+/xxNmjRFWno6esb14DotWrSE2WxCckoqunfrym4Y7iypaemoXy/0Ckvoaz1DEAR3oi/udS2C4CIHdYEgiFngXgRKEwRXuOXyhFp2b2vE3WoLAuUmCNRxNhp0cPZv/v1qbklkkezt5cnf2x2Oknou9QSxeg9PT+gNBlY1uOJwq1Qqp89pcZhZIiGuE1ZVgX45QaD+uk57cqUanh7lC75RVf0Qz60eCOgNJEEoKgmJ6zLCdREE+p/yw4s4CNVjvGpCK4ggUKhlV5hlXjPLkYuhJvRRtPHWI1AhgnDrm1m1T7waQXAt5lK5Ct5eV9og1NJ4I1U7ELXg6bRm6wqNsFkuioNLEwSXbYtCqRIEoRaM963qgs3mgM1qZoLg+rl8Ajkgg4dWddUmifXqVo1U9X3O5QcSmhOFhiLIJFda6UlSUlIcV5MMVN/u3byWXU4Q6EkuCQIv6A6nFOVyvFjCUtwsd//u7vtRM692T/Gcio3h1XBzEgEJpBIH688vd+N1uQI7SQJA+ewcdroTSetuZEp78+Z/Vdz5Yp6qa2W0pM+dmJS8d3Us+SUZiVNhQiCh/51u4SWu4Zet+GT/ZbNLLplLfI86hltVzOea8EwORsYNdc4RmlMy+ucqokxBEEqN6CUEwbkisTFZ6R+Hg/52LVg1YTqINt5qBJxSX1rEnSl56ffLY3zQnHIRBZpTzt9vdUur/nm0Jjl/LklpeVnDLpJyOu3UtVOwCx8iBhRPwkUOSuLTuLArBuaqh5i6BlrVT+1q24LL1yLX3yWfl3oXBUEoA0G49MRnK5YiOBc28d5V2/egShrmerecpOAiOSj9UrpOwheDijk3wNJZkuvKvHJufpfidDlWrg3P+T+RKed7V1dsN5xziSQHshJpVAnxJDZafJhxSVlc5PMSqUuVvA3iodUdAdfhpfT/pV8sQRDKQBDYDsHugELpMigrddqpSytVdZ/t1ap9TuUD/3vZbu9SIjg3wtJKimrVgVvWGFLj2SwmFp2z4LNY4lL6JMzvn0oD8pwq2RDrCkNwdpjnk8VihhR2xugSCUKx6tOpCgXkCrJBICZ1cRjFTLtlU7rmPKjY+cDOdi1OSSevS8XvliAI1yIIxS+c65QnkSvhJbwYas7EFy2tMQiQ91N+Xn6xft0pQncVl3rPYpMgMOCii3WN6ZybG2o0WWEqKrzUBqH4GSWGryoNNGqlm58sblebEcgvKITEYbvC8FUQhBsQhNKRFIWbY21+9hxjLgAAIABJREFURUTfqgoBIuF5ufkgXlDa+K60as9skyBIEASYzDYU6QuucJ11YWWz26FSe0CjVlTVcIrn1kAE8vN1QDFBYMmUkCBcOYrXi4MgU6qFBKEGTnzR5OqPAG1uOTn5kMuuQxCsEgQFCgmCyWyFofAiQXBJW1wHGZvNDrXWUxCE6j/tq1UL8/J0kOCiBMGlZhAShOtIEEp7L4hcDNVqPovG1CIEnAQhDzKpMz20ywCv5FRss8FslSA4yLcW9bpiXSGCoNcVsPtsSSRFoMTTShCEiuFa168iggCH9VLJFNkjiDgIF6eGCLVc118T0f+qQKBMBMEmRbCQIIBsEEiCQATBFU2RxuyiBMEGtdZLSBCqYiLX4GcKglCGwRMEoQwgiSoCATcjUJoguDY9V2h3VyRTIUFwgm4yWaEvzL80WZMgCG6ekXXvdnl5BZfYIAgVw1XmgCAIde/FED2+NQisLtiJpuoIRCjrXfHAshAEk1WCEKFigNlsRaHu6gTBFfX1ehKE+++/H7m5ubdm0MVTqhUCEyZMwPjx46/aJkEQyjBUFSUIlG5267ZtnJ6WUlhTCtvly1fA188Pnh5atGnTBjN+/gXBwcHQ6wsxedKkkshxlPUyIzMTZpMJDRqEQaVScsbLgvx8hIWFo2nTJiUtNzks+DNnOVIt2Xg4YARCFP5l6JX7q9BC9MMPPyIqKhJRUQ3RuHEM5syZg8DAQBZ79urVC+vWrePU3gEBAejbt09JI86dO4fk5BQUFhYiLCwMXl5eyMrK5KyhVLd58+Ylde2w44esxciw5uLxwJEIlFedDvqf2bOh1mjRICwMzZo2wapVq6HVatl3uE+fPti2bRssFiuysrLQq1dPhIaGcj8orXl2djZMJjNCQ0Og9fDgMKc0Z/z8/HhOuIrFYcWP2YugsxXioYARVdrf+Ph4HD9+gsdTV6jDHcOH48CBg0hNS4Wnhwduv/32knbn59OGJee+hwQHQaO9mLPEZDdjScEW/JG9BI8FjcFg7+6CIFTilawsQaB3Ljk5uRItEJfWVATee+89vPLKK+4jCCTes1qsUKqU14znQosdLSJFRiMoQyMF5qDc7K5ocUVFRbxpUhZHs9kClVIJuVzGi6mUrJKKi5xcK4oLueo4szve2uDhFSUItGHShvf9Dz/iySceR2ZWFt59913YrFaEh4dj0qRJGDzkdtw1bhzSU9Mw/aMPYSwqQkhICG+MlBEzISEBHTq0x6bNm3Hq1GlYrRaEBIdg/PhxJbj8kDUfT6R8hkaKEDRU1sOK6K+qZK5u2rQZSqUCCxYuQlGREf/331fwxZdf8aZot9swaOBAvPHGG4iLi0NAQCC6d+/GOtKoqCjk5eVBp9Nh+/btGD58ODZu3IQTJ+Mhl8m5zlNPPlHSp3/y1uLeC28hWlEPaokCe5r+AWkVBJRftWoV8gsKcPDgIQ4+M/WRRzBr1t/QemhBce+bN28GwuSJJx7HvHnzMWrknfw+UH9p86TMprR5RkZGYu7ceSjQFcJht8HTyxP3TpxY4vf/YcZMvJ76DTprW6CpuhF+Cn+1SsaXHrpy5UruL20oCYkJ6BnXE6vXrGHi6uHhgcceewwBAf78zo8ZOwaT7p+MY8ePo1/fvujYsQO3u8hmRJYtH31OT0WEIhgvhdx3SwjCtWKXcQz6UsGVXH/T+1sSdAjg8ZLL5VWG/fUefD0VQ1kkCIIgVMthvSWNcitBoJcnKTmVsshArdawW6RGo+bFoXQ5evQotm/fAY1Wg9iWsYhu1Aj/LluG6OhoeHhoceTIUXTu1Ik3PlowaSPs2asntm7ZgpycXJjNJiiVKowZPQpLli5FVMNGOHvmDAp0Orz0wgsVSl5zMb1L+XCvKEGgp9Dm9tXXX+Ppp54CYfLll18hPCICQYGB6N+/H15/4w3uf6FOh9deew1qtRqenp68ceTm5WHnjh3o168fEynCjwjHqFGjGE9XeS3lOxw3X4BSosDBohM40vTvK2L8l6/HFat9/PhxPvl/+umnyMrKxttvv4VXX/0vunfvDpVajfDwMKxZvRpRkQ0REBiAPr17Q6FU8ImZTtREGv/9dxmLu2hOzZs3j8njiDvuQGRUZEmj3kz7BWfMSVBCjjn5K5ETux4yyUVSWbHWl/+qI0eOID09A2vWrIahqAjPPv00fvhpBiIiwuGh9eB+//TTT3jzzTfw++9/YeLECTCbzPD180Vi4jloNWps274D3Xt05xTnmzdvgclsRr++fUokDdSqexL/Cy+ZFzKs+ciyZmFjzI9VMr7UlvXr1uHfZcvh7+8Pk8mECfdMwIL5C3Ds+DFo1Gp8+MEH8PTyYnLz5JNPYMqUh7Ft23ZMnjyJDwRZljz8mbscSZZMrCjYjBC5/y0jCDQ/L1y4wO8SEdJ27doxASCpSFpaOhQKOXr06MGSHSJwBw8eRK9evdGiRXMsW7YcO3duR2xsK/Tu3RuNSr1/5Z857r/C6cVQcRWDIAjuH5Oacke3E4TCQn1JiM9CXSH8/H15Yytd6IWbPXs2VGoVJt9/P4wmE5YsWYLGjRujZcuW2Lt3Lxo0aMAieBIhx0RHIzExkRfc7JxsllDQRtmzVy+sXbsWHTt0wMlTp/ik8szTT1Uot11Obi5os/fQankhzs3NQ0jIRVHutQa0ogSB1AS7du3CgQMH0KFjR7SKbYXNmzfzQkQYjh49Cp9++hmTpqNHj2DEHSMQHRPNi8+GDRtZ7WA0GhET0xinT59C8+YtcP78ORZh9+zZs6S5SeZMjD/3MjKteZhe/xmM8Ln43a2cpCQeJz3m+g0bsWrlSvzyy8+8kW3ftg0n4k/ioYcexMyZs9CgQX0mj6Q2IDUEqVrWr1+PnJwcXpw7de4MhUwOtUaNpKQkJkVDhw4t6YreZsCAM48g06rD12H/wSDvLreymyXPysvPZ5VJdmYmDh85infeeZvfAxrzI0ePokvnzti+Ywe6d+uG1avX4K67xjI+rVq1wvJly5k8GwxFfOIm6QkRCtqYTp0+g55xPUqec8GcjrsS/8Mqhu/D/oseXm2rpL/00OXLl0MuV8Bqs2LVylV4/PHHsWnTRu4zhfx9+eWXERwUBA9PD3zwwYcIDApiIhEYEMD9fyb5EwQrAiGDBPHGRPjLvTHBbzA6aC+qkFydc7cNAs0lImbx8Se4TbT+ECklMusfEAC7zcrv4meff4bnn3seK1auZKLz4gsv4vHHH0NkVBSTC5KGEEmoTkWoGKrTaNSstriVIFDX6SROmQtJekCnXD9f3ysypBBBWLduLfz8/LF58yY8+uhjOHkyHiHBwdAVFvLG4e3tjYSERNa3Hj12DG1bt+YN8t333kNsy5Ys0nvwwQcx+5856NG9G9asXYtGjaLRo1s32B0VS3F3/kISvDw9+QTRsGFUmUayogShdHIUepArhjz1i/qvUCiYANCmQnVJfOkSddJCVDrzDIs6HQ5YbTa+7vLMW+wb7nBAViocbZk658ZKNCdIlUAiTeojERlqJ21+dLqUKxS8ICuVSq5D/XUFdKH6pdNl03eu+5Ee+3K1kgvL0uF33diVMt2KxozHicXPNpZ6UHuI0JCI3RX9j+qQeJvsSFzFYjY7o+gXZ/aSFY893dOZfOfSJnB/OQXrrZeUlG4JEWslidklElaDucaYxpVWBpISuNpOc5vG2vUe0LwtT3E3QcjNycHcefMYc5KAhNarh107dyIyMgr9+vXFO+++h1dfeQXPPf88q7T++PNPbv97776LF198kVU/Go0WvXv1QpcuVUNKr4WfkCCUZ2aJuqURcCtBoJc9IyOLFwdasEhdQCdy2uxLl7NnE/g0uHPnTowZM5pVECQy7t+vHy8kiefPca57Wkw8PDz5BDlw4AAWt3/00cdo374dUlNS8fDDU7Bi5Spm+4cOH2IJxG0dOkJG4dUqWEh8T4ZzZS0VJQhlvb+oJxAQCFyJgNsJQm4uPvnkE5jMFkRFRkAilWLwoEE4evQYrz1vvvkmaLGcNm0arzPe3j7Ytm0rXn31VSYWpNajdY8Mb0l1VNo+oarHr7I2CBEREUhJSeVulCanrkROFxOIcQ0m86VdTokM095AhUm7xEFa6OK6zs9deNHhoHRxpkAnRizhg8Ol5VLFsOuZF9tZnPiM2+R8DmUBpefDcfEz5+fOZzjbKOEDiPMaZ1bMkkLtKf7blVHU9Z2L7FIfL1570bbuYhYs5w1KJ8Iq3XbXYch1MCT7OqpMByzaVyXF7XT9Tv+7Cn1X+u/yzD26lg5fdD0dyqi8+867PMevVirkxeDqKHWSJwOfbi4txiIj65e5MaWy1hFsJHUg9YHrhEyGiUQ0DAYDM3aXASPdgwy+6Bo6OVO5/KRdHnAqWlcQhIoiJ64TCFQcAXcThGPHjvFBhdSbZERLdjC3deyI1NQ0mC1mtnEaM2YMqzTJLoakJXRIGXr7EJbOzZo1i+2uBg7oj4Biz5yK9869V1aWIJCEV+Ph5ZRsKlW8ZtPartflwcfbC5DK2dNGp9MjKDiYJbB+3h4oyM/DiaOHEREZjtTUw1DKvBAY1ABWow5mC2C0SlFoMCArOxe3dboNBXn5SEpOYklnkcUMc5EJDRs25ANbkaEQ8SdPQq5UMVFo2qQZTGYje3KplGokJiagfrAfjxVdL1PI4OcXxEbfAT6e2Hf0NIKCAqBSqZGbmw1TkQk2h4NVSF5+vrAGkdSHNmIJPL28kZeTBYndjHB1NixFOhiMFigVcvh4qSCTa1BkNMM/MAhmsxkalQJaD0+W3kplMvj6+rGairZqfz8/nh+6ggKWKJJ022SxswePxWqGp9YDeoOB70F7m1qlhNFoYlV6SrYBnfuPQHZuAfYcz4BNlwKVMRWwGWDV50JXkAOr1Q690QyFnEiJA3IZEQjnnmsyO2A2FTkN+4sJkNVi4jY4igkS2X/JJAo4HCYAGoy+cyjS0tKwfM1qNqZ+6skX8Nxzz7qPILh3alf/uwmCUP3HSLSw9iHgboJQ+xC62KPK2iA8++xzcEjlbF9CqkAqVosZRXod/Hy9ofHwhlKjhc1qg1zmTP1LEuCTJw4DNit8fX2QnZGC8IhQ6AsKYLLqYTXKYLNRjmmnizap4eQqDVQyKSx84CuCSumB4KBgaL2DkJR0HulZOfD3VEPj6YPbuvTg7JNs3JqZicWLF/IGTbY7oSEhKCg0IMDPlwmDtSgfVrsMCpUHLBYTIqMaYfeunazuY/WeVgtFo0EICqkHub0I3r4+OJ+UDpWHD2RpO2EuSGe3XT9vT8Bu5aiTRrMFhXo99LpCwCFDSKAH5Co1LqTlo1mzGBQW5OP8ufMYMHgIYLfhXGICS9IDAoPYm6uJnx/g5YtsowmGQj1kUgeys7M4dLjJYmPVa2q2Du17j8D5TCO+X5XulH4QjbGa0LqhDwI8ZdCYUmDIS4O1MB2mvCRYzQbIpUbYHRYYDGZYzFaWmEiIBNid6l0bEQQ7IJfKIJVJOFwyJDIoVZ4Y0r8fzpw9i1379nDkzcemPoPnn39OEISKLhCCIFQUOXGdQKDiCAiCUHbsKksQnnzyacgUSoRHRiHQ35dPz3TiTU46z3YmqWkZLOUlw27YzXyq9fXzZ9d0faEO9erVx9LFc6CUSRDXZyD8A4KwactWxPXoiZ1bN0IiV0CXnwuylZDI5AgLi4BelwOdLheRUU3RvEUs9u3bA29PD3j7+sGRlQ6F1YxUiRwenl7w8fHF7p07+CRNJ2fyEqITvL+/H1JTUhAc5IMgfx8YbQo+aWvVOiQlGWGxWlFktqPIZEKidgD6dmmMQK0NJqMROXo7Fm5Lx+DwBBRlJ4P0CiqFEjarGb7+QcjLzYJKrYFBV4B+7dpi+d6DkEpsMBopbLUW3h5qZGRkoP1tXeChUbNUhSQG3j5+MJGtlUqBLG0bWGUa2K0WBFvPQgMDgoODoLKaEZScif0mKT463RByqQQWIlOlyr29ArB0VzYmDwzDzysvIDxQhfikQviqgQZ+Evgr8qFPjUdhxhkY8pNZgECkwGY3MQEjQ2+ZVMnZUG02K0vfbXZg2IC+MJhsWLl2DZQKFR555FE8//wLgiCU/XW7tKYgCBVFTlwnEKg4AoIglB27yhKEocOGwmA0oX2H22AxmqBUq6EvLIDRUIiGDRuhcUwM22Ao1Go2rE5PS4eXtxdSkpKxZ88ONAiLxLIl82E0FyK2RTvEtumA9PR0NIqORnZWNvbt28vqHVJbqKUmSFTeoBg3acnn0SCyMaKjG2H9xk3w9/PBoIGDYMpPh0oihU3tCZvFCqNRj72HjsNg0PPp2uGQQqXRonHjJvDUyOCAjPX3dhJYSCzcRpONTuNypz0BqU40HqDIm0UWQK5Qo7DIDIPZjnpaEwwFOU5pg93OEglSQZnNRpY+tGvbFjlJp5Ccb4HFYkZQUCgysqj/3sjLzUXrNu2QlpyEC+fPQ6nVsou+RK6Ew2aDVO6ByGbtkJObB7k5H40jg5ns2E35kEhl2JuqxuzDWv798qKSS1DPR4p6/mqcS9NheNd6+Gn5OZgtNjisFjhsThuCen5ShGbMgy4vDRIJYSCDHUQIbFArNbA7bCxZMP4/e+8BJkd1Zg2fznlyjhrlNKMMAkkEYQQiCkw2wYCNiTZg1l78+d/17rfG699+/l3b329v8AJOGINtjAEFMkIIBZTjKE/QjCZ3TtVV/T3nvd2jQQgYaUR0l60Haaaquvt2Vd1zz3vecxI6SorLsGDefHR3HcZba9bCZE7j3rsfxDe/+c0cQBj+7ZYDCCc7VrnjciNwqkYgBxCGP5IjBQjzzpqFUDAMr7cYi76wSBw9J06ajIMH9qO6uhYDQXaekUlPQWeN29Cxe3ezTKCcNOkpQUFnaWmZMAxTm2aK6Rn9Xnp6e9DQMAb+gT4kNbaSjoZ/oF9amC9cfDHa2tths9rQ0dmJrVs3YPEXzgbCQfnwuqcQFpsTHm+erICPCv1UmUMEjix3SElEg81uF42ANdPNRSFq1tyKgCRtsiIei8h+R7qUUytb3StKi+XvFis7xLji1hEMR6AlknA6rPA4LRgIxuT1DFiQiEWkJJFMsENJl89FgMHXCvj74SssRzQaFkaiqroavT3domFwOh3QNQ2RaBj5+YXoMtXDlFeF1c0hRGMpBGJpOGwmxDXFJjSUEDgowWN3IIFAKC5/NwhCKJTUUygvsGJifDlcDguoPzjQsg8GExhNNphNBlKGoTrCdAMzZsyGy+ZAX18nmvcdygGE4d9i779njkE4FaOYO0duBE5sBHIAYfjjNVKAMGfuDJy/8AIxLKurH41QKCDMwTvr1mLc+PE40jeAojyfrLC7OloxqXEmtm3dIpoFistr62qxbetWzJo1G83NOzBh4hTQI4d6gA0b1uOyy6/E66+/gqqqWvFwoQD99ddfxbzTZsBk9yAcSSARj6Kr6wj27NqAYh8FgQ509faguLwOFyy+RPHnUGI8XhudnR2orKgcBA3UCzg9Phk0dinQuVf+ZzIrMCF/N8HrcSGpaej3B6X12ON0iDjeHwjC43IMaSFXHRSqxVi1qWc7OPgaypmTok6bAAoClda2Nqx8/VUpbRQXFUhbcn5BIQwtQith9AVDsJntMufX1o7Cfss0lBbnYcuhKKY1ePCXNX34yZfr8NX/apXPQThyz0VV+PdnDmRaog2kU6pcIG8AaYytsMLe/CtUVZWLFmTvnh0IR8JIg8DAEKYmpRsiXLxw0WUIB/qxf98edPb2QE+ZcN99X8dDuRLD8G+2Y/fMAYSTH7vckbkRONkRyAGE4Y/cSAHC7NNmIhzyw2qxoa5mFDTdQE9vB0qKSlDfME7U+Vz50viqs20/KmvGiNX2rt07paOALAOzHEjPu5wuTJs+DS6HHW+uWi1ZIxTmceWtJfuQNkeRNqzQdSeSySBMsMNm86CqogLFxaUYP6ZB3Ei5ejdMaTi91DpYoSU1mfTFDyalY2CgP+PmaxILc7ZRGgQQGU9tAgP+rCQYRH9eHiw2Gw7u3wOf143erhbpPPD3B1FQkIeisgpYzBaUFObD7nDB4vAKGJLVOj1mdFW+4M+UI4kqCQhRIQBEgRC+PYITaQMFQL+TgWAITpsFNqtJVvwsk3R3UyBZiHWBBjjcPpnAvS4zVu0Mwesw47zpRbL6b+2Ow241IRjVsXJnAJfOKYKWTCAUiWP9nghiCR3jytMw7Xoc9XU1Mi4tLc0iqkwZCfk+xbcorcMwLLji6hvQ1dGJ7ZtWIRiLiYj0nru+kdMgDP9We++eOYAwktHLHZsbgZMbgVMBEDo6OlBZWYnOzk5UVVXJ3MEaMSn00tJSce8syM9HPJEUapm1ZwrvqEYn5cyNq0tOkDRJGtovLwZYpL3NZpm8mE2TpbM5WdK7RSYYisMyBmcU1vHfNEdrb2uTCVf5AJjldU52GylAaJrehGBgAHabXahvmnUN+Lsw78z5mDx5Bg4fbkdtbR3+8uwz8Ho98A/4pTVx/4FmeD35KCv0IhJLIhwNI8n6uCkJm53BOex24ESZQjrlgs+bj/qaCmmVLMjPg9Ppgc1mhstTIJM5dXq6rsaLY+lxuWT1ntQSMvlRkM9yA8c+EAzId2KzWsWNN8AQuKJC0FOAVD5tzbs7W1DQNYCXW9dDN6WkdbWooEKstZ0uM8yWJAZ6U9BScaH4UzGu/IswdtRY+FwuNM44A4bNJuAgJUZ1hnRycPrPljyEnRBfhKOZHkON7JQEguiCf0lDSyQETBWVVeLp3fnYcCAmkzivLafNhGgyjbSeRKHbgi/Or0B/WIPbFEd9VQF+/WoPyvPN8NmTCMd0NI3Ox/qNe+Df8htMnTxFYgpa2vbCbrPJmDlsDgEH3BJaEnff9W309nRhxQtPIpJkK6SOu752Px56KCdSPNl7T+yZnS6XOp5oUmo66o/F5hBEmttyI5AbgVM7AiMFCAQBP/rxj0EToMmTJoGJoeeff77kKnD1OXPmTJmUpk6dKkZI7LcnUKDT6m233QpmN0QiUQndam9rx7jx494V1vTCCy+ITfju5mZMnTwZLW1tiEaiyC/IV3R0Oo2enp5BMRsJY1ql2x1OLLn8MvT1D6C0uEja0p5/YankVZzsNlKAQAaBxnYOuwU+b5FMvDU11XDYbaiorEFHZweC/gH09x6RVXI4HoKRTsLptEI3WWDoUSTjQCyuQUsaqK2oRl11JeyeIhQWFggIS6UJhJRLKEPYWO+n+yiHioAgbaToFSpDoEoBboRCynU3OwGzzZGAgP4GKaIJk0no/MrSYmzfugnth7cAJnoRpJRzqQaUW4rRPMB6ux1Ol1VADCdqr9OLtC2GYJ8Gm9mLhpoJuOHsL0jtPnTkCDxFxTi0bTtSk0Yhz+RA1OUULwgCuX0HDwlYIH2fdTfNaiJUO4GaJ2TKIN+QdUdNpxHo60RbywF09/Sj4LRbsG5fBFv29ctnFLGiyA/SGF3hQb7Hiq5uPzoGkoDZApfdiimjfHBaUrBazDjcFYQn1YvOtf+NGbPmoKujA109nTCbWfKgeFP9V4gXkxn3f/3bONzZhaef+qWwRCktjfvufSBXYjjZG4/H5QDCSEYvd2xuBE5uBEYKEHj8r3/9a3FEnDNnDjZu2ig5Cq+8+ir27d0nEz+ZAk7yq1a9BZ/PK6ZJzI+55OKL8dvf/k5yUZqamiRojWmUjz/+uNi/czJ44fkXMKphlER8X3zxRdLmNn36dGzdug2bNm8SEybmjdCYadu27RJvTktt1t/z8nyyPyeFTZs2yWRy8003ndxAcYWdTCE8grCmyVOmIBoNoLK8AuPGjIauq5JCMNiPsROmY9OWNUimQ9A1M5J6BMk4WZM03C4XKsuqUFZSBJ/XI/4BAP0IHBlLeLMYF/FzE4wxgC/LqIi0MEPNk1EhKyCsDM9gNgurwvGhsRBj0bkvzxGPhWFO9SAS64Q/GEBfMCBmSaTVoxFN6H4rTEiZNbEFT8TTiLMjwaTD7aXRURqBQJzvEnogjXPPW4IKtwMxlg8ME86ZPRcte97B3h3tqIzrKG2cguIJozDQ2QtnVSWSA36EnDb0R+PCkCQSmoCUjGJBlAM09uNnUFhBgUXuwM9M46UVaw/AFj6A8pIimO1uuD0+eAuK4U/YEE57ENQcMFlsqCjxIRhLYc0uP/a3++WzsYOBYIG+CmndwPy6EJx9a4WxYu5PT+8RWG0stSimQ72PNJyuPHzlplsQSaXxu1/9N0KxsIgX77vnmzkG4aTvvBxAGMnQ5Y7NjcBJj8BIAQJd637zm99gwfwFeHvN2zJZz5gxEy+99JKkpdKltaaqClMbG7F02XIx42H5geK8yy69RILkKGajQx7pbbosMm49Wwogg0Czm4mTJoE5D3SHJdggQ5FIJlBeWoaZs2ZKWiQV7uPHj0dLS6usqJl6yvIG69t8qHMyvOnGm1SnQMaC/ti8lQ8ayJEChBkzp6Kn14/SknykdbrgmmG2G0gmDMRjhjgoul0elBQXorigGMWlVSgrLYbVKkV4mK1kAui+aJFJnIBAlVtM0vlAsR31ATLpm0xSYlGlBJVLI3bHLLPYbPI7Ch8lXybD2ibjMQQCh9Hd2wIjaYFu6kZNeQn6AwF09UXhsDqR1OMw6y6kzTqcTjNCkagwE06PAzYH3Q0TiEdS4Pxa7KnErKY5aKysx9jGGXh1yw6c1jQJvmQCr+9qxuFD+1FgseOauWdjfyIKlymN6qJiPLr6LVRWVkOLR1FRVSN2y+yaIAgKBIJi7MRJuadvAG6nA730jUhTIJiGKa0LP5Iy0tjbnUDnrnVwu6xonDoJA/6QTPg1VZUIhOOIBvtw8MBBOFxB9AXyoNuccDmLAF8FuoxK9MdtCIaTCAZDGJPejNjhtWhsmildJ909R8DoHuojKEy0mPk96MgrKMYFp8+HLd+HJ5/+regYWE7mFiC5AAAgAElEQVS75+4HcwzCST+lcgBhJEOXOzY3Aic9AiMFCFyN/u6JJ6TEQIX9qFENWLBgAVpbW7Fq1ZuSyLhp02ZcccUSSamsqa2V1ElO2JdddrkkdfIctMRljfuCRYuwdu06LFgwXya1pUuXygOaK2Iq2enux/77qsoqvPLaq5gwfrxoDEivU3tQW1uLl15+WZJpOVGSrqb4jYmeq99+S9JcGW/OmGkGQzH9lcmvw9lGChBmn8augxAM6NBThqx08/PKUF5SiOqqSni9eTCZGSZH2toEHVZp/2MXAwEB3RcJnNhqKLkCmUwGUfnbKEK0is1wNlwtCxT4O+bqUMOhAtgMpNJs39MEWAT8HegJ7Iamh4UmT6UNeKxF6OnvQjLK8AKzGiOrAYvVhEQsBd1Iw2I34ClU3QWxgCHjajFZUVdRj/GjJ8DtLoHNVYgdO3fjtddfE7vkirIiVOR7UUfr57Iq1Hq8ePq1V1FSXi1lo2R/L6orqxEJRRBOJ1FWM0p0Kswioq2yMAXMpNBTUqKhGJFdBdxU6alAtDBMJLbbrdi2ZTOsDjdG11Vg/4EWFOZbkO8rkrI180F6enoRj4WEUan02DB6igm9vVYcbE2hO2ogGk3B7HBCj8dgTvkx57T5eOeddQiHg7DZTEhLHoayfLaYTSgpr8Pkhmp4fAX483N/kXG3Wyz4ylfuyzEIw7nJ3m+fXIlhJKOXOzY3Aic3AiMFCDyeE/zQxM9sYBB/zhUuhWwsKXACyaZtUhPA/VSYjQryEQ/8IWmr/ESkilVoTza4SCnYRWynq1RTNUEq62Lul01vzbbMcf9sQNFIwp9GChAmThwHr8eKysp65Od5JX2Vhj4pXaILYLGqpFJONg6HDQ6CAT2lOgukTT8bgmSWso2W0oWNyQIB7sHPx3877A5hZtSmavWc1PnfWNSPrr7tCMX7xV3QaTUjHE/AarYiHteQ0gzRRfD16DFAZ8NoKoZI0EBndz8qKj1wegkMDHgdDhR4fGhp70NZYQ1mTJkBs9mNgtJadHb1iPcCx76tvU2CqqKRCOrq6zC9qVH8G+L+XvQHQmjt7EFPfx9KCvNwxtRGRDUNdl8+jvT2ARZmHDDVNSWrcc7mdIOkxoVAiWCBuQ1dXd3iHcHS0isvPweTOQlD01FaPh5TxtdLGWr6hAZYPWwlTUssORmXHbv3wGLWUJDvRqHdhP5IHBaTCQmHjs62FFJ6EiktBUK6M884C6veehNaKiraDFpiq25IA3arDRMmTUe+yyr3xLot62G32JAyUrjzjgdyXQwn94hSR+UAwkhGL3dsbgRObgRGChBO7lU/m0eNFCB8/e6vCC2tg/HcCuRw5cpJz+5wZNIFj6r0VSy5KhkoEKUAggI5yoMg+3sFLOh0aAhYysbB6wwTMnQkon4c6lyHBL0CrDps4ipItyIFvljikAwIq0W0FgqcpaTs43TakUIS3kJaCptUtwTSsKUdSERScNtL0TS5CR5vIfKLqhAM+pEylFUzGQmbBbCZrbBbLbDxIzg9MBhSFQzCZzVR+i8ZBuy0YC9AQNORX1yM9o5OpE1sJVQtkCyPWEwqIZEi12AwgKROLaQhOg16Nog1dEEetu9Yg17/ARTll8KULsH0SWPQ1d2LcreTak0k9RQ6Q1F09/SKnwG7QjwOGwrdJnT2RuCrssJ/REMwYsKYWidctiRCMScKyidh1VsrxWqZ34fVSucHlTpJkeTcuWdLSedI6160dR+BbqjuhjvvOMVOivzSDh5qQWlJsaRSlZa+NzqZwggibtZe2FLCffv6+1FeVobunh5BaERYUs+TGg1kcBWyVng060yd/dkndet+HgHCe2NVT/3ovvPOO6ivr5fksOGsjoiEq2uqwda0D9ufDxsm7rGWnF2hfdAn4P6jK7ficFc9Cgt70NU/boghyvGP5DEFBQWiRHc4HB86QLxO+Z5YW+b48vj3O46/z8+n2l1FvDLR7qPePmxMP+rXP9Hz5wDC8EdspADh3nvvlRhsTsJSMrDaJNlQxTCrVk15LmfcC6Xl02yWCYeT96CrIUGDxQK3yy2ajEg0IqxJ9hwqYpkJhCH0DuxDJNmLZCoCnSJ9qwkWkwWapsNIpXGkMwSLTpOfNIrKnCgu8VKnKCCgPxCE1WaF1Z6G3WVDaCAKl9su95PVZEGetQzjx06FbjgxeuxEYQz4GdxujxwnJQ0AeW4nrCYTCDvKSkrR3cf0RE3Yi3RKh02HZCroMBBOGcjP96G73w8jTSEiV/BqlmJHAe9p2knHoxFhT2JJHS6ng4MnHSJ0OfS4XQiH+rCl+RVhRcbULUBooBtjyopgN9EGWhOgQlCw/dBhRBMJ5HttcPl0pKMGOvriSBkaDNjECMmk6yj12WB3emDJG4W161ZDS8Vgt7Nsk5Jno8POMlUaF110jYz96688h1iCVtRJee933fHQqQtrIibp7DqCstISoeVC4TDKSkvfFenMF92//wD++MenRRhEP+6mxkY8/8ILImKhInjKZPXzX/7yl7j0kkvkYUkXr+qaGryz/h2p3+TlF+D22259F0U4/Fvm1O35eQMIvIliseipG6DjnIkPjAcffBDf//73ce+99yEYUtapStH77gOURkmZi3zn4e/gkUceGTREGUwKH4IYs2Ypt956q6jKh56O9NzgRtVwZmXDVdGvfrYF//mrOlxyURe++7/Hvzv4/nijkU7j/PMXYdmypYMJdx80aEWFRbj88svw6KOPDq6s3i+3nbXB6667Dj5fnvREn0iLGx90fOBwvMrKyob1PXL4XO7PVjtuDiAM66uVnUYKEL750EOIRVVsMEkBtsapSV+xAiKc5C8ypkBmSQ88yhIMdh3wgAyIEJGhpDaqLR6PoXdgJ2LxKELxLlndmtJWwDBJiYFYhBNqJBoXXYHLaZOVL3URLrsH/UE//MGQMAcFZS5Y7WbEI0mEg3HUVJYi6I8jz1WAWU0zkUw4UFRaDcPsQH9/nwADlk343sT1ULojHKLw5z1aUV4h1s9U/vMz8jVIxXusVtEL0Pk4rqVQVFyMIz19AjbEwlinSJHsgQnJVAq1VZWiceHnYRokOzDo3cA8Ck2Li9tiWWkBlr76G2kpXXzubXhl+V8xeVQ1Ctw+EbeKEVM6jR0t7RiIm+CzabDodGK0oifIsg3g8XgRDAdkJU0AkJdfDljc2LFrowRp8XUiUQK+NPK9DjgdTtx8y90YCITw9B9+KVoS+iMkdQ13fe0hfPPBU5TmSMaAwgwaUdCUoba2Btt37ELj1MnvAglUof7Hf/4XzjzjDPG6Li0pxS/+4xcYO26coBpejOXl5di1e5cYmbAWSPTa2NiIPz/zF2kBqqutxZe+dIMg0VOx8f1STJTn9SIai4tZCt/bh205gPBhI/Te3/PhwQjR73//EXz9699AIOCXndjmNG/emVjx4os4Y+4ZkobG3nDuz9ag//W/vot//cEjyvPcMDBr1qxBYc+Z8+Zh+fLlg73o1157LZ566qnB6443/tlnn4MtW6gK5w1giAKdm5YCfv1/FEC49BIChImZqukHfzbawr7++huDK6kP2ps12yVLLhfQ8mEKdD4AvvjFL0p98nBHB2798i3DGmSKwDZs2CiGLwTUbJ2jCO/DthxA+LAR+mz/fqQA4YEHH0QiFpXVf9YVkM9dTn78N+vzUk6QVkMCB8UueOkL4HAiGuHEreh/QnQ69JE9jkdCSOhHcPjIPmmPtDrMMnmxEVGLcSIEUklA19Iw62lYHBn5vSktokO+hs1mEWBA7wS7G6BTMRcC/X1heJ1MSjRDMxKYOXEOasoaEE+7UVs3CgcPHhBXRFL+ZrLZtBsW1pqrajKCShRZU1OLjo7D4nrIz8jnkGhSbFa4bWyYBCIpXWKc29raYFgYxEQxpC4JjKKJEAZcQ11NDQ60tIg4kIwMSyhFFCfy/FpCfj5hbD1eX7kMRwYOYU7TuUhG49javA5nT5oDh9WBcCwi3Ry7DxyC3etBYKAfeS4zEjoEIBQ4LAjE48o1kvDJ0FFeXotkyoK21j3iJdEzEJHyyeiqAuimNBIJE6694VbRJDz22M9k3Bn1HI7HcM+dZBBOUVgTL4L29sNiotHX14/i4iIpIfDfQ7f9+/eLEpNoiK5bV155JX7/+9+LBWfAH0RT09RM/28a+w/sxxVLrkB+fp58iY//6ldCTROJPfDA/YP01qm4hSlG4QVKkQztPIez5QDCcEbp3fsMBQjf+Mb98PsH5AFy5513Ys3atfB5fUJPTp48GY899thxAQJbwS699FJRkO/Zswe7du8WcdTevXvlxY4FCIylra6uwbkLz5UH2ttr1mD/vn0fH0AoKMCSyz9agMAHHEHVnr17pZRx+WWXfSgY4QDkAMKJX8OfpSNGDhAekgAiLk+z5QJVulOMH4GDEhlmmQU6PzIp0SzP0iyg55iltBj8wXZEYj3oC3QgZejiiGimiE83w5oxA2KkNCc3uv2xXVKV2wzlV+B0SuQ0A5PsTjNsDgtsToYRpRAJJ5CMGbCZbdLvX1c2ClMnNqGrK4Kx4ycgrpkHDarYfiilEJavaepsd0jpJCuOrK+rQ0trq8w7tIPmyj9BwSFX5nTGJNih2FU3UF5ZIW2qmlRbTEilklJiYBlRui80DQ319dh3iABBlzIGWYiqinK0thwUVsIwUnC7HHDb03h59TMwW0woyiuBPzQAr8OFc6aei5B/AJqewqYdOzBryhQ5d+uRVkRjMYQ1C6pKHTjYGkBcp/unBclECqPHTUBXbwB6rE+esz3BEJJMqqxxIZ8mfxYPFp61GEbajN/97peIpZLId3rhj4Vwz53fwoMPPnDcy93vDwqrktWRyMKHDFFHR0f6/Wr/gUBAtAdcsbG+NGZ0w7toXk7Av//DHzBxwgRBn0RdbO3ZuWsntmzZisUXLcbSF17AmDFjEU/EpZ2DrUCsDbFV6PU33kBNdQ0OHNiP++67DxUVFaf0XvX7A4PtJ8M5cQ4gDGeUhgcQvv3tb+MnP/0JLrn4Eqx6azWuvuoq/OIXv5AbltfTd4YwCLTCnTJlipjV/OlPf8LlS5bgsUcfHdQnHAsQ2KbWdeQIWE9dvnwFtJSGfRkw8bEwCB8DQGCr2MsvvyJ2twynGTN6DCZPnvShX1AOIHzoEH2mdxgpQLj/gQeF1bVYWWJQIICrd3OmRY4Of3yuZ8HD0c4NxQKwPJBI+NHr34dwtA9xLSoMgEwodFAEUw4TiEZUR4LT7oCGBBwOq/yeJkvc1e40QU+lxcOANXZ3vh0QQ6A0IsE4wgENiZiBwmIXCvJ8GFs7BpUlE9DZ1YcFCxdj27Ytog8gBU/HRZ6UjodiY0zDpoyIkrqfutoaYSfJxqlESJoYaVJOYYmDDAJ/qqUMFJWUSBATx4Mr96zZE8/DbgiylZyYR9fXYe+BQ8JqppIEEDpqqytx4OAh6WggqOAynrkJm7e+g9aOTTDZeEaLCEErvOWYWjoOcUsUO9t6MbmyUp5jBB99A33oCscQjcfhdHlhaAmEozHEkkmMnzxbSiR2RMRUKhSNoT8YRVm5E26bA0VFFZg4aTpC/V3YsXMHtBT3SSCR0vG1r30DD9x//6kDCDwTFZkUGIrdsAz6MRMEgGAopHpESe9kVK/ZFiK2CCmlpWq7IGWUTcUa5KkyvbTs1/wktxxAOPHRPx6DQOqxcepUYQ3eeGMl5s49XYxmXnnl1YxBjIGHH/4OfvCDH2QeThYBEOw1J3jgvvv27UNPT/dxGQReW1de+UW0H25Hx+EOAR0USHITau2nQ0oM/0zwqgRYH7QtXHieaBCGI1Jkn/NHzSCQouRDhz3rmzZvkZhdGu982Pa3ChB43dBimaJol9slbXrUfPTQKMnlElEZHejIVnIhQnaKlDP715nLsHXrVnnYk8UaN27se4aZq2fSwZ/0NlKA8MA3H0I8Gh10L6TojqvG0rJSaRkk/R6LJzIFhKP3jaFriMd70BdsRTDaDYvJLmyVTbPLIjLtYEcEBeuqvZHXrqGnZeUsLodaUkoWiq0w4A/EEE/GpFXRamO8tCET9EBfFImogbx8J0oKffC6fGiacCbCoQR8hWWoaxiHTRs3wOvLkw4FzisqL4HyQqU3YAQ0n0EsfdTWVCMUCordNT+rBCvp1B0o4yaXg1HJJhHP0yWRz6xNW3fI73g9UGAvAk3OWxbVbcFrobqyEt29vSJSJNvB8/k8zJuwSicD7aTJZpDtZNrj88uegMmhMj9MYHtsCqOK61HjrZDWRf6fGgbOn5quYW9Hj3Q2sKxB6WQ6nULnQBSTm07D7uY98NgNuR7DkTj6gxE4rTSvSmPUhGmoyvfiSM8RtLQcUu24Vitau7px373fOnUahE/6RvgkXj8HEE581I8HEHgWCSgdzHVXOsHsRM2HOTUIP8hoENTETjFUJtmUt3xmFcPfUeT3xBNPvEvEmt1fHXRUh8h+7qxI8UQ0CDTTeeWVVz60q4Lvhx0PZDkez5RMPmjUTlaDQKDzaruOLf06vFbg0lE2VHvFtPYDt79FgMBFCNnIA/v3y6Rvs9sxn/qXFS+iq7tL2JdwOIQLLrgAf/7zn0W5X19fJ4B00aLzQab0wIGDctU2N+/BDTdcL6vEbCAT7Zk7j3QKiP2kt5EChAcf+jsk4rGjFseyeFO+BZwgWUpQkceKLUjpMQwE9iIQ6UY4EpW6fjLOMCUbrGkL7CYrkqaM6ZKEL5hA00WNFLvYMDsA5gWY2UppRTAUQSgchcUO2F1srbQiEkwgGIhJXoOVCcm6DeVl+Sj2VaBp/GnYta8VU6bOEtvhvfv2im9Dfl4+Jk6cKBPy7t3NCIUjcLqc4iYoE3vaQL7PK/fqoZYW5fxIcyNDl64DdtQRMDjtTEFMI6kz80HH6FH12LPvgMqEoFFUpkuJpQSlzeDPUsJSkDVnkFQWWBFcjW4YpUqjaTo5qg6K+ppKRIJHsOL1ZXAX0CNDlWq4jcofj4l1o5CMxZBIaTBnQEkskcTbO3agssCXKYkY8CcMjJkwHS37m5FMRAVwUWQajSWkDZTahzlnnIuB3h7sO9CMRDQspldcePcFIrjrrvtPbYnhk74ZPu7XzwGEEx/x9wMIH3QmPnwvuugivPjiix/6grzZp02fga1bNn/ovtxB00349c82n7BIccKECdi1a/ewRIoUdbEksmbNmg9lJ04GILAF/IsvBbGqO4mZRS5s7I+hyG7Bowt8OLvmgx33/hYBAr93Psj/8IenRNPky/MJg8X22zVr1yHP58WsWbOlhEVLZrZrS2yw2YovfvEKrFmzVsS1ZBZYP25qapRr8/LLLx+sudNN8ZJLLhnWNfhR7jRSgPDtbz+MaCyihLsE4Zk3q3KDlKqewCAa70N/8BAGgj0SeMQSQVqzwhm3QnPR7MgEkyUNq25Gks2BGhCPafDkKVFgLJaE2TDB5mYuA9MrDfT2hWCxpZFXZIfTYxfWIDQQk1yFiqoCqcF3d4ZRV12BsXXjUFc5Ec0HOzFv/rkiRAwFA/DmFYjdMefXhlEN8v2ww4fgYsvWbYhEYsp22GJG45Qp2Lh586AYU/k4pFFRVo7Wjk7pSGA0M2dxsgpckdPdMJgJjhIfBxphGVzBM4iJDATZCsUYVFdVoaWNHRHKwZH7V1aUSSdDJBwCWRcyEGQpRtdXYf361djbvhUOlwVpUwppwwKPpQjjR49HIWjiFQeBgUlaTdPY1tqOinyX2HtrFIIaZlSPbsKhvTuhp2ICuOw2hwRd2exsWbVi4QWXofvIEWzZ8Jb4OpD1D4ZD6PaH8MA3voX7T3WJ4aO82D9t584BhBP/RoYLECQBNcMUMPBm85YtONze/p7WVrq5MTFVWIV0Gqeddrq0RLFllmK9LDshrNxxltMnCxCytdbhjsBw9z9RgMCH8zdXx/DLPYqOfHR+Pu5+O4S4bqDUacHGJQXwOt6/ZPK3ChDYbs1JgVHPm6UkMx3PPvusiM34sOXkv2TJEjz77F9F2MbJiMmtd3z1q+KU+Nxzz0k9m2zC9ddfJ6WIbNcIaV/mMVBI+0lvIwYIf/8wIpHw4McY9KMhza4nEYv1wB9rQSyaQCwRk0nT4TIjFTfD0NJwJqyIpFOIxjTYKCq0W5FI0fXPCqvJyg49OF12JGIafHkuOJwWRKNJhCJhYQysNioATIiE4kgm0ggOJFFe4UNpqQuhSBKF3mJMnzQX0bAGWFxYuHARXnr1NaHJvV6fCoYyW6RULUFTui6t9S6XS8TNIoBMpzF1yhQ0N+8Wp8eh5k7TGqeivKwUO3btFtGihCKladCUQl1dPfYebJESBVusWUoQNkKnTSEtnq2DGQvUGdTX1qB53wEBVAQIUkLXdYwfN0bOT9REFpXMTFG+F9XleXjp9ZfRH20XoGRKmzGlYSa27HsH44pGo6aQMeVphGJxxKIhRJM6yosLpUOr398DzeKCu7QBrXs2S+k/psXhdLrhsttFxOgPh3DrrXegtz+Al55/Wiy+tXgcPaGQ6BS+8+3vSqfZ8baTEil+0jfDx/36OYBw4iM+HIDgSqYwvtuPLTUlUmP7l3/5PiZMGI/fP/kk/vrss4PdK+a0gcb2fmypVYZcXM3d8uUvy03z7F+ekbZbbt64hrE9AWyqLXlPC+PJAoQT/+TDO+JEAQIXNI1PB3Aooixqn1lYjJ/tjODVI8qE5r/m+XD12Pc3c/pbBAjswV+2fAUuWHQ+3nprtSQvEigwzbG2pkZ67A8eOiTZCixFUJPAbAB/wI+LL7pIQConmpVvvikT0Px587B+/XpJhlQL67QAjVGj6of3pX+Ee40UIPzdt74lgVKyms7Aba5G+wOtiKQ6kUomoGlmVBZWIxoNIi8/H4ePdMFjtmVTgWA4TTDpaaTNTA60S3S20+6Us3FSpZiPK3xOrAMDYWk1zy+xCVhIJtlaqKOvO4poSMes2TUCNIpcLqQtLsyauBB79reiqnY0xk+YglVvrYLD4YKbYkTqF6Qzgr4EyqCsqrJSykXbt28HvYz4XVVWVMp7OdxxWMSGWTgdTyQwvXGqlI8Y3W2xkdlQpVACiVnTm7B2w+bB0hLNjjwetzArXImXFBdh285dSMQT4oUwqrYWB+mFIHoLsgi0Q9ZQUV4m1xazGGCkZEyo+ygoyENNdSWefe73sPiiMFIGxtSMw4H2Q9CNJMYVj0ZtYbUwIN09XYjrabisaUS0FuS5xyNqWBGDEz0dLDEkoVEXaLYgP68IHV0dsDo9uPbqLyEcS+Cl555CIhkTkXN7d580Cfzz//pn3H7nvTmAcLL3Zw4gnPjIDQcgVPkjWLK9FT+fP1GQ7jXXXC2CMSL2f/zHf5BVGzePpuHut3bjh+c2UtAsN/KNN94kngikhSlclAdAIIovr9uLRxZNew+L8HkACGOeHEB3XBnP/OL0ArzclcSfDinDq5/Py8f1Y99fLPe3CBCGXrWStvvhmlRZaXIbuu9wjz3xu+TUHTFSgPCN+x9ATESKJmhaGIFwCwbCXZmMATMchl1W4AZDks1WJIwkUrE0rGkzKspK0dXVBTjJBJgBC4VxrNUrO2aKEnkst76uKAKhGEoqHCgophbBIrX3gYEo+joTKCnxYszoYlSWeMRLwe2uRGXJJBxsPYzZpy+A1WbH9m1b4PLkSUlB8jHEmlmBAAIEcVi02aVVUX6W0U7k+Xxi7CdmT4q3FJGh1WLBWfPPxJtvrRIXx6x7pMqHSOOs+Wfg1ZWrlXW0yYTGyROkU6C1vV3EmwQjB9n+mKKzIrsarCJyPdzeIRcSGQR2NCS1JJoaVXs/kx250JHSjcWMKRPHwWlO4Re//gUKS23Q9CQSMfFqFgasvqAWo4pq0dXRhZTTiZqqVhE1trXlw1NYjc7+KLo7miX+mQDMbLOhIL8IbZ1HUFPXgKapTUibTPjrX/8IuyUtrZ4Dkah8N9/65sP42l335QDCyd6OOYBw4iN3ogDBTNvRMaNFYV5WXo6DBw4MUoB58QTufLsZPzyncfBnFJxROFVUVCitStzKgzF85e09+JcLTx1AYPcC1ezZh8YHjYTKrncOy6XyRBkE0pVXLA8PMga/OrsQ31obQlc8BZvZhI2XFaEmP1diOPEr9fNxxEgBwr333AO//zCC0XZEUwEk4ilZPdN9kPbHUX8KWowdAWkpGYgwz8wJWbU5sqTAjYQCf+7xZY2IIDV6mgbR7CgRMSO/zIS8fMV2UWcQDiVhMysvhKZJ5UimNSS0NOrKJsBhLkFXXxiLL74Ura1tONzeCrf3KDjICgS5Umddn5Mp46LF7EnKkcoiOgsgeI+Kg6MYsbGFMYkkcx4yYmmKG3ksj1Omr2bMaJqCdRu3yDH8LNMbJ0tOwoGWNilTZc8lxktkHTQNE8aPw87dezJlCh3JRAJ6ShPHYGoX+nt7RNSY0ggSDHjcDkyf1oTe7lb87s+Po6jMIUJGAhKma/K9FluL4IEPfiaGFgZgMdII6W6UVk1DTzACe7QPR7q7EdVosczvx4n23h5MmDgNdVUVGPAPYMOmdWItTZ3FQDwOt82OO772DXz9G6fQB+HzcUsN/1NwkmAtK3OVCYWV/UPxis/7WbOw/XislrNOilmjpGNHfCiDQGqTlNx3v/v/4JFHvv8ukd/xAALPdf311+PJJ58cdFLMAoTvX9A0mC6Xfc2TZRDYxfDqq68NCyBQGb1kyRV47LFHPxKRYnM/cP7yfoQ0A18e7cbjB6JS+/z7Ri++NdP5gZ0Mf+sMwvDv9s/mniMFCFdeNx89fYcR1zQ4bXY4nTY4bE7oRkq0AjbYpQTAe5Ruf0nmAdDKP8V1eFryCiRLgX9sVMirSY0sQFe3H8l4Gi6vGSXlDjicVlk9B/xxRCMMN3LAm2+HfyCKqeOroKVtmD72dBw+7IcBJ6646lqsXr0KQb9fxIg2O8GEAimc8ArE0ZIAACAASURBVNXrqMAkPqvZyspyA58p6XRWa6DAs9IdKH8GTtSJTLiTSVbyVmlZpM6A5yTrQRaBjKXyhVAMgtdJ3wPAHyZ7l6GchGaiIZMmFswNtbVo7+gQcyOCBvFX0HUkEnFMnz4NG99ZrwBCKiX+CJQzlJfkY3RDPXbu2IY31r4CXyHt0R1IJjTJoOBYxvssmDV6onRaMDgqHAyibNR4hPt74LNoMOkG2ruOQDPi0OBALGFgzryFAlq2b1yLaIRhVfzGgIEorQrMuPOOb4oh4fG2nAZhGM+DHEAYxiAds8twGITKgSiu2NEiJQZxJjvGajl7yvcDCMcaJX0UDMIJWS1/DD4IBwbS+Id34tjij8NtMeOhJg+uHvvBHQzyYMxlMZz4RfwZOmKkAGHR5TOhJ6NSu6Yxj8kCJOPMGVCBenQ7TKRiSOtm2K2KHWD9nRO/ltBgmHTRHTBXQSYzw0AoEENPtwaTNYHRY0phcSZlkkskUti/348inxujx5bBbE3D7bCiujAfMc2KhuoZaN7TguLSClxy+dVYvmwpUqkEHC6fClvKGCDJVc1OAZ3yRghzYBPPHDVpZ2NZCBjYYaBYBbIHZD1U2BLzEsQlUJIpIUJEKaUIQMjaRqtWRoIDYSIMdjHQpYBtk2qVL5krLH/qnPB12B12FBcUoqW9fdDiWbEIKQlSqq+rF8MinosMAYEYPRImjhsLp8OCDe+sxZZ961FWlodYMibdCNxvXOVMRLu74PDkwy3vJ41EXiW0/k44DVo56/Ke2NrY1tWHcErHFxZfKeLFFcv/DKfVAp3dJTrQH9aR57Hgtq98Aw88kGMQTvp2zwGEEx+6DwMIFj2NslAMV2z/YIDAW70gnsBX327GjxY2vUtbcCxAqAjEcPP6vfjh+Y0wse1hyHayDMKnDSAI7zmcYvqxgC0HEE78Iv4MHTFSgHDBkpmIx4IyMTqsTkRiEck+IOUejyfFHlhtXH3TXjkBm5UtibQktgq74HTSawBSMujpDsqk6XO74Su1wGqn06AhgUoMEXKk3SiuVBbFBBkwG5g0diKmjZ+FbTsPorJ2LC68cJF0kRAEOJxuiZ2miJSaA+XQmGFywbZEq+QDcXJXE7m6/ydOGC/BZjQvMrOVQlgEAgADSRoZsV6fsZdm5LNoJwQgsI1RdT5wy4IDAR46WQKVwiqvlDmGTIE4KGaEktMbp2D9BrZTqlwZ6hUoVmTb4sSJk7B3T7N4TwhToSuzQJYS586ejWS8F88uXa46G+wKfPB1Fs9bgtfWroDdVIBJZVXi9thr8sIa6YPdYPdGatCUcEdrBwwYuPjKG4Sx+ctTj0tAkwRxwYwkHS7TKXzp1nslWC/HIJzkDZ8DCCc+cB8EEHQTcP6uDlSEoyiMafj/F3wwg/C95Rth1w38z2ljsb/0qGvgsQChuj+Ke9fsxGOzxyFqs6K90DP4xj8vVssn/k1kH+u5NMeTHbvPwnEjBQjzzmlCNMwwOyvsLpO0GjpZNrCYVJCSlamBNoSiUalv6xpgt9nlZ8FgDO1tQVSVFiCeTiJtYoqgGR63XSY36nfE/TOYRLBfx/hJpags80occbc/DI8tD9ddegO6unuwedtuNE0/U/wpXnjhOZlwXR4fbHYKEm2DnQSk/gkuxIfAQtfFTMlBdAKctmleBJx3zll4mU6tFhofZfszOCGzi0DlM5AJYU2exlDCEKRJ56cUg5A2RIfBjozsxlAm7sSVOrUKYkGdicQWa2YJhdLFV4EdDMxOIfDiGGiJhLAMWiKGM+bOxZurVsnkL62Z8oJ8T2acd9YC9HUfwh+ffRZx8wBgYpnCEGvp5j0HUV1aAatVw+SaCeg3XPBpQZiJ1jJiTbJAe7v9mDSqBiW1Y5CEBW+99Fck4nHYTGYJr4LTiUgogi/d8lXc98ApCmv6LNwsp/o9ft4AAi/WnTt3nOphetf5eOP++7//O3784x/jWA1C3UAEd769C0mzGf929lQESE1mTG2GZjHIxQ5g8fbDOKO9C9+9aJYIc7LbsQDBIPDY3YmF+w/D73Tgx+dOFeUut08bQOCKghoK9tjv2rVLzHZOghgY9nfIB9XMmTOHvf+nYUdeQ/39fnGMGxoWo1Z4VGvrSKRMKB8CGj8N7/uTeA8jBQgXX3k64qGwUO4FBW70+wPCIHAy4wTK1THbCYVCTxvwub0SmmRzmJHWzGhp64fJbKCo1Am3h8fpcHvsAg5iEQ1BfwLJsBVjJhchEo1ioD8GPQo0jmvALTffhvUbt+FI9wDmnH4mqmrq8eKKpbDRntmdP6gryFr6S+IiTYNkdW8SZiHLAihwoEKX2JmwceNmRGNRcQ7kNC5RytQekNbXdflsXMzYMnEB6h5UgIYre5ppFRcU4EBr2yCLwG4FFRltknEhyODL8u98YrH8wL+zCDF+9CjsaN5L2kF+ThaBZQZaMdP+22oxKU8OU1o6RqhhYInC63Xh9FkzEU/E8Mtf/RcMa0TGlcwogYLH7kMoGUBFUS2K8hpQgsigoZUyctLQ6g9h9pSpsBcVY8Afwd5NK49emiYTAkkTjFQCV113O+69P8cgnPR9+3kDCBSsPPTQ3w3SZyc9MB9yIOm0H/7wX3HPPfcOxj3zkDktPbh0Zyt+dG4jQk4FDrjxof/3D38H/5rJYsj+vDTC9sV9+H+HdDHwd8cCBDkHVw3NnVi4rwP/e9E0JImUP4UAQboYrroK9bV1+NMzz3yoqHGk39HevXuwfNmykZ7mYz3+VAGEjRs3ilsiRaQ8J9ti9+3bLxkWxcUlGDt2jIz/Sy+9JJ77nAhLSkrwyssvy2QWCAZx8003vwfAMRtkx/bt0o7bfviwOCwys+GdDRswuqEBmzdvxoIFCzKOgcD6d96R0Dq+FkPuGNe9evXbmD9/HphcyhZf/py19BPdRgoQLlpyOvyBLnFCJAVts5sQDSXFVZLvlxOm081SAicxVfPnJMbyQyLFPAXmLXDy0uHxWuF0K+tl7tjZEURNbQHKywugpXUM9IaQClpQ6KnCbTddj/WbtqC334+LL78GyWQMa1avhtnmgtNJQyXFHAzNTSHo5yKHK3cxSOIKnpbJFooSFQVAoaHSBrA8QGZAgQPleMiYZl26NLL6A3FDzNq4M3iJwkfDQElRAbxuLw7RvC2D4PlzPqu48Xoiy5AVRSrxOssTStw4s3EKmvcfRCQcFlDB11QhTikkE3HJUtm6dYsAAz3F36ega0y5TCPf50Lj5HHyuX78s3+Hr9gEX55dOj8cFjfMdg1lhaOQTuajzBKH025XBk6ajngyga5IDGeccQZSNHca6MNA1xEcam1DkmwFzOiPxkRcevOtd+Oue3JGSSd6zw3u/3kDCLyI2mgF+jFsfAjfddddCAaDR4GACbhm40H8ccaod3UbKIDwMH74r//6rgeCI6Xj8u0teGr66He94yuuuAJ/+cuz6gYdsuVFYqgbSGBbTcGgGQrrif/xo+343dNVOP/cXnzvR+PfY6Z0vOGgT/+yZcuH1cVQVFSMxYsvxG9/+9sPnfCzbY6XXnYZImFl9PRRbj/72U/xox/96KN8iVN+7pECBK7UGGCzYcMGTJ8xXd7fuDFj8MSTT6Lj8GHU1tWJuvzmm26U76ywoBAzZs7A/v37wJAuJogWFRVJRDDnBj5seY0qi2CVE/Kz//MzjBs7FqUlpZhz2hysXr0ahw93SPBcaXEJJk6aKA/t7Tt2SNhYXW0d3GK048HSpctw6NBB1NePkva3xsap+OlPf4qf//znH3r9HDvYIwUI88+bhmQ8AI/XgWQqqfQHFptYJff0BeBw2GC32KGnU7DYlMsgV73MNgj26rB7DBSXuqUk4XLZ0NcblpTGUDAJq92MhlGlSNt0dLWEoSfNuHD2PJx/6RL85YUVGOj34+qrrkZfMIbNG9eJrbHL7c2AA9V2mAUIXNXLpMxAKJYcCBD4XswsMaggJdWOyKCljH6Av5OQJSXfIdhh2yV/z30ZGpXtUsgaOfEVOEnXVFYIiDjYypZGiGcCJ3H1/avyArshspoIldNAhkGVP1wOO+pqa7FjV/Oge2IWIHABZYKBefPOxMqVK0WDwNKAdDWkyNwAPm8eigp98Ljs+O/f/A8cPh0F+S7k5XnFSrmurAkBfxjBZAvKrcUotudLmylNqKJpC+adfRYGenvR13pQyjAsvbQdaUd/OIy0yYDFSODKm7+Ju+75+nHv31wXwzAea583gEAG4aqrrpIH3Ee9qRv7va/jiWmIUtT0Hl79+Pu7kxqi9ncbAWV94oeuLvh57ETiTFgbcm4xJKF6eRAWDMM1J/vOMw+S4YxV1jp6+Puqh9pHvXGVu3LlGx/1y5zS848UIPDNcBX3+OOPiy+/x+vFueecg5deehnbtm0D48Srq6uwcOFCNDc3Y/mKFUJn046XK//HHnscNTU18ocA9/TTT8PmTZsFbEibnK7jfx59DNVVldi+fQfuuutOSTAUIxwTUFhYKExEQ0ODpEIy7p6rxAsvvFBWvs+/8AIOHjwk3v1nnbVA9vveP/0zvveP//CxA4QZsyfDYotAT+syCSYTyvDHZDUk8CcwEEOe2ys2vprOCdIMLUGbYbY4WpBXYBelPf0TqLYPhuKIDHBGNtAwpkhMk3j3dbUksPCMBTh/0Tl4c+UahGIJXH3djTjScViimtNmG5wuDxxOulryficToPQEsjrP3JMsCdAMiUmHwguIkyInanYjqJZEsgDSnUBRXuZ2VymMungfZJOICRDIgHATS+ZMG6CUsTIpxEPvUfm9CAszQEFXtX+2QahQJcUg8CV5/Gkzp2Pdhs1IZZgBAgP5wy6KaAQVlZXik0Axpdg76zrSuoqdtljSGDdmNKxQIsZf/v438BbSb0JZMk8dcxra2g8jnu6W91RoKcDowkq09fTA58vH9LlnC/A7tGmTCr6j6aTJjK6+fvgjUehGDFff/I1ciWEkT67PK0D4OCamkYx77thTNwK0o2Yq5WdpOxUAYeOmzeKxTzDASZqULidwTs6c5BkONmPadHT3dEvpgb9fsWIFFi++CPv37xe2oKqqEoFAEMW01N2+HaefdpoMI8HH888/jwSj62HC4sWL4fcPyHH+AT+KS0tRUlQkLALzH1iC4GtUVlbKw5zlhZdefhmlJWSeLpIwqIcffhiPPPLIxw4QzjirCZoWhN8fEXdDu9MCh9mBaDwh7AE7FFL0RGDioKj7laeAL88qAIH+BynNwEAghvBACvmFdmEhauqKJJSo9aAf7qQN533hC6gfPQYrV6+BCVbcfPMt2NXcjF07tyMFu7JOtrNbwTYkQVWBaKkeAOJzwD98fdbwFYjgWpwbwQF/boamM4qZXReMfqYAUJUGNKH/1aTOlkmCDcU+ZEsGWQ8EBQTU3K+6GxRjkJnEs8CeoU0CLgzVWplxdORfyVZUlpcLO7V9505VftANKTOQLRA9QjyOCy9ajOVLl8q5TWxEpJBRY+lCh8NuwbQpY8XpMhQO4Xd//mMmBMqEC86/DGvXrYSWDsJbqHQW+XYf3CkPxtbVoHrseBnLXWvWCCCRjVgKaRFetnb344Zb784BhJE8GHMAYSSjlzv20zAC0WgUL7/88qfhrQz7PYwUIHAC58qe1D0n8vnz5yMvL09idxnwwzp1NBIRfQJXZyvfXIny8gq0tbUKcPD7/XC73Xju+eex5PLL5X2TSSAzwG337t1ggifTPqkj6OnuEUAhojiTGRzzYDCA8vJyeNweeSgzSfLiiy+W1SKFowx/amxqEr3CvDPPxMDAAAoKCk9YsDrSEsM5F8xAPOEHG+Ckpc5ihoEU3E6niOsMBjFF1KTFBb3LZRWTHQUMWPMHtKSaoiMhDeUV+XB7bEhEDUQCcdTll+K8RRfD6fbitVWrYTHbcPtX78H2bRuxbdtWmKwOOJ0e6Vag6DBL+Qt1IOyBKi1wYAgg2HWgRIvK1llYRJMZ+Xl5aKivw8at2yVemuJE2Yas7IWJyJB2yv/ALP4JQwECJ2pO7tmSRRYkDAUI0ubID05+JMMiDGoTyB7QBInAxkhj7pyZWLN2vep8IIOhadCSCQEMqURCugoWzDsTr7/+uoAEMVBK0TdC6RvyfG5MndSAYCCIjs4OvLr6TYmIdruciEbjiCdS8HpVKYxsSK2nCjWltXAVFEq2Q9eeZqT4P3Y6qK9YxoSfcd7F1+Lu+3I+CMN+MB27Yw4gnPTQfeIH8uZvb28XsdlQu2RZkRhpjB079oRXa6fyQ1FUybvaPIxyD99zaWmZWDnPnDED+w4cQEdHx7C0FH+LAOFUfk+f9nONFCCctWgaoiG/aAgoiqOTIvUG4pBoMiEYiCMUollRpn0x4zhIcyFOztFIEn29MfjyHEJh5+WzhS4JI25BqSMPN9x4A6LJFDZt2gqnx4Prr7sJW3ftxc5t66gmgMPN0CU7bA7n4IRvzmQs6HKvGjL5kZUwW20CEMQ2OSMslLICgMsvvwxLl69ANBpTrY8Z7QHBGW8xTs6SsZABCCyncEKlQZSaMzMdMlJCUBM5Sy1ZgJD1NJAygFJEyu9EAklmItNdIa+XsX/mf8c01IswsrWVxkl8D4Z4IPA8FChSnDpxwgT4/f3o6elTokVpfRSkIbkRTpcbMxvHiEahpaUNf17xLPKK+RmZe0F2w6yElQVFqCkehdr6cSgrKkXLgX0Ith0SsJLKaC8Mk4EUkyjNZly45Hrc8NVcWNNJ3+M5gHDSQ/eJH8gbet26dThy5Mh73gtXIKSFj9UwfFxvml5O1208gKpAFE9OH4XDBV55yL3fxhv8huuvF9X8oUOHMH36dDzxxO+HtdrMAYSP61v9ZF5npABBGIRYADYH/Q04YavVObUH0WgKkWASBcVOOByqLdCMFNImq0w64UgcYX8KefnsPLCJLiHhZ86CjjyXA3fd8VXEEils2LQNFqsNX7rlK9i6bQf2N2+RVb/V4RNPBZvYJGdMkDK2yDJhizCRokQaN9kU1Z8BByoUiqDGDIYxnTH3dCxdtkL0AAQQFCvyWAmhEsdCZQEtk7qUKJQ5EtsURbdAbUJmZc196murZaV9qO3wYAS96lxQQGKwTCv0A3UNZDlYWsjoFETroLol5s09HW+sWq1KEBmWQMyTdA1aIi6+DBcvvhAvvvRShs3QpfUxrdNlUZVEvC4bRtVVCFP1xqq3sG3vdlTVM9jKQELTEAkk0VA7Cm5LAeadfZG8zoHtG2D4e5SolHbZmoGUVWlF0qY0LrryRnzpjhxAOOk7NwcQTnroPvEDswCBSJ213SeeeAI33ngjfv6LX2Dzpk2fGECg9/vkjgEUx+O4YHcH9hXl4Yk5oxETYdaQjQ/DIf+cOWuWxPLOmjkTb7+9BgcPHg21+qDBzgGET/xS/EjfwEgBwoVLZiMSCohC30FvA1r4xnUM9MVlYqGnAQWLND+iI6LQ6gbLCQk4nDYUFrnFHMnQLNAiOqxRM/J9Hnz5ttux+1Ab9uw9IFkHt9x+N3Zu34Id2+kwaIbd5ZNJ32o7mq+QnbyzdD3/SxGigwFtmZJAtgSRLQGw9l5aVirthOFobLDtkedSoUtciCsb4uykngUIqsyggIQAiAx7wGPHNtTD4bBj287mwbLHUHAgE7e4OmaCoUTkqNgFJWRUegWyBuPHNiAYiqCzq1sYEfErYKmBpQQ6LGqaGE/NnTsXr732mnJgzHQ0MP2R740b46Gry5Q/xPKXX8bBI/vFf4L+FIH+JAqKnHCYC3HdVXfCHwjgxeeewOTKisx3ZsDQKKRMSQcKt/OvuC4HEEZyd+YAwkhG75M9NgsQwuEI/u3f/j9p9bvmmmuwY8cO/PWvf/3EAII8uDLK6lltPbh66yGsrykFLajV8kaxl71uB16dUDVYRhg1qgFFxUWYNm0a2tra8PJLLw1rgHMAYVjD9JndaaQA4fxLZyMS8KsIYiONZCqFWFyD1W6Cx2MTO2VJSzSbpZef5YZ0yiSRzQxf4uxqoVVxwgqHZkOprwDX3vJlbN25F817D8jEd/sd92DL1q3YumW9vIbTU3gUHDBFkQLDjGERvwih8TPfiJQfhlD9Yt6U6S4a9C9guYETtLRFHhUWqnMpY6VUJmdBUiAzbYtSnsi0OSj2QK3+CUxG19ciP8+HjVuVsRxFjdmgPnYriPAxk8egnBDV6yitYoZlYBlBZ9KkCWfOPR2vrXxL9uPPJMCJWgQBAknE4klMnjwJXUeOiH5FyhbUN+gZPYJkYFgxdnQNPE4l1Hx22TIc8bfC6bLAarEJgKsorcfCs5agt7cbL77xBLxuO6YVj1fgRU9DY9iWzjZVHYuWXJ8DCCO583MAYSSj98keO7TE8JOf/AQHDx7Eli1bRK3Of3+SJYbsyBAoTDvcD5cYvKv2KMPMh50hrZ1bKwsHAUJWXCSrqkzC3HBGOAcQhjNKn919RgoQFl8xG4FALwyN0cwpUbjzGvP67GA4IrV4nDwJEPp7YkhEGelsQ1WtD0c6IjAbVtjNVpS6PCgrKsS1N92MjVt34mDLYfEzuO32O7Bn736sXbtKJk6n0wurdCs4YMkmM2YmaV7XsvoWCp+TskX0CZzEh7opZgGClBsU7ZAB15m2xoz+ICtQ5Pwtk/hgqqOa8BnQJCSAurkyokw1uVdXlqOkuBibtymAwNcfTPOl1XOmFdKSiYiWnYZ4NVB/kNUcsM1x5vQmHGptR1//gGIZJOkxobwTtKSUFNjdcN2110pSrfq87HpgmUG1PnJ8bJY0xo9rEJdRt9OFPzz7Z7R3digAAAPnzFuIyVNmY8f2rXh91Qoxvmqsq0N1fomsPnSNoVKGMEaLrroe13/l7uNe/DkfhGE8E3IAYRiD9CndZShAGDt2HMLhEKZMmSJqclL1nwaAoB5LR1kD9QTLDKgqaY54ywGEEQ/hp/oEIwUICxZOQ19/D8vokrvAVSt9DewuFVTESZgTY8ivwUgBBUUulJY7YbHZ0N4chkk3oaYgD8WFhbjqxi9hw5YdaN7dDJe3EDfd/GUc7uzB6rdelyvd6XDCancNxjaLd8Egc6DAQTYHgRoCxxDh4lFDI7XfYAfD4O3CboajQCJbphBmJGPBnGUPeIh4PQzmNygQJGWBjFsix4E6hRSY5QBYTSl5TREXZloW2d4oDIShi72ywghq8s9aggvgSbErxIG5c0/Hihdfkc/MnzPbgX8ESGiaaAnIuLDr5pVXXxMzJZZHWM5g4mPW5tlhM2PS+NESKV1RWoZnn/8rWrraYPWk4HK6xOQqnkxKQBO/s2KvDxXeAuTb3bCZ7Zm4aR2Lrr4B13z5jhxAONk7/PMIEK688sr3HY6hor1BEc5x9v6g/bIr3EH672QHf4TH8WZeu3btp1OkmFlpqIS8d3/QqupqjB83XkohmpaU9rf3E1Nmf579roa2ZmXPyj7+v0WjpONdPkOvzezvj73Ojx1rcc3L0NLHG98RXqYjPnykAGH6rMkIBvtAMb/dZVZ0tU2J/zgRcnXN9sVkFKgbnYf8PLvQ4YlEGpagE4UOK0rLK3DFFddjw+4d2LJlJ9weNy6+9Ivw+PLwpz/+ATYruyMIDJwwW6k5sIlfAcWEpChUh4AKQZJWSxMDoqyyX3bss9/LscBg8LsRcM1zZY2PFO3PACVyc9nvMXse6WKQ11dAPBv1nG1xlDKC2SFvxso2wbQVNrPSGNBXIOunIOfLMApZlk+VGJQVs4gfCSBSKZy14Exs274Lvb19mc/MlTw9ETJ/dAPxeAzz583D3v370dtDgaEJadEycOXPxEb1HtwuGyaOrZcBo+fGY7/9NXqivXB4VNmE8doM1mJ3CsEfh8XtsGNcQR0KHF6JwT77sqtyAGEkd+DnDSAQgT75+99Lr+27NpNJ+rKp+s/SfHRczHBv79qVLTvPPPOM3Fy8UI/dj7QhX4cCpKeefnqwT3gk38MHHUvzFqk/WgBzxthM/m6wRSuAuJ6U33O/tFmt2M0GUFRarFqlyO4fc+xH9V6zK4wpU6ZKvVGFvBzdOHb0LKBWYvz4CWLQs2zZMgl6yW7ch9uWLVuxe/cu+QxFxcX4wnnnyVgPnfD4AGbf/ftlvn+Un3Mk5+ZnGGlY0wtLl6qxyNSDyRg9++xfReDFq4DCsEsvuUTazN5YuRLFRUWYNGmSWB+/8MJSlJWWYmpjI557/jlcc/XVMlEx26G+vh5r163DhRdcMDh58bPSTpmeBmPGjBH3Rto8M2OBbowf5TZSgHD6GY0Ix/uEijZbCQzUu2V/vZFKIxlLo7jUI/dQQYkLRkpDJKzDZJjR4C5DSXklLrpiiYQu7dy1Fw6nAwvPW4jqunF4+qnfCW3vcLhgY0uhTXkdsI2R9X9xQczQ/lmL4mwHAtX6imFgGYFAWrEZ2f2HgmNxMSU4yPx+KNXP51U6I/oZevzRLAaV2yAtkFkBoWgHaFSkMg4Ms11AQvb+lU6E7L2WFStKHLSyXs56IGS1COKLoKfg9bhx+tzTsWz5i8olUgyVUuK0SEDBjAZS/7zfb7vty3jyD0/Ls1psoLWsFbOKdualne9zYvbMKRjo8yOejOP3f/4TDIsmqZwWCkdZuiTAEHmEKlHwZ+dPnCP3wLmXXoUrbrztuJdnrsQwjLv28wYQaLV8++1fOW57HAUz0Uh08CYoLCo6LsXNm2mgv39wVVtQeLROnh1SuRjNZnGVOzYvYRjDfkK7xArSaF6cQNPTDrTNSSFcamDqXxxon62hZ5yO6X9wIpqfxp7FCYx5ww53rwnbrkqgfrUNlqQJh+YnMeN3Thxu0tEzNYXGp7lqOKG3cMI7czXldKlgniEVBfk3DXxuuP4GXHTxRfje9/4JHR2HBx+KQ1+ILn50SeTxFC/58nwqrGaozTQnrmBQAN1naTsVAGHVqlXo7u4RIOByuXDpJRdLbZfAVUXwpvDFK6/Ehg0brBrBIAAAIABJREFUpRbMb4JGSUza/M1vfiN+901NTXhz1Zt44P77ZfLYuGkT4tEY5px2GgoK8qXllICAY04XRgY+rV27DuXlZairq8OmzZux8NxzBTgQLHDfU72NFCDMnDMZoWiPGB+5vSrmmar4RJRCPDMGemMYM7EI8bgmIUyc3ONBoNjtwqSGBlx30014Z8t27Ni5RybUs85ZiIaxE/H0k79GIqUimfkc5Yqd2gNeq9mOhMyFPdh+KJS92QK7XbkpZrMYsqWArF169vhsGYH7KadFLlrUCA92EmTZugxTMbRUoeyYM50OkuKo7JazzoNZjwQ5H3mITNdCVichk/egH0LGqjmTNKkiqTPvI0XGISVMQ1PjVGzfuQvJTIw0mQopMxBEMG0yqYkewetx4txzzsWyFStAnQPfAdmGtPgkKFaCn7uyvBBjGmqlhNrf34+nn3seZpsGh0exKZJBIRonsgkWYRessGBm9Thces3NuPyGW3IA4WRvys8jQOCK/4PKByc7Vh/HcartKSNMyrxgoNrAqnujWPw9D7ZenkB/g47zHvFgx5IEDs1N4cJ/8CBQlsbb90Qx67dOlBwwY9kjEQEF1pgJm26I4bJvebHjAg0Hz0nign/wIJ1ZRfElVN3vaGjMR/05+XzjpEIv/6eeemrEXg3UW7z66qsf9ds+pec/FQDh9TfeEJvkaDQCp8OByy67DI8+9piI0zxutzw8CRr27tuH/QcOCpPg83qwaNEiAQhq8lEr19tvv00m+T179qCvv19aTSdNmgz/wABqamtkn5VvvimUMK8XZj+cddZZWPnGSowfP06YB+pgZs6ccUrHiScbKUA4e9E0BMM9gMWAOU1rYgNaIi2dCla7BYH+GMqrfIgFNdgddpmYnCkbpo5uwJVf+pIIEskcMIly7mlzMO+cC/Gzn/xIxI42h1scKWGySMtgdtLPCg6HuiVKsoLJLJO8ZDGQMchkMdAkKQt8s6XL2tpqMR9SVsjK74CMRBYYEDmL2FHMkWQHGXueUwEMdX4V3azCp6TdUYCCKg1QJClmRCwrwAIqEhT4yORDCOPAFb5ZhMVZsaN6vqpIaFW6UN0MCgRQ50DwpdojRbMgSYwULCrtAkEtLZnnnjEX/X19ONTSkgEn1CQoNoKLPYEtuobamkqMqquUoKb9Bw9i2SsvwumxCpNgtZkRCdP0yQImWhAUsYuB4/vw3d/DTV+5MwcQTvauzAGEkx25U38cb6IFC87CwEC/BO5k6UIBCPdEsfifjg8QLvquGwMVEIAw+7dOFO+3YNkPwu8LEC78Rw+MjAEBX5N0/9KlS2W1/nFtWQD3ftqDE3kff4siRT7k33lng7SLUcNBuvr888/Hb3/7OzidDmEUmNFAw6nly5fD5XLD5/NiwO+X0sGjj/6PBN4sOGuBBDzddefX5OG/fPkyjKofhV27d4lt8vr17+DMM8+Qa5Flibw8H7p7etDY2IgD+/er2N9Zs7Br5060trTi1ttuPZGvblj7jhQgnHX+NAQj3QoMmdMID9Dhz0BJmVvSA9nCSLfESG8StrQNHrsDk8aPxaVXXYXN23Zi+869soqePes0LLr4Mvznf/wU4UhUNAYud56sWul1ILHK5qNmSGoO5SStVvCqa4G6A2VgRBDB75E/I6uQLX3y5wRddXVVWL78Ffn9UTChtAbi1ZCdxCUfwUA6cw6xJM6UOAQoUJ8gLYtKNyCTdyaxU91/2YZLxfWJJjFj/yxdDRmrZY7BoN3yoOfCUWMlcVcU90SWBzI/HwIQqAlQgkTVYUDzJJoo3XTT/2XvO8Csqq6239umzzADw9D70IcOioL0IhYEUVHUCLEm0cSWYon//8V8McmXGI1/EpNPo2LsiqggKCq99957m8r0fsv/vGuffefOcJl7Zu4MCJz9PHqHe/c5Z591yn73Wu96150SGtN1P0R/wUcdBZIWldeBY+/buysiHJDMkD379uKb5UsREWVDTLwLlRWqD49L+xGEcaz33f0r8Y4Fa1aIwcTjZwEEE0Y6T114Qz/55M9x1VVDZcLmKo8v4MYACB6bT1bwv/nNb6Ts73/9128k3n8hmyZZ8eWkwJF+cdU+qssRIJSXl6O0tFT4BBkZGaIb0adPX1GiZL0EMtjpOWANBPbbvn2HkMNY1pnggaszrmK3b9uOisoKDBkyRF6u5Ohw8tdyu6zHUEVgBMrLywSM8Dvug5MXJxnWXlATXW16mfW7u8IFCCPH90NeYaahv8G4tQ+xcSzSpDIM6JIuLXUjujwWsTYH2rRvh5unTxd9gO3b98hd2DutN2bcfR9e/sufBJSRN5AQn8D1qqQpqnRGTq4qbCAA2F+GWTnpmbXAySvQTspzp1b8anJWfW67ZRrmf7kA+QUF1dIf+Tu5AV4fV+8URzLIgsJfNPgO9CIYEsuc8nWpaJU9oQACnzE+b8woKHXb4LIRNChVRw0QFIgwPACGR0CHFZSYlOK/aOllKSNNwqKEBwhIqrwHAhi8VE+s9HNmBCRUVEr2w+SbJuO99z8SIGYUn5SwBMmNMgYDFA3s3ws2n1vu79XrNmD9to1wRdkQFaNkmSmAZXNQl0GlbD7wg1/h8ccftwBC/R49SOyMLwztV/LnwVI4xBWJ+LiY+u76gmynyz1fjCEGvpTvueceuR4DBw7C888/L/H5UABh0nOxyDNCDGY9CG74cPvt0zFw4EBxPW/ZuhWfzpkTtru/2kU3GNslzbyIzqWLsupX/i28KoOgwOvVvXt39OrdW3KfWT6YLm8z7XIECGbscqn0CRcgjBjXF0UlZ6RiY0WpFy6XE0lN7IiOj5FVJ9Mbo31OJEc0QcuWbXDdlKnYuG0n9u07iMqyUnTo3Ak/eeyX+H+vvIKcrHRRVYyPawK3zy5eBGdElF+8qIpxowosselJN9B7IN4Co5IiV/uB4QXyO0aOugbvvvO+P8shMGOKZEOp4UASIQGDkeZIDgQ96zq8IB4Nv6yzuhsUoFAAgf1vmzYV7374sZ/gp8ZrkP0MgrH2IkhNBkMaWvcT/pWWjDakngMBggaa7EcipruSRZyqkyVJXOzfrw+8sGPb1m2iSinl60WyWYEE/q1qMtgwoG83VFZ6EBXhxNJVK7Bj715ExgIuFtiyO4THQOBHsPLAD36JJ5540gII9X0ZWAChvpZr+O34II4aNUpKF/fs1Usq8/EBDwUQGDIoSPZh1cN1CzFIKlFMjFTxY4W/r7/+usEAQkFLr5AoTwx0ozLKh1Y7nIgsVmpwbG4XEJtjQ5fFEf53KsHdlClTpKRwfHw81q9fb8rIFkAwZaaLtlO4AGHo8DTk5meipMiNuIQIJFGuN5Jpcjbk5ZbD4/ahaVQsUlu2xy13zcCGzTuwa9ceqf7YomVzPPXkU/j3R5/iwN4d4sqPS4iDzcGSz6zNoMIDdAAwk0CrICpuhyIWKuVDKgE6VMaCVGdUqXoqtKAujfYkkDeyc+cuHDh40O9Z0HUcNHlQNAnoQfCq2gicPnVGguIwqYwIOZSR4igiQporYHgPZs38Af75r9cFKGkQohdXOkwgmQq6+qPhVZCwieGRUAJGHI6h0mj05fuMRaXo7ZJ9SWaCKhTl/498BeojVJTjh7NmYf78+SKhrJGViCwZ5EYCBal46XSiT6/OKC4qFmnmzxcswNGTxySNNSEpykhdVedz310ECE9YAKG+T78FEOprucbZTqP3wL2HAgjX/ToWuS0USdGsB0FzEPRxgh03nDN0RwIZ3T04MbACha18aLfRCWdVJqPsOirXjjZbjZK1RkyURLtDhw4KcKHgk5lmAQQzVrp4+4QLEOiZKijOEE3/2DjKJzsQHe1CRkYRyot9cHpd6JicjNvvuhPHTp3C5s07xD2d3DwZjzz6C6xZvQqrVq2QCTk6NhYRFOrxqtLMmksQyKXx60rYVJll/kbegY6Na2KofwI3qjYSIJA/ctPUSXjvnTnVajNUAQ9FMpTSykIGVGEBrtAdrggBAzptUu9fEwtl5R5QiIkA5cH7HsCr/3pVKjUGAoRAD6z2COj0CQICv166IfzE4hX0TvBTe6G54r/u2gmSJZObVyghBiExBoIEyahQQksOuw+zZs3E22//R+o4aIAihaI8HuEtEEywRUY40L5tS3HStExJwYdzP8XJ9NOISWBhLEVsrSj14Kc/etYKMYTz6FsAIRzrnZ9ta2Yx5HT2YNx/x2LH1HIcHVqJa5+LU1kMDxdj8OxoNDtkkBT/Y2Qx3FmKyT9XWQyHRldg0q9jRRfhvDSVpuyvzVDbMRVIMeK3AeqyocZpAYRQFrq4fw8XIPRO6wGPIw8REXYkJcYiP68MZWVU9gMcNifaxidg+p134mRGOnbv3isTWXxcAu7/0SM4nZmDL+a8L0JEEdFRcNGXDSAiIko8AmzCYwgQmhJvgKgzqgwREubY18YsBEPrIPBTg3PNR+AEW5UFUcVL0CRGchD8FRU1QdGmMiM4dgVE6P9QSpHCE5CMBwUQtB4Df/vx/bPw2r/fQnEZ02DVueiYv2guGJN5oJ6JdvcHLi4UV0FQvp+3QG9FXGwsxo0dhY8/ngMb3f4GB4GTvdZaIEAQpUWPGz26p6JVq9ZYsmQ57BRwMZrPqNdATpZwLzxeREfa0LNHKopLStGpQ1u88e77yMzJFAAV08Qp/IqZM57AE49bHoR6vwEsgFBv09V7Q74QqKDGxpdHWXm5v6BKsJ2WxQHHr6hE5+VOZHb1groInVc6kdnNi/z2bqQujkBlBHB0WAXabHYhqsCGg6Mq0GKnE45SO073r0TX71zI6eBFXkcPOi91obbay6oCnQtlpaVGmVimOTWycEK9rQlYACEM410Em4YLEIaN6osKTy6LgEicOj+3HGWlHsQ4opASE4dbZtyKnLxCbN26ExXl5VJaeeasWfC6YjH736/CYXfCGRGBqOhoVWbZQVKiy8haUIDWT86kN8Bww9vsTjVZG+REPQELgAiQTNb/VvtQWQUMPehVvGQxGPvkp05TZC1UJWakeAea88Dj8fl1GJ4JKZ7EiRssC20oJbrdQjadOeM2zJ33JdLTMyVcwvOT4xpiCxos8JhsCswwyYDllHmuWjraICwapEalUKm4BtdfOx4rV61Gbl6BXymR/ACOXcYl4ktARSVTHMuFG0WF2KNHj6sMEBmLClFwHAxF6lTJls2boFf3VBw7eQpdOnbAB3Pm4Hi6Sg2NirPjwVm/wpMWB6H+T7kFEOpvu/puyayBSZOuw549e5CVlYWjR498ryZgipj86EcPoXPnLmjTpjXuvvvuBmWn84Fv2bIVmiQ2QWZGJvLycutrStnOAghhme97v3G4AGHUxAHIzc1EhMuJwsIylBV7ZTJMiI7FD++4A2cKi7Bzx265j+Ji4zFl2lR06dYXr77yJ5mM7A4XouPiZbKn+97pjPRnDCgp4yrFRO0W5+pcgQk7XMZigNtqwg1z9lmHwGerCrEFeg1EY0D4AyrmTkChJ2muvkV/wKZW+wIwDHCh6A028VgQKJAFIWEFHySMwOwHrXvCfdx79x34bN4CnM7M8ocYaBuVdaA4BXJcXaSJ6ZJG0TVFJzJCHEamgQYFktFgcBHiY6Jx44034K23ZsMZGQmPiHYRELiNolWs2aBDEx64K8rwox//CLNnzxbApsSb1HmI98DtRmFxCfJzcwW4JcVFiJCSKyoKrVqk4N2P5uBU5kkBHY/99Fk8+aRFUqz3Q34pAgQS3XRecaBhNPrVSFjHAmsaTx4OgzFbhZqr0rf0S6CKXFS31TW3HzFyJJo0ScSSxd9JYaXvU+ODPfXmaZgx4w68+OKLWLtmTZ0BjJCeDBEefW4iAiWpX1706dsPffv2Q3FRIebO/bSavrx2pYpL1thYrSLUtry2gfvML8jD8mXLv08mDDkWnk+4UsvanoEuaf2C1vFkbUuxn7G65Xf+iUWvMkOO+MJ1CBcgDBmahgpvnggiuSscIrkcHxODh+6+G16bEytXr0Z+fiFiomIxZsxIjL3uZvzPH/5b7k1OzhExsSqd0+6UlEZmLnC1LtkCgZ41I2tBcxDoruf2mmBot8tbRSZu/z3OZ4QlJSWjgRO+UVTA2C+rMSqhJJ1BwInXLcenR4AZDAQHUpvApzySDuogSIjBBodosCvPQSXDfVo/wZi8Y6IjBTQQHFV4nYhyKqE23XRRJv2pvBHKY6JCDarJ3zolUgsjSbYEsxw8uPH667Bm7XpkZJzmmaoS0B4lmKQIjvw3d+RBhduL9m1b4Yorr8DcTz+tet59SkOBNuJ2+QVFIjUPjwIc02+djJOn0xEfG4NFS1diz979eObp/2MBhHAe3UsNIKgX75mgJlm8eAnefPMN/2r41Vf/KepnNVt2djYef/wJQ9bUh3/961/ijgsGJB566EeGjG3drgJR+i3TpmHZsuU4eepkrSGGuu05/N4q3XImmiYl4aWXX6qz94DXYOrUqbjpppuCDuaFF14QUZSU5imSrTFyxDVBjmHD7Ldn47tvv5WXKVX6nnnmmaDaCMzxHzVqZPgnfh73EC5A4Iv39ddfR/9+/fH1oq9x/wMPoHlyMt5+eza6du2Grdu2ib4FayxQAOuTT+agXbu2GDx4MKht8P77H6C0vBy9enRHUmISUrumVot7UzvhP//5j4gltW7d+jxa5uxDhQsQBl/ZG9nZmUpEx+5EXGQU7rnzDsTGxGPZ8tXIyz+DyIho9O0/AHf/8EH89cUXkJVBl7sDEVGxcEVGisfdFRENp5OTu1MIdSQt2pyse6EIg5RYVhUSOakrsZ6ICG5rhCAMMMYUPim6xA1ryCMLEDBUCzUnQYf3/CtoEhNtdlBdGAZYsLM+jNutwAulnJ1GiqMxhUsoQvwJKutBxIwM7wPfRaWVKu0y0q4qOmr+gQBOrWugBZpY3Ev8H1UZEtxGqyjKNuJpMPgIHiUFftPkG/Hue++JVgQBAcfBiV4ABpUd6agw+AXwVojwF6XEd+zY7lf8ZOlGVVNCSTazPkhRfh7gLYcHFZh83fU4ceI0UlqkYPeefRg6fAx+8YtfBr1/LaEkE4/1pQYQ6BJkNUedgqMfLvWQKuSumwh9BGtMSzLTzxAhMWHmoF2UIFDdvA/1PVZdt1MrTKZK1W98Iv1ai87RwEEDsWnTZtGk15rtNceoVsHqW4lCnuN6URxo+fJldT3FC9q/IQDCX//6ihDTpk6dgvnz5mP67dMxZ84ctGrVCh06dJQ6CsOHD5OUubS03nLvf/bFPEy/9Ra89tpryMzMlJzz3r17YfKNN0p67bhx48QuXy5YgDGjx+Czzz4Tpc0LSUFpCIBw/PgJmdxdrkjce/sdaN6iOVauXIfs7CxEuiLQsVNnPPLEr/DO229h945tMinGxMbCHhltZCo4Ja5vs7vgFO5eFe+AqYZVAlFKyU/SGo3MBfUcqfRGWe2LFLBHCIH6faR/1zeleBhIPDTKJutJVJViNrwJwkHwGqJISjlQxmG3SziFU77dcM2LdgLTHDlYo2CTeFSNEAm/k2a48wO5CP6wgeEZUIqK9IYo8SfyCGwGZ0HVUDDEk/yERY8cs1XLFjhx8pThBdCCTQpEiEfESGn0GIWn3BWlePjhR/DW7NnizSEAk/vQ64abx2DaJMECC0HJuVaie8/uEmbYuGkr2rRphaHDRmLy1NssgFDft92lCBC+r7UYZJIj+ODiw/gMvG58RBteh878neEhmSpgElYhGbVSaOhxEUBUc8+aH+ZZPblC5uR2MbWGAAgqDdQmJbOTkpKkUuNnn3+OgQMG4JtvvhWVxZtvnoqTJ0+K0mJeXr6kjw4bdjVee/11ietOmzYNb775Jn7+859LvrqqBKkmQHrYSBjjvi9kCxcg9OjRA8Wl2UiEA9feMAmpPbph1aqNSE8/KWThFikt8fgvn8WK5UuxdPEieCrd4jWIjIoR5j3DCjaHS7T+1fzrlFx7KXQkWTfKOvq7qpRGRTSsUku0GSJAasXM+g2BoaCaKpSKk6BAhcTzDZe9fkSFT8BFBt8l5A1ICE+Vd44gOJFMCo88ZwwxSNklQ8yIaYTaUyDPuEFCFIwQUDGS//arKWriolFpkSeuVRqrFBYViVKHRGgTARR6MtdiSgI2VDYC+0uNCQIXQznRw7K0UP/2F4syiJ1iB64/PEyF9MJTQe+IqhnhdpejS8d26N4rDatXrsItt9+Jm2+ZbgGE+j7AFkCor+Xqvl3r/GJcv/ME3OeQoy132vHu4IavhmdmpAQH963ad86uXCG8dnU3ATd1bQRDZDyzEYDwWNwfvwsEJHXdr+5/OZIU+dL+4P0PpLTwFVcMQUFhITq07yAhBoYFKHrFsBj5OF98MQ8xMdHo1LEjjh49hnHjx2HBwoXYtHETJl03Cfv27sWsWbPwj3/8Az/+8Y9l0iJooMJmly6pGDdubJ05KPW9lsG2Cxcg9O3XE6WleRh39XD0HdAHa9duRUb6KThdERJaeOwXT+PokUP49OOPJGzgiIiQ2hVwuGB3KpKhylwgGKA3gJOyXUSKAvkBynOgvJQEHqryospIUOqGnHzVRM5J3cZQhCgqBoPfLGesazAozohMssYqnqmBBBhcvUu6pcEJIBFSqhmKIBM9oaqugmQL+FiTwciCMCZxDRLKPXa4oNz92qshqZoBk72f86K/Y1hFij1xnwGKihIuUFoJnMBZPltJMyuugcglyHko3oJ4A4yS0gxTSOVHSknLu8YnRFEBUtRa9BeVMzQXmE3BtE/Zl0cKSvFcY6Jd6N+3Nzp2640Zd860AEJ9H0gLINTXcnXfrlNOAWZsOCQ51cFaWYQDL45O8/+kVxd1P5K5LTRRTVY/dhueWbjlnADA7bDh9+P71hkgeO02jNl7Gh3OFPoZ3BpjZMdGYH5ae5XY5fMhJSVFJqVBgwZj165dyMzMMHUilyNAoL3KSstEgY6qkwzTsLx2QUGhTFK6EBCfb95HOTk5slJr0aKFvGT578TERKndQK6Cv7JfQD6/IoYGus9NXY4G7xQuQKAOwpDeXXH1NcOwcd0mHDtxXFzpsdFxuP3OuxCbkIQ3//0aPBUVYrvI6GjYnRFqoo+IVCmDEpc3FBBlVc+aCLpyonKzy8TsVIqJSmFRhRW0F4GpkTLlGaEAm40uflW7oWYLDDnIteR8KGWQjdg++QScDD0+uCJYGdKuOBGGJoNTKjkSHBgeBGoNaOVDoU+wBLPbr5ngDyOQ2MiwgVHhNZAcqQiHVTLMmsOgwpBG2EFXjDTknOW8vAQFWmWRY64iN7LstA71Ejxo3QUCIBVWVNwJSjSLvQwA4w8V8zgMa4iKI8EGx8jQgxsuB/DzXz2N4SMnWAChvk+lBRDqa7m6b6dDDPKSUKR8v/SwlwIqZOgHgIdjx47hwIEDdT+QiS34gDHerFOnuEmZS9VLkPCHOPiqGmOZke66uQ+4/fg9pzDx4Em816+zeA3Eg+Cwwe4FilwO7Gml3Nd8+UyffrvUqT+wbz/ad2iPL774whRB8nIECCYu8SXTJVyAcOfUiRg+8hps37EHhw8dksk9whGNa2+8HldcdQ3+8uc/oay4UO5BhhaiSFymhoErQkICnMCdvGeFD6A8AfzPzcrIRp6+gALDg0DPBP0CfMZ0NpXyLHBSZ86/KtCkyz8rHgCJDWoS1UJH1cJw9Fi4K1XWgmQsqKJNnGyZYaHCESRhKr4DP/3Fl0hMlJW6IvPwKSZJUTcFJtWPnIK5bVXGkdIyEFAj9Q2M7QLSHskNUMrPysMhc7QABjV560JLysugBJW0oiN7Cujh9wYZUr8PFBmR3g96bFgB0kNXBewOyY+qEnMULwLJi8o2lcKJUOGHm6fdgvsf/IkFEOr7NrAAQn0tV/ftOuUW4rbthyQ9KVgrcTnxt6t6+X8iONi9u3EqLPJBovuZqwg2ehD+79cblbtTB1UDB2mz4b/GD4Aj2G81ToZgYviBDDQvLsPAUznYmZyIuQM6oDjCWZ24GACQuAuWDe7dsxcWL1mMK6+8Upj3Zio6WgCh7vfixbRFuADhX6/8QRjtu3buhMfrRlRUNIYMugo3Tb8D//uPvyP91AkxB93lrkilkCgrcWekhAnIOVApjQyVGWmHnAxBj4Fd3OHibfADBJdSMQyo0Ogv58wVvfZGcDlgEBclC9XwpHEc2qugibq6dgEnedE2MAiH9AqoNEpFrBY+goQZFOmPYIjHFjljTtCGR0PzBNxwIcKhtQ3UfummDyRzax0EtbBR+ggCboR3oYCQKq9sgAIDPEhKpB8gKM9JoJaD9nIpsGCkMBpcCM17cHvpzeA7Sh2PngQ2np9wpHQYQ7wSCijIQoxeBAsghP+YWwAhfBua3UNKYQlGHaDbPDhAIAfhsz7tLwhAoNfg6sOZcmxdaZFeDacIsqiC9qs7p1SryFjbeTs8XvQ/mYve6bmYm9YOBTGK/FZba9euncQbCQ4OHjqE7du2mYp9WwAhlGUv7t/DBQhPPfkItm7ejNLSYsTExKJt67Z48GdPYs7HH2Ln9m0yITIkQHAg6YnUPGBFQQdX5gZznpMggYJUG6O7Xq3UlcifR7wNDEOwUqQODfozFwxPglQ0FO8BJ1W14g/U9NCZA+IBMLIX9ETNiZXeA070zGQUpr/E2yFhDWOq9Gs0qCJNxmROsCCrdnUf1MxK8NhccELVSNCLg8DsCu1BEGBgEBoVgVmJF/FIPHd+R6+GAjr0CihXqddTqUIAQlZUfknhROhqkdobEcCx0OGtSiMlU+s3kIfA0uLVwq8EJnxBiQ6DV7wMco7w4OZbp+P++x8M+gBYaY4m3gsWQDBhpDp0CUTeNTeTF4TXUEjTD2u1VbQPvoC0wqAehCZ2gJwbFc6sanwq5wLY74VtiBO+MXxQqv9uOwL4PjKU12p4ENjTXUtKI3dfV0KhZCsZKyMzJtQvhbrrziFVAAAgAElEQVTGvi2AYMa6F2+fcAHC9KnXIv10OiKjIpHcpAke/Olj2LV7LxZ99ZXE7QkEnC6HcA18oJBShEpHJEgwFArFe0DvmqzSOeGq8sUSfxfugVOyHHR9BqmoqHUPangSuE/hg7RsiciISBw7dsQvvS77r1bhUXEYhHNSVi5AQLgF8v5Q/H5RPjQyGBziflfpijJmY1KX7EaDgxAIECTmb3PBAbe4+HUGgz/NUSEKf5aDHos6hC4UpbwImpQoSY5S90GFTFToQKUk+lM0edxqwkoq/VJ7DjSQUVLMhuKikQGhwhfV/bBCYRQWJI/JLAeGRYCbb70VDzzwgAUQ6vv4WwChvpY7ezs+VKtXrzLiedV/b9asGSYnt8I96/YpF5hyjilEb/xd5nLgt+MG+DcMChBSncA9buBrB2zyxCvAgUke4EMbsM2YkQfYYYtS6IPMa1wD4LQNmK1CCjVDDAQHT32zVcX2gjQi9xfG9UeEnfFKhTz0C1BP6IGkx4azaug9WQAhtI0u5h7hAoSJY6+W1EWK9dx//wOo9Dnwzuw3JZ7OFX1kFDMUGEenUqLyHGj5ZJ2iqFUo1QNrCB1xNU1uTmSkn6CoiyT5J1qjOBM3EwVFu1JN5LMzY8YMnDhxAosWMeNEVYbUZaADhSc00ZEAwe9R4EJDUiUp/ewwxqRW8mxq3Gpy5lgqDdKfJgTqUIHoMThdAnRoj0pbJBzeChBo+OWVjYmc+9U1FmT/IrpEcSYqQBopj5ItoVUfOUmrtx0zEzjcKu4Bt9X1HRTHoUpOWQELZWoV/pAQCz0owjNQd7N+30i6tKHLoBQdCUb4XnTjlltvw733WQCh3s//pQgQpky9FXZb4PK53uYJuWGgx4B/z//yS3nQGAekO40rC8b5W7VuhdFp/dGebH7DeyA8JbmRFXOIFMXdrZvUChBs/W3wTfPB9n9t8JHazBZjA57xwf5vB7wHg5w3H6hfOIAdAOZXTe6BHASGGG7efkTIiYYqrxqmUmqFzePDxwO64OsFX/rVz7iS4m9E+U2TmmL48OEBD7Yam9uoK+20qzQr5aJVzeNVqxy1EmEct24kSDU8GwoL8rF06dKQ1+r71CFcHYTv07k09ljCBQgTxl4NG0mwt92Jrmn98beX/ojComK59yJckYiIokqqHQ5nhMTSJbwg3rQqYSMdFiSg4GpYYuBg0TWV7cCUUtlWl25WKMDgB6j7W0su865t2aotpt40GR99/DHSMzIklMFDSh+jiqLmC8hkaBD4ZAXO1bKRCUBAQM4C52GVCqieCqkFIVkMik8gKY5GSXU18VbVWEjt2k3qoeTl5anjwE4xZFW4KaBIk6zuDfIh96GkoVX2hnoSA7wGwlVQK309fkVGNEiPurYCUYMakFFlUgGFQG+i5kuQiyB1KIR7oJqSdPdfHSN8otIdaaOplgchvMfzUgMITAWa8+E18PkqwjOMia0dDh/+82FruN2qNoAGCHfddRfatW2LN958Ay//5SXccuutAhAGDbmCjjw/+1YY0DUYCS496QOSwXAWSXG0DRhuA54PyDFIcQA/88D2khO+rCp2sv8UOOs/D9g/csK7JbgHgX0rHQQryq9BoqEem4g7eQFys+fNmyfnSVGeM2dy0advHyxcsABJTZviGgMgcLu0HoUY2C/fhBXD73L6VBR++vNV4e/oPO6hIQAC98F4rI5Z85NglDLJ/JuTFpUWpeCQ3S4ppLGxqlwxX9yUqZV/s7oo3evG/vg7JypdRfA8miXoocrL3SguyjeyBFR8Xp+DUu7zIiomHtFRNeNuanfXjx8pSpK3zpiJv/71r8hmIR+fT/QNWLZZAQK7rKS5ctasfFWrRaU3aq4A3d2S2WBw/iOorugXUaqq7Hh2eIEeBO6LMsMejJ8wEfQqvvvuO+JVUBkPygOgPQY6PVJ77LjiZglpERASOoCRsSBZCJr8yJW9WrWrPAnlTXAbRZqEZhCgbcCn/K4Z05GTnYOvv13ir6egvRkydxukREVRUGEALgp4HURimlkPHrdKjzR4DFrDQJVn9smCiR4ALZOsy1WLW8EgOxLleJnlof/tU4sZ5VyoqkKp1Rr1zaLBhFpnGYsMGWMFbr71djxohRjq/whfagDB567E7H+PAnyVKlcvcAYO9rcRy1PMPJnmDZZe8L81iZ+rf6fNh0/mpcDtqQ4Q4uPi8NhjjwpbulmzZKmMmNw8GTM6dMNtm8+tg1AS4cBfRlbpIAQFCFNcQAcv8HKVp8DWyQnfA27gd3agUGjOQHRAqCDCBjzpBWY7gL3BPQgEARN2nVQ3ksEdCPz02Gz4rmdbfDlvHsaOHSfyu3QbZmfn4E9/+h9ZbQQChF6pxejVs9CfEGEouBrpScFsXeO48mYK+O6c1wXIzrbjiafX1P8huABbNgRAmDd/Ptq0ao24+DicPn1a6ix89913SE9PF8VE6iPQq/POO+8itUtnnM7IQFrv3tLvjTfeFInlVatWSRnjhx58EAUFBdiwcZPIX2ekp4OKpIHtYI4b8/ZXondzB8Z1Obs2SWOZsbzCjeLC+gOEB39wG+798WOY8/EH2LRlq3ixWAo5OiKSDD+ZoIWHwHRBTtIk/UkpRcOLYPypVQp1eWUCCf7nYt0DyUYwAIW/5oKhm+DnI6jqjFHRMVIhlfUyVq5cobwQ9AT4swECE4y1kqGalA39IQEKjLPrSo8aTKiJvUr5VPkbCCmo1XB2USVes9tvu1kA0DvvfSjnUUHio01zLKoKRclkLbwC5fZXIk8qQEoioqokqfQZCAr4+KpUx6rzkZoQEoYgl9BIi+Sayag4qTgOPHYViVFzJnRtB4IOkXM2NBk0QPC/bAR0MPuBAGG6BRDCeTAvNYBQ6S7HsR394bOdHw/Cz/9vD1RUVMUVGWKIiY7GM88+i4MHDmD69Om47777RNBmUs++6Hc8y68qWPO6uR12LO3S0v/1wYMHRTCoWuvjBDK8QGbAS4RvgGtcsC13w0escosNSGPAzwA7BAxH7cC/vYDhYAjGQXhu4RblJjQUDoUozVUKH0a7Db+9diAWfPGFCLP88Q9/RLdu3aUGwmeffS4Fp/wAwQeMvSYLN0xUWRGN3Q4fbofxU5Y09mEadP8NARBWrFghk7qQ1DxeTJg4Ae+//76EgAb0H4DCwgIMHDgQr7zy/9C1W1e0bdMWR48cwcRrJ+L11/+Nbt26yYRQWlaK666dhDVr12D7jp3yXfPmyZgwfrxMYiNHjJBV6LoTleiZbMeb2yrwyBXRDWqP2nYWbohh1fLF2LJ9N7749EP4vJUSt490RUlIgZMaMxCY1sjJ3ilZCzoGKMmKAROfWpnT28KJT8ABRZQEKChVQxdj94bwkRAWjYC5zmjg6pdVTK+55hq88+574tbXhZ10WCCQ26MnP06mUk9BuARKZZBjkCqTWqXUqO3gr5thrGZEEVFc+8rtr8MLKvTgxbUTxqFN61Z4/c231WRvrOopJV19ElYhBM78qqKk0iMQUqIMSOkQaFEkDRYIEJTOguYgMBtDlZBmOHbChPHYt28/Dh46LB4URV5UmglSWtrQmhDPgaGZoCSa3bjiiiuQm5uHgwcOKp+OPzzBcIhNQC7fv8GalcVg4hG+1AACNcYff3yyPDzB6XYmjGKyC18XJ05GGm6/qhADb3oSoujq1Z8MMQwecgUqQ8TZQ4YYfmyHfacd3qUBoYR+DmASYPujF74r7MAIH/B54Nn7gANV4ECcBEGyGMR7GZDmKOsdkURmiIFlaW2YP2+evJQeeughFBYVoXu3bvjd734nIioaIHAfiU0q0SSh8XkgfCEUFhbjrbcvvxDDli1bwMqjnHyOnziOu++6G2+9NVvAaOdOnSR80L9/f3z44Udo2bKF2Klp00SMGTMGL730MgYPHoSNGzdJRdMf/ehHEnJgcaaOHTtJPJ0v38qKCkTHxMh9kV3ixX+2VWB6bxdaxVeV3Db5uNS7W7gA4bO5n+DVv70sQkOcvAkMolwRqvQyaxa4omQSkhoKUl9BFwnTXgQVb/e78QkqZGJmWiO5B0bKo8T+KT2sSIxCGJRsAs1lYN0Mj9S/4PE++vBDOFyRKoQh/auKyelJX9z5UqDJmGSN/H9Ofvw+gmJORs0FUW80Jmh5jrUTTngTasLU0skkG3KsdOkPvWIwBvTvh3/+7xtyjTyGBHKLFi2Rk50t3ymgootEqXRFuv2Vx9UQeZJQhMF5MIiNkrHhpveDgEA5BfluVtkJCiR06NgBo0eNFnlvEUPSXAkjrCBgQQZBcSp6DxSXgecfExuD+++7H6/+4+8oL680hJg8KlTq9eKW26bjfgsg1PvZEwYuJzHjLvCX6JTYkisS8XHq5XCxNMZbL1SxJq4iNEmxpr1atmqF67r3wpVHMowomcbealYmDq9w2LGwRzv/pkFDDD+1w7bfDt+CAIBwrR1ItQN/cwPjHbB198H3SnU3Zc3x1AQIBAF9T+ZWU3fU2yiQ4MP2ts0FIASqL+o+gRyE832vFBUViWv9YmoN4UHYvHmLX6d+7769mHHHHZg/f76sSrlKPXr0qNRd+Oer/0Tfvn3QtWtX7Nu3DyNHjsQLL/wed945A3v37UN2VpZ4uvgu4LXdtWs3jh07KjUdFi5cKJ4EAsAvD5Qhs8iODgk+jO4cWteioa5HuADhtmlTkJOdLjMMV/vRUTFC2pOshYgIUUlkiWQh/OlSx3p6FbCgxcNU9UMtZOQQ7gG5Cyok4SDZ1uaA2h0zCxTRT/MXWB8hqWkzUQxlmfetW7dIP1WrQb0PlE6CSm3UE7OWI67y1CuWAa8VeRSM71fJNxvZUX6gYNQ0EOEkxdfQTZdk7t+nD8aOG40X//JXSbfk9+oZP3s8Qko2JnZO9Fp6WYpWGf/2exSMEKFKb1RufyUPTT6B4YXwsdZCBWbceSfWrF6Dw4cPG+mYWuzIkFs2qsPSU+aWNEblDWGYMy2tDwYP6IfZ/3nXAEgGAdPmw7Rbb8MD998f9Fa0PAgmnlALIJgwUh26+ONhQbbpfKYIt247Ui20rtf5fJbKnA68ck0IJcVf2IAldmBdwOr8NpXS6JvtAaY4gGQf8FrdAALTHF/4ckNQISRB/Xbg2WuHYPP6df5qbVopjqfK1WpaWpr/xVYHk4Xd9XJNc6S3TCYRQCoxxsXFoai4GPw+KipKwIN8V1QsLvDo6CghKnJBwNAEeQpsKpasiIl8D2dlZUp9hu8LSTFcgDBy2DDkF56B0yBu2m2UBSLXwKVqJ4jXwKiLYKTviSSweNpUiEER7TjpMyShCJ1CUDS8DdqdTk+A5gGo3wIyGwxyL71uCxZ+hfLyMrU4MICJ4Uv3AwMBCoYsMsGBlFU2npYqUSWV9SAcBKWOpDIQGD4wUgwl80JOhqt5tbCQ/nK9vUhpnoxxo0fhP++9D6crUvrwP8XFqIr1q4WMlmFGVUaBwbnQHACV/aTLRxM4kKioUhfVuJRtCVi0EiNDHL169cLXixYZXAk5c7/HQ49Zf+pFioAcj1dUYdesWSMlzG2UoWYIyGbDPbNmCQcsWLMAgolX7+UMEOSGlSpoyn0WmLIYynRcUfNGrEtjbL/CWbVNIAdP6FA+IFIE01UL6kF41gYsswPHVCxQXirXAsi0A3PcsM2ww9fEBiwwfueOqE6absRV9QumRoiBp1LqcihNhSCNIklRldUlWGt2qw0c1cVOde17uQKEutrpYu0fLkBo27atlLy22uVnAYY/n3rqKQsg1PfSX64AgZMZCVyjR4/GRx9/gsqKckybdgteeeWvtRYI4iTeKTsf1+8+iS/S2uFoUtw5SYc1r0nT4jIMOpYt/WUelphclWBShdOOJakt/UAlKEB4hsnbNXIjiSnW2IGFHmCWE+joqa7mzJDo/9rhOxGQ+VCzFoMNuGvdAbjOUWuBa5k3ruwu6Y/ft2YBhO/bFWnY8VgAoWHteTntzQIIYV7tyxUg0M1177334u9//zuoW0C3a9OkJLz08st+gHDWVMjkgGPZmLrruGQSbm7XDHubJWJfiwRTV6HTmULcsfGgAgWiY25TmZjijQBKI5yh0xxNHSl0p2BZDI8u32nkUFe5ESSrQcbrxcvD+lgAIbRpTfVoCA6CqQNdAp0sgHAJXMQLdAoWQAjT8JcrQOAL+oYbbhRSTMcOHdCkSRMMGjxY9AsYi3V5vLjq0Nlpeoll5bjyZDZeHNELOTF1S/USwGE3ajEEXDeJ65EBLYG5KlhyPqs5cjgeoyx9MBloSfiqndYQ5p1Y/80tD0L9bXcxbGkBhIvhKn0/x2gBhDCvy+UKEGg2krjoOSgvr5BUo0AmcJTbg+mbD4PJkrq8Kj/ZPu3THoUiz1q31jmnAHduqF7uOdBLURbhwIujq4SSqIOwZ8+eQFn2uh2w1t42TJ48uVq5518v3FLNQ6DHJkIrNuC3EwdYHoQGugKWB8G8IS2AYN5WVs/qFrAAQph3xOUMEEKZzsP85BpxBqbw1Pwu1H70763ySzBhzyktBnrWZizW9OHATjW+rxsR0uxYVL+qk/Pabbhnzf5zlnMmQJh9ZWq9z71u46pbb8uDUDd7XWy9wwUIVI7MyGCZdatdbhZ49NHH8MQTjwc9bSuLwcTdYAGE2o2kU3NMmNJUFy1uGCxboL7Aw9SBTXbSYkk1u4v2i8l9nO9uxcXF+Pbbb8/3YcM6XrgeBCUQVSjpjBRLatmypXBnKM5VWKC+Z3480xwpdlRcUiKhM9Zn4DPPfvrfp06dQuvWreV8qKGQmJiIM2fOICkpKWhmj34mKFpTVYAoLHPUunG4AKHxRmbt+WK2gAUQTFy9SxEgTJo0SRUyMYq6aDMwR5nlXNlIUmROuJR5DWjMzeW2TZokoryiDJ06dhK545r7kk2YC83a8X5tUxMGD+jS0OCjbkevvTdzqJljrOvb13XfDN9QzKSmbXnOrFGhquUpZTTKrgbaUPKkvV6ZyHRhHvapKdAkOdpeL/IKCrF+7eVVi4G2WL58uWgZcILv0KED+vXrh8+/+AJjRo3C8uUrEBkVhbFjx8j9+89//guxsTEYP368yPy+9vrryM/LR0qLFOzcvgNPP/O0FA9avWYNdu7cJfvo3KWzP3ddX8e1a9dKaK5Tp04iThUTE4tp024OUBlseBhpAYS6Pn1WfzMWsACCCStdagCBGt0rViyXKneBjZrpO3fswIKFC2Wlxbnr0Ud/JkAhMiJCREg4WamJH8jKyZb+e/fuE6ENarRXVFbtkxMXt/vzX16CO+B7EyaXLhShYZXHZUuX4eTJE/UGGWaPV5d+nHxmzpwlevx/+tOfak37DLZfTtxDhlwhGv6BNqNiXGSEC+++/z5OHD8um3bv0QM3XH/9WdeLIjTLlq/AunVrxTYtW7bCXXfdKYJAgY3X5ejx45h5zw/qcooXvG+4HgTet3/44/+ge/duSO2SKvfQ0KFDsWLFSnTp0hn0qtBLQLlkyik3aZIg13HTpk2imvhf//UbtG/fHtdeOxHffPsdfjhrJubMmSOSzR07dBQ7jx4zGp/O+VSyfXi/06uwZctW2RcFaUaMGIElS5aidetW2LhxI5o0ScKtt05rcNtaAKHBTWrtULxlBSxt6a+GKosUpqCfOnXKd6FEXb5vV+ZSAwhc3dw8bZqs7oO1wJXque4BFmOhHCpfwvO++BwFBYX+XYmqWoAMQX28BzzuqNGjkZCQIK7xkuLi79VtwZX/5Bsn484Zd+DFl17CurVqkq5LC7RtzUuhnkO1v5rXgH0DD1Xds6DiHDVHUlRYhMVLFtdleBe8b0MAhG3btiE7JwcJ8fFSuZHFlz766CN0aN8BR44ekdX95Mk3gqt+Hi+DKnM2O66bdC2++OILUVMkiIiMihaAQK/RqtWrpAARazk0b968mgfh5Zf/KnUbGIYYNGiw6IiwwNPwYcPEi7Fy1Srcd++9DW5bCyA0uEmtHVoAwdw9cCkChLBrMdhsUqa5VcsWolXPGG5DNsrYTpp0Hfbu3YszuWek6mNdJ+CGHE/NfREYPfLII2jVqrWsDmfOnFlnL0Jjjq/mvi9HkiK9XTt27JAsl4kTJ+J0ejp6dO8uUrVdU1PF/c86AxMnTMTOnTuwZ+9etGnTRrwDnTt3wu49e+BiFUKnA4sWfYOf//xJAQh//vOfcdXVV4nyIItvMZNm2LBhhtfNJ54elpMmZ+HTT+eiX7++Et74dO5cpPVOQ58+VVk4DXUPWAChoSxp7SfQApYHwcT9YAEEE0Zq4C5a9567pYucmuy1AYSyeB+OXOFB6jIn8tp4kZPqQbfvXDg2wANXuQ1tttmR3t2L4qY+dFntQGkzL44M8KLzKieYdnB4iAcdNjhR1NSH3E5edF3iqCoYH+TcGP5g/LqstFTG5Q+9NLAdGmp3lyNAoO2Eq+FjASKH/C2V86TIDqsLqoI/+r5SBXJ84h0IbLy27KO5Huyn//6+cGQsgNBQT4q1Hwsg1PEeuJwBQkREJIYNH4YlixdjzNixKCsrFXKXFD05V/NWlVEVGcTz0PLbeLHi4RJM/E0sjg1xY891FZj0bAxWP1CGyGIbrngtCtumlSOrmwdjX4hBTnc3Vj5YhlH/EysqjUsfL8GIl2KR3sONQ6MrMOm5WCm+dKm0yxUgXCrXL9R5XG4AgcCM5xwZWR3MhbKT2d/J05LqkXUMG5rZP0OE5K9ERZ2/ap9mxhWsj+VBMGG5yxUg8CGcMeMOfL3oGwwaOEjcqO+99y527d4tAMHjBA5f5fErBdgiPYDHhqwebnBFn3TYjrYbXUjZ64C3AZ9jxv9rAhQBCD8pwcTnY3FssAEQfh2D1fcbAOH1IADhgTKM+pMBEB4rwYiXY5Dew4PDoypw7f85GyAEO66J2+d70cUCCN+Ly9Bog2hogKA5MY0wP4oNfNnHVPG35A6SZSPLjdyT8NkdsMU1A1y1T558N+XnFyExMb6aTc/mTNng8SgPEEmp/J2KsKFaeUUlIlzOoAAhLy9fuFEEEAwnMUsrI4PcFaB585SQom0MU+UXFCMpMe6sYTBrjPvTVWC5f3q0WK6dHjAzYw91bnX53QIIJqx1uQIE3sj33PMDSfeaNXMmNmzYiJGjRuIff/+7ZBi4I4F9Yyrhc/pgc9vkky2jpxulSV4knXCg5XYn2m50IqK4bgS+czonvF6MHz8BCxcuQO/eacJR4IPZWACBLxSWaS4uLsHEiRPw1VdfNcqqwsRtGFYXCyCEZb7v/cYNBRB4v3/66afo06ePhM327duP66+/Dg4HJ8tzmIFhnG0LYet/XUg7yQReWQHb0v8Fco/Dd+WdsDVtDd/2r2DbuwwoL4Kv1xjYktoBu74BnJFAWSF8Ex6FrXlH//7PBRAoC795yxZJ/23VqpXwSTZs3Ii4uFhs3boNlW4v7p31A3zwwUeIjYsVonZ0bCwm33B9tbHTni6Xo9qzThCwfv16bN+5C3379JbfBg8eglMnT2LO3M8k7DTznruxbdt2lJQUS4m59PQMPPDA/dW8BRx7Xv7ZAGHFihWYN/9L9OvbT1yw48aOwfadO9GsaTOsXLkSFRWVeOjB+/HOu+8hPi5Ojk8vxI033hjS7vB6gB2LgL4sa2u+WQDBhK0uV4BA07Rp0xbDhw/DN4u+wTUjRyAvN1fIXRrh2vxLjSrRwdImPjjLbHBU2JTqYMNgA7lSRNGTJ9+Etm3aYNCggfjN88/j+PHjjQIQ3PDhhz+chR49ewrXYOu2bZjzyScWQDDxzDREl3CzGBpiDBfLPhoKICxbtgzz5s2XCY4lT0Ra3WHHIw8/gh49ugc1h2/710DXYbBFxYY0F/eHXd/CdnwbcHQTfCPvB6LigUNrYTu5S3kjOw2BzekCUq8GCAr2LocvthlsbXuFBAifzv1MCKItW7ZAixYtpYbMN99+KxknR44eFX2KG2+4QYirfK/xHvv660UC/gNbMIBAkL1z1y5kZmahuKQURUWF6JuWJloxq9eug8Nux5SbJmPr9u246cYb5B258KuvMeKa4aLFodu5AMLRo8dEj2P33r248frrJRX3/Q8/Qs/u3bF7z16UlZbg9tunY+OmLbhm+NUydu5/0rUTQ9pdOhSdETuj7yRz/a0sBnN2upwBAm9CehI0oYsW0+DAnPUathcBwq9+9SsMGTIE8+bNwzvvvCMrncbwILAwU7OmTfHss78WFb7nn/8Ndu/e3bAndJ72ZnkQzpOhL9BhGgogUANi1erVaN+uHY4cOSKKkazDMmHCBHTo0D44QMg5AWQfha37MFNn7xMPwmtA1kH4Jv0Sttgm8K1+F0jfB1tCCtB9BJC+F+g2HGjWHti3Ar6YpuYAwudf4Ojhw7h56lSs37ABV191lWRZ5ebmoltqKk6cPIXhw6/G5s1bqgDCokWYOCE0QKCb/+DBQ1i6fAU6dWyPzMxs8RisXLlKVDizsrIxdcpkfLt4iXgk+J5keHb4sKtNAQTuf83addiwYQN69+4l2id79+xFZna2XA9m1YwfN1bAyDXDFED46utFuLYGuAl+EXzw7V2pbBjb1NR1YifLg2DCVJczQAhlHoKHwJz9UP3D/Z0PBcVuzuTmSnhBcxEaAyBUkRRtuOGGG0SPobS0JNxTuCDbWwDhgpj9vB20oQACB0y9BqqkxsREi54DnzmmHdfWfAXZsCUkhzxfH/kAa94FCnOAkzsATyV8Q2fAtneJcjVSUK1lV4A8BP4enQCcOQHfNT+ErV2faqvwYByEjz76BA6nHQ67A2UVFRh+9VVYumy5AIS2bVqLJgbBwJcLFqJt27biISksKsLt02+rNvZgHoTS0jKpbLtpyxb07tkD6zdsQseOHXD8+AnEx8UiJydHCN1U2UxIaCLvpm07tuORh3+CmOiqqrbBPAhqsv8Gab17YfZ/3sG9s2ZKejeF0CgL3q1rKrKys3DLtDBEzGsAACAASURBVGn48ONP0Jay3zYbcs+cEZ5YyObzAgVZQJMWIbsGdrAAgglzXYoAYdq0aWcJ8IgpqJJl2ERHD3y8ueSnqliBVtSiZPOa1atw5kxetcJGgWZtaCYwvQg2u71a5KI+AGHVfWUY+WJwkuLE52Lhc1SdRWBqm4lbxlQXZd/QYlXSqw6iVsFS7wqLCrFkMV/CF08LN8TA7deuXefXNOBqkoQvlgincBRrffDFnZqaKuGjTh07ygqRUuOUZKZAUlFhIU6dPi1G69u3r2geJMQniPwyV3oDBgyQlSK/79KlC3bu3InevVV8WjdeuqxiD5pFM1VSKZQyFh7harg0mYYECOfjDvGVlygbVZTCFxENmzMCKC0AvG6lAhaVADhc6m8Pv7PTdRkSIPCakR/FffM9odNbeS+UlVFh1OdfzbMfG8MONVNbGe/nfVBThIzvQr4L9P75N2t6lJSUgr9xPzym0+mSoXPfejxV94MPeXlFSEo6m2DJ/twnK+hy/CQpcn8MY2g+FD9rG3tDXj8LIJiw5qUGEHgDLliwIOiZc1W+ePFiJfoCiOqbyvnmC69qMuODSNJPp04dwbjllClT/TUcAnfMG/lf//pfuN2VJixd/y6liT4cGFeOnl9E4kxHL9L7VqLPJ1E4NKJCuBCdlrtwclAlilr60H1+BEpSvNg/pgLdviJb2of9EyqQ+nUUClt4kJnmRtqcyAblTtQ8Mz7kgwYNAqvo1Wx8+cyfPx8nTpyQn7p1747RI0eBVTKr3pB8Z9qwbt16bNq0UV5YKSktcPPUKRI7rgk80jMycd+9P6y/gS/AluECBL5gv/xygQgdJSUmiiri2LFj8e9//xv9+vVHfkE+SopLcN111+Hw4UNiw9zcPLnufdLSMHfuXPTs1UsAARtd7K+++k+p15DatSu++/ZbPPDAg0hJaY6lS5fKy7xXz15o176dvOS1VsLyYxXILgbSi7x4aHAUNpxy4z873XhpfKRUUOTqnMz1cNrFBhDCOVe9bWUliYTV68Q0xH65D62Z0VD7q7mfikq3ZEl835sFEExcoUsNIIjU8s03n/PMq6FmLndqSPtyQ77QbrnlVhw+chjZWVnCdj4Xy7mhPQhBB+4D7F7A6wBsyuEBnx0oKy5Ffn4efMxpZh/Y4HPYwIJTiXFNEBUXo6SJvZAVJRv7cdvGbufyCsgYahiToRz1vXFu4lFQedrVv1MK2jWvRX5BAZYtXdrYp9Sg+28IgEAw0KVLqqSlMcwyePAgfPLJJ0hN7YrTp08LAW/C+PGSnUKvwbfffSfM9xEjrsHcuZ8JgCsoyBcA8NBDD+HFF/8ioJgM+f379+Oee+7BqlWrsH37DkRHRyE5ubmQZ+l2vuqqoWIPt8eHlUcrsDnLi9t6RmDZUTfWp9vw8z5n5HhUbxw1cmRYtrscAUJYBrM2NmUBCyCYMNOlCBDClVrmyzs+IUFcXU2TksTFel6AgInrFdiFGQ5btmwJuhVdxpTAvRza5chB4CqQXoDYuDikpKQgKjJSajC8/Z+3ceXQoThy+AgiIiNw3aRJUqCJK1IWWyJwuPvuu7Bv3z707NlTANfs2bMxa9ZM/PGPfxTCavfu3bF161bMmjVLPAUEEAQNOTlncPXVV0kcnxM/29LDFeiYaMeCg275PFMKfH3YhxeHl+LIkcNYunQJHnvssbBuQwsghGU+a+NzWMACCCZuDQsgnNtIetV9VgGh4KF1E9Zu2C4CELZuwc1Tb5aX9oSJE7Fv3168/977ElO2AELD2rsh9xauB4FufqaznTp5CkOvGoqs7Gx0bN8Bq9euQetWrXD48BEJfTEjhuqgTqdDJnsel6JgBFXJyclYvXq15KCPGTNaOAYs+kTGOStAaoIYC0ANGDBQUt8oZsMQXadOncWTU1zhxerjHrRvYkO3ZKdkBe3PcaNLkg1btm5FUmKSpLSF0xoDIKh0wZbhDKtRt7VCDI1qXtm5BRBM2PhyBgia8FblDq9yabs8Xgw6lgWvTcoZqE/mOdvt2NMiCXnR4cVVTVyakF0IEFiw57nnnhO/O9MW+TJfsmSJBRBCWu/CdggXIJxr9MFCMLWdaTDSZ1330diWbGiAQO/Lq6++ih/84AeIiztb8S/c8ykkSdTrRUKTBAFkUnpeysAypdouZD8S8zSPg5+B6dXnEkriuMg1cbkiEBGhCIOa6EfAyEwEluLmvnkMITzbbH7Snz6vYEqK3L7SKHevGVkuCsYZtTo0eZDj5DH1eGuSFEVJMf9skmI5bWCQkfW+uG/OPxwnbZaY2ETGzn3q+1ITFsO9JsG2twCCCatergCBNyCVwugyJWmOFfGoIf7aa6/JzR/h9uDaPSfFgj4Jequ4eNOiUnQ5U4SXhvdEdkK00BtFMOkCNB1iuP3220X0iatBKo89/fRTohZneRAuwEUxecjGAggmD39RdWtogEAA/d3ixVKmmhoItTZmOR3ZBHQ6m3AbbDtOet8tXiqpyuPHjhbG/ooVK3H02DEJ0/A5jYuNFsGjkrJymYB79eyJTh2rwoHnAgicxN977z306NFTSKVUQf1ywVfo1KmDpB+yxsKNN16PZUuXSZjo6PHjaJrUFEOvHFJtqMHSHLOysrBl63bsO3AADrsNXbukinjUrl27sXb9egwcOAD9+/bB3n37kdK8OY6fOCHHGzXyGhmHbpRsz6+hpCgZN+vW4+Chw5JZQ+VHpjauXrse/fqmiYpteXklbrv1Znz+xXz0SeuNk6dPI7FJgmg9hGxeD3yHN8PWxdw10vuzAEJIy0IQHG9iNRNSOMjr/8/hikQ8iW4XUSNJ0QwHged577334m9/+xueeuppcTdu3rwJ7777bjXErcMMYgKvD63yivDg2gNw+HyY26sNMhJicTKp4VchZkyuAUJaWh84XQ5Mu3maeA+oaWCFGMxY8ML1sQCCeds3JECg3TMzMvDSyy/jF7/8pWSA1NZ8B9cCzVNhS2gWcsCcwOd+9pms8PlsEhDceMP1OHDwINJPZ6Bps6YCBFhKe/3GTWjfvp2kUPfs3lX4ILqdCyBQmIhKr9NvuxUbNm7GjTdch5279ogkcWZmpngQmzdvLqW9SVytdDNlERg3ZrTfW8FjnEsH4a3Zb6GgoAgedwWSkprhgQfuE4L2shUrRBCJyo27du+V8FXzlGQUFBTiqiuHyDEDxx5Mannh14uwe9dOyZphOuyUKVOwZes2mXPKKyvlOiQlNsH2HTtFZ4FZTT6PF+PGjTEnXpd5CL7SfNg6DAh5nSyAYNpEly9A4EPIFDAi+aSkpkL0SkpKxCuvvHKWSy7QnPSSDT2aidGHTmNR1zbY1LaZ4WGog9EbqCtTBTdv3hx0bxZAaCAjN9JuLIBg3rANCRA4cVPjgVkdnLgHDxpUq1CS79QeGaitdQ9TA/Z4vfjmm+9EvOimyTdIRtQ33y1GhMslEupt2rSW1TRX0ldeeYWIGl03qXoNgdpCDCSU9uzZS/QtCAyYhs0iSgsWfoW0tN7o1rWrCBA9yMl9/36ZgLt161Zt7MEAAl37K1euxsCB/TFnzqfCJbn33ln45tvvRMZ54vhxsoii0NGEceME3CxdugyjRlXPUOHYgwGERd98h4yM0yIFvWHjJgwc0B8HDhyU7Jj3PvgYAwf0w8ABAzBn7lz87JGHhVBbWFgo+htmmu/YdoCS1c1am+kufSwPgglTXa4eBJqGRKCY2BiUlpSIJ8Xt8aiXgQm7uR02OD0XKLZgjI8PEF2DOtao44J8SElA4yricmiXYxbD5XBd9Tk2FEDgczH77bcRaVQUzM3Lk8XA3XfdVatWgy/zCGwpVcWUzmV7FQL4QLgHefn5iIuNxYD+/bFq9RpERkagU6dOSEiIFxLpjp27JLQw78svcUcNpcNzehC+/kYKuZE7wVZUXCzZKAxbMCzQsVNH2fe33y7G9ddPwuo1a+Q90N0EQGB4lcCiVcsWcDidAhYmjB+LlatWIz0jC2PHjERys2RRQIyLjRNBps1btmLihHHVzHFOgPDtd2jTqqVoaBB8tG/fXopA9endS4rFEXBQ/XHOp3NESpr2oVehc+dOoW91Fms6vRdoU1XPIvRGFkAwY6PLNsRgyjhWp4vCAhZAuCguU70H2XAAAVIeWZpPSXPZbHZxeTdkGjMnPGaNcNLlRCqEO4PFRDCvSYr0RlZUlCMpKemsSTaY1LKAgqIiCQmTrMgFgA4J0wPA+D8rIZKsSMErhh1atGhx1rkF8yBwP+5Kt2hn0DalZWWSOivqs1RuFIVFO7w+r7j88/MLZBw8TmDj5J9XUISmNUpVl5SWiheF+2FzulxiH+6Lx2Lj2Hl+zKRhpUgWpWrM2jiWB8HEI3kpehAotfx9bMEY4w01TkNbKKjwU0Md4/u6n4JCSi0v/r4OL+i4rBCD+cvVUADB/BEvbE8FHCoRGelqlIGQXMgCdQ0JivRAeV8zSyIq8sJneYUyngUQQlkIlyYH4dZbbxME35iNiJvuMv2whToW+3fs2BEse3rO2vMBO+GqIjs7R1Y3oRpR+6ihedi6Nw4tm5Vjz8HYag+/y+1BZRB7cAWSc+YMmM6kG9M5YyrcKKVWe8CBqckeGxuH7Oyss/fNMdY4Kb58iP51KleocwjndxaSoYT2xdQsgGD+al1uAMG8Zaye4VjAAggmrHepeRCIvouLCmGXGguN15ieRPfhzJkzxd0XqhFMPPPMM/jd714Q9B6qTZ8+HR9++OE5CxkFbl/pAT55cyP+55U2GDOiEL9/qSs0rqAy893r9mP20G5wGJLGetsRI0ZK1kPgeDx2G2au2Y+3h6RWI2OwNO5NN03Bm2++UQ0gNCmtxIiD6fisTzvRi2Dj5HfXXXfhpsmTpaALr0VjrFb0sZSb1nyZ11C2Px+/WwDBvJUtgGDeVlZP8xawAIIJW11qAIET0rWTJolQSWM2Tngff/IJHnn4YVMAgQTIp59+Br9/ofEAwp/+1hqjhxfhjy+nyoTMFM2uWQW4Z91+vDiqF3Jjqsqy0jYjRozAkiVLqwEEh9eL5xduwnMTB8Id4L1okpiIKTfdhDfffNM/2dPCww5nYtLeE/jt2D6ocCmXKCc/hnkSE5Pwj3/8XUBCY7ai4iKsW7uuMQ/R4Pu2AIJ5k1oAwbytrJ7mLWABBBO2utQAAj0I5eVlUPUaGZJniWcSktSqPdTf/D1wO/7thc2/P/U38NgTj+O3v/1v/OQnPxFiTahGgPDMM8/i9y/8ztRquj4ehJoAgWNKLirDz5duB7Mu/ntMP5REVMU1gwGEgUdzMG3nEbw8vBcyE6oARU2AwFDE0KNZuGn7URRFReB34/rAZohGBAIElhP+4ayZYh59TQLtGe714b54PL+WR6gL8T353QII5i+EBRDM28rqad4CFkAwYatLESCUlpaYOPP6d+Hq/IknHsd///fv8LOfPYq8vNyQO7tQAIFwZ8KeEzKJT9x/As9cOxiUkWarCRA4aT2yYhfaFJRiSZcWWNiznV8lsiZAaFpcLsDj8+7tUBHhxMZ2VUIygQDh5KlTmDXznpD2CacDoV90zMUl6GUBBPNX3AII5m1l9TRvAQsgmLCVBRBMGKlGl4sJIIjXxAcklFfgiWXb8dSkIecECOItsQF/mL8ez147EB57FY/jLIBQVI5Z6/fjz6PSzhKOsABC6HvKAgihbaR7WADBvK2snuYtYAEEE7ayAIIJIzUAQFAkxWfxQiOHGEYNK8YfXk71kxT10JOKy/DYyp14etJgv8BTsBCD127D7+etxzOTBsJnq8qgYBW/KVOm+kmKzYrKMHP9Afx5dO+zpKUsgBD6nrIAQmgbWQDBvI2snnW3gAUQTNjMAggmjNQAAIG7uPrqYVi5cqWpNEfKo+7fv79OWQzkIIy4ukQAgstRXeVRA4RAD0Lnzl1w8OCBapyIcwEExvhTu3bDpo0bROiFIYZZ6/bjT6PTzlKetABC6HvKAgihbWQBBPM2snrW3QIWQDBhMwsgmDBSAwGExiqjq9McCRBGDWMWQ1dWpa7WEkvK8fiKHf4QA1XRmiU3Q0Z6hpSOpYeDzeMA/vDFhuoeBKOUNDXZJ4wfjxUrViC51IMfrt+HP43qA1uNcpac/Fgwq0mTRFgchOD3lwUQzD934YQYjArDpoC2+RFZPS8WCzAcfC7dGQsgmLiKFkAwYaQGAgh1P5K5LQIBQmCaY+DWiaXleHL5Vvxy0lDhIDBk0KFDR7jdlejdOw0ffvSheAI8NuCl+avw5KShEmKgwBNLYbOwFQvdsKzsl1/OR3KZGw+s24Pfj+ofFCAwCyMuLt4CCOe4hBZAMHdvs1c4AIEiYl5q9YuscnX9EV4D/s7PhpZb1mcXSj2Vx+eDZzejnmbeZLX25DPNWbM+x9R1X86la0K/JVPMuQA5j6d0jvNlhhNVIx1BtWcsgGDihrIAggkjXQIAweX2okf6GWxrmyxAgC+m/v37o1fv3qLjMH/ePP8D3e94lvTzGU94XHw8Hv3pz9Cnb1+wmty8eV8gyuNFp+xC7GnZxOIg1P0WkkmJpX4pNaEVJ0W7wii5To9OuduGFs1rL0dcj0NfdJvUFyDQe8DaC7n5RUiIjxUZ8vPdiktKUVxcfBaI1uPQkKWxhuZjwpKtutBpYMJ3Xe1hZrxMLKexeU4erw1Ou/r7fDeOw+mKQHKzxKCKrhZAMHFFLIBgwkgNABD44mfpV2qsm0HWrCkveg41YwVBhsuH74PXNyKYDkJgdylOY3zB8fTp01fGUlJSKlwE/6qHL5QaTzRftmPHjsHBg4dw9OgR6UrZg5r95PsAoSQrxBD8/rIAgvnnLhyAUFlZgaLiMjRNujCVTfPzi1FQmH8Wadj82YfXkxnNfOZNvEbCO9A5tqZ3kwChsZRUQw3aZnchpXlTCyCEMtS5frcAQt0tV580R64In3rqafzhD7839bDcdttt+Oijj0zFTvkS+OiN0ACh5pmOHDkS3377rZR3DSX+TKnlG2+8EW+99VZI0GIBhND3lAUQQttI9wgXIBQWl6GZBRDMG7wBe1oAoQGNeSF2ZQGEulu9PgDhQgglcRLScVbWo+cYWMpVo/maaY6UROb9wE+CBo/b7UfeiUlJUltBSy2ztCxjmJrcyP4q9qjc5Fpq2fIgWB6Euj9h1bewAEL9LWh5ECwPQv3vnkuwmiNd4ZaSolGLAcDPfvozqTm/dds29O/XHx+8/z7O5J6ReyYQIJCTMGXKTWjWrBnmfjYX1wwfIWCBBaMYhmBGAn/XAIG/3XvvvcjKyobH64HT4cDXX3+NvLw8CyCYeCItD4IJIxldGhsg+HJPw5bUyj8gX84J2BKSAXe5Emd3RQF2B2weN3zlJbDFJcHnrgTy0iXWDn7XuvtZFU25w9pCDATTRYVFiI2Llc+4uFjY7HawfHlCfDzy8/OFTEzgzYgfw43FRUWIiY1FodGfgJ8P6Llc+KEAAkF+SWlplVQ5OTAs2VxeLs+/2q8KTvLvkpISxMbEoNLtln/LAsHngysieHnn2jwI3N5ht0vY1cFqszrlhHYpKkZsrFJH5TFZGE8TJGkHLl64vSx6AEm9DtasEIP55yxoT8uDUHcDXiweBE72V1xxhUzu//uvf+HXz/0af/7zn/1eAQKEb775RrgR9Bq8/Ne/4sknn8TwYcPQp08f6ffKK6/Ig0gPwmR6EN54Q15UPXr0QGxsLHr07ImiwkJUVFbKQ0uQYHkQQt9TZgBChceGlGSLpFhe4UZxYYFkGgSWENcl1/kZFROP6KjqkwTnG3IQagsx+NbNgW3tO/D1nqAm+F7jYHv/Cfiuugu2jR8CLbrDN3wWbHu+Aw6uBSJj4Uu7FmjTF7av/ijAAXuXA88sB5xnT5K1AYSysjKs27AJ0VHR8HjdSIiLR0qLFORk58gzd/jYMfTu2R0nTpxGYVEx+qb1xL6Dh9A/rTdKy0olu6O0tBT5BQXo368PnAFl2/UdWBtAYEXabdt3orLSjaZNkxDhcqJ161bYu+8gHE47uqV2kVLwW7Zuh81uQ4uUFOw7cAhDBvXHwUOHkZ1zBs2TmyEuLg7t2rQOCpBqAwh5+fnYtmMXkhLiERUdg6ZJTRAZGYUTJ08KL4rnxHcQj6U9oYWFhWjfrp304bhTmifDZYzbAgih3zt17mEBhDqbTB7ei6EWA93+P3roITlBcgdGjx6Nzz7/3M83IED46quvZPVAD8IDD9yHnJwzOHz4CJo3T0bfvn3xl7/8RZC7Kvd8E94wAAL/TZ4EH1imP7Zu3Vr4DDk5OdL/9ttvt9Ica7m1LIBg/rlTHoRGAggLXgSimwA5R4CBUwQA2L74LXw9xsC2dR4QkwiM+Ql82Ydh27sE6HSllG+Dwwlsna8mxYoy+G75PWytup51UrUBBKZfHjp0BFnZZxAdHYnmyckCunfv3Y/kpokCCmKio5GRmYm8wiIM7NcH6ZmZGNSvL46fOIGMrByUlpWhZUoKunTuWGeA4PP6sHjZCjRNSkS7Nq0QH58gz+6+AweE/d+tS2eZfNdv2oyoyEi0a9cW+/cfwuBB/RSwiYwSj4fH60W/tF51Bgj0jKxZvxFejxddUzshOTkZeXn5Anoys3PQp3dPOScSo7NyzoiXsmnTRKQ0T8GOnbuQkBAv767MzCwMvWJw0EwJy4Ng/jmzPAhh2kpvHggQHn74YZkkQzXhIDz9DF6oQ7nnDz74INRu5Xetg/DHv7bB6BFF+MNLqdAeu5iYaHEDEm1z3DonnNsRICxatEhciWxccTVr2hTZZ3IEEBQXFcPtcQugoKvzpilT/B4ETnAJ8QninmSucXx8vIQXLA6CqUtmKs2xwmNHSjLTSC/vFggQuKLUmT0N4UHAjkVAUTZ8+1fBljYBvrZ9YFvyT8AVDexbCiS2BWb8Bb4Vb8EW0wSIilPg4fQeYO9iYOtCICoW+OmnAi5qttoAAr1uBw4cEi5PeUUF4mJjERkViVOn0+GurBSQzkmRq+Wi4lK0a9tGAMGQgf1x9NhxnErPkH+3btkSqV061Rkg0INw7PhJOV7bNq0R6XIiIioSlRWVWLtxCwb06SWeBR7fbneCHg+OedCAfjJBU+uAaaTMuOrVo1udAUJJcQkysrJx4NAhpHYiQGiK0tIy+W//oUPontpFbHDi5CmkZ2SJLVJSkpGUlIijR4+DvCqHwym2I5iwPAiN8J64FD0ITA9s7Pbcc8/h0UcfxW+ef15iZCGbz4fp02/H+++/L+662hp/HTduPBYt+jroQ3fWtnbgN0/uwweft8DAtEK89WHb4GlNOnXROPzAAQOxbv06OLkaqmVI/ImiR1ddfRUWLlx47iwGLRXp8+H6669HdHQMsrKycOedM0KaJ9wOUVFR4e7ivG4fyoPAyY8hhubNLIDAEENJET0IChw0JEDwndoDW0k+fNu+BAbdDMQkwLb6XfhadQcSWgOH1gA9RgCn9gJtesJ2ei+w/Uv4+lwH2/HNwL5VQPdh8I14ELYWnesEENiZHrey8gqZfDu0bydhlI2btqJ7t1TknMkV1/1WhgHcbvRN640Nm7di+NArcOjIEfCe93o84urvk9YbTq4KarRQIYb8/AIcPnoUXTp3kpU8V+yHDh9B19TOOHDoCLp26YQjx44LeOHEvGfPfvTq2U3CDlwUREa4hB9A70IwHkRtIQYuLkpLSrF9xy70SeuF6Ogo4VaczshAx/bt5bg9u3fF8RMnRe2VLymGJZomJeHYsePibaH3g9+3b982aMaX5UEI87V2qQEEvRIO0ywhN/e4K8W9FkopTe9IMgrI8rdTYSxUUiGFjFRGgJm+3Lcm+GgyU8gTELGkuh2DxxH1NRPjDzxvovzGbnUYUmMPxdT+zwUQuHHVytiHmNh4sGYWRV+U3IwmjZk6zCXRqaysAj5PhTwLBAn6mWgQD4LxwvAV58IW11TZq6wYPtrZFQlbSa6EGXweD2wkwpGoWFoIOGsAUlcEbM6ziXJmdBDo4SsuLhGXORsJguQF8TsSF9l4zuQJ8T+61cvLysXbIMMtKxOwEKyFIimq41XIapytoqJCjq0bvQya21BWVi7gzGUAEb7LRJXRIFAGO76ZNEdNQpTj89z9Hk0qXXoFBJEEyWdG20bejSLEpI7P+yJYswBCmK+ASxEghGkSa3PLAo1ugdoAglZTlJej/OcxJIFlNjtLubLRB3sBDqAAHwGB8hjo/wJBc4MBhEY8PzMAoREPDzMAoTGPbwYgNObxLYAQpnUtgBCmAa3NLQvUwwK1AQTujpOfBgriIbpMmwYEBAh+cED0ECBJHU4WQ2Ob1QIIlpJiY99jjbp/CyA0qnmtnVsWCGqBcwIEY/LTIlf6U+/kcgELOoygQUE1cCCOFOV+pns+JEAoKkNSonLfn+9WUFiMwsIC2INpkgcUkGqc62oDa0GxnX388xCqok6BG0KYviCFMGCD3WEJJYV1z1sAISzzWRtbFqiXBWoFCMYEqD6UGubl2gKBQjXui0mAQJGwSrfHb0NyC8jmEAGkGv9X3GGlBFq9kf2hYt7cyhvkb1WcSPUJ/JsRcp+H3qALcAXNVFaq47CcLgc8PB+NPGrb/jxgkFoPL1UyfSK4FIyjYBVrMnHxLYBgwkhWF8sCDWyBugAEDRQaeAgXxe4aAiCQdGeG7HtRGMQaZJ0sQAInVRYtgFAns1V1tgBCPQ1nbWZZIAwLhAoxBHoPLA+CYvH7J/k6cBDoQbAAQhg36kW+qQUQwryAFkAI04DW5pYF6mGBUABBhxY0WTEQJGi5iXoc9qLaRACBpLPZYLcrgKC/M8tBIEDgCjJU2fRz5YbUkA6pk/2+D/kmgYmxoZOr63R6ITtfyGPrwVkAIeRlqr2DBRDCNKC1uWWBeljATJqjx+tDfEKC0p4IKiRbjwNfVJuo8y4urYC3skzAgc5m4GmYJSmmZ+SEtJ/N6v8l9wAAIABJREFURq5H8Cm0tt9qMye383jtwlu4UDodAnB8LPR07vNrzFuCMgW0w4UK8RAcpjRvaoUY6nuRLYBQX8tZ21kWqL8FQgkliZKi24bkZgn1P8glsmV5hQelxQX+Qk11FUrKzMo5ZxZBY5vI41HVFh32xj5S8P1bOggWQAjrzrMAQljmsza2LFAvC5iRWi53s5qjJbVcVu5GWUlhNcGkungQLihAkBU02fT1uk3C3sgCCBZACOsmsgBCWOazNrYsUC8LmAIIlUBKc6vcMwGCqsVg99djsACCudvOAggWQDB3p5yjlwUQwjKftbFlgXpZIBRAoAAQizWlJFsAoaEAArkc/topUtlU1SLxN2pOBIgX6foXso1Rb8Br6FLoqqV2FsqgNoLRhxUO9b+531ATtKKXkHypWCZ6fPqYmiTJsfMY+lM0GWocK9iNeK7jC5/D2KeusSJEWMMemhSrz1PvW9srkDSrODJV4w8cRzCp5cB96r+1tLbaUVXVEf7O8z7X8cUO4p6xSa2bmnITltRyvV5PVRtZACFMA1qbWxaohwUsgGDeaIEAgSRFndNulqSoQwwskcxtWeKY2Q1DhwxGekamFD1KT88QsNCzRzfs238QZeXliI6KluyJHt1SceT4Cak0mNwsSQoj5ecXIj4uFidPnRYSXpdOnbH/4EEBHYpICfTu1UuU/NiCcRA4oe3YvQfNmzWTwkyV7kokJSYiPSMDffukYfvOXVLBkeNavXYDBvRLw6Yt23H10MHYsmU7PF6PgASSIHv16lmtyJK2bjCAsG//AVRWVCA3v0CO17pVS5SUFEuJ95On0nE6IxMjrr5SCstt2rwVHdq3BYEQSz2fOZMrJd6bJMQjLi4Oubl5KC4pkXLyUVGR6Nypg5SG1y0YQFi2YjVSkpuiS5fOWLl6HYZffSUOHzmGpMQE5JzJQ86ZHFw99Eqx485de9CieTO4IiJRUFCAjMxsuFwOREVGIjGxCY4eOyEFm1gKmnYa0L9vNdBnAQTzz1nQnhZACNOA1uaWBephATMAgRyEFlaIARUVbhQV5vvDC/UFCAcPHZaUx+zsHHh9XrRp1UqqI+bm5csnJxqWNyZoaNa0KaJjYpCfny9plvsOHERMdJRM3Bs2bkJK82R07ZqK06fT4XS50Dy5GZYsWyl3QmrnDjKRDezfDzaH0/A+nH2TsErhxi3b0KljB+Tm5sJhdyAqOgq5Z1T55nUbN2HwwAFSYXHt+k1o16YVWrRIkWqOPBbBSJdO7eVYnBh5bjVbMIBw9Ohx5Bfko2tqF2zZvhO9u3fDrn0HVNVEp0POu1eP7vL3+o2b0aNHNxCGxMRE46tvlyAxIUEKiPGYeXn5YoPC/9/ed0A3daTf36dmW+4dMAbTTO815JcQwKGmLAnZsAkkJJRUQtomm17+m7K7ZEl207OB3YR0OgEChG56MdU0A+64W8aWZMmS3v98I8nIRfazn2zLeOYcH9vSvCl35r2575tv7qfXo2tcZ0Y2XI9sVCcINO+37tgNf60feveMx/5DRzBuzE1MjprIid5ghI9GxfpN43z2/AV06NAeSkfAri3bdiIyIoKRoiGDB7JQ0ETuqM6gwABWpqsVgROERjycXC9pLEHYu3cvzp+/UO/xIZnNa/DlFJqULFJWq6XB1/ILOALXEHAfattuXpWvnXvb7XdCpaAjaPa3Yqe51flmzAmCfTQ8RRBoob148RLKyvQQlApER0Ui5eJlDB86GFqtFslnzqFLXCecO58Cg7Ec/lpfaNQa9OzZAxdSLiK+RzckHTsJk9mMIQMHQKEUsCtxP9QqFcbechOOHT+BcpMZGpUaWn8tesZ3r3OLwaA3YM+Bg+gd3wPGciM7ZhkYGMCeXWGhoTiVfBajRgyDXl+GA4eS0DGmPVscyXJBbTWQSqBKxQhDr549ar15ayMI9CaemprOLAJkIRk8aCAjIOYKM3w1Gmj9/dG/Ty8cPnoMoaEhjHiYzCZGlPLyChAWFoqi4mIMHTwQqWkZ7F64ciWXWRXi47szLN1ZEOje2bvvICNV1E8iBAljb0ZhURGu5OShoLAIwQH+GD58KI4dP8nCXZvNFYycULhpvV7Pyi/W6TBi2BCcTj4DS4UFhnIjQkNC0bd3z6pbEgrugyDrqd5YgvDWW29hzZo1surmF3MEvBEBWvqnTJkCq8XC3jQrFfZpn1kQEB4ege9/+I6ZXRubaF/1982bQYSWE4S6UfQUQcjLy2dvpP379WFWBFpsi4p1zBpAC/OpU8no27c3a0xmVjYjELQ4pqalw2Qyw8/Xh5nPL1y8hJj27XDpchoGDuwHtUrN3uav5OQwU/vltAwMGdiPXW+p4xQD7ZwnnTiF0OBglJvKWeCp4KAgtnBn5+Ri+OCBOH3uPIYNHogt23ahU8eOyMzOxshhQ1hdFosFl1LTMXhAP7SLjqqVstZGEEwmE5vbx06cxqCB/eCj0eDA4SSEhYVAAQXKzSYM6NcHew8cYnXSVggRmJ49uiPp+Am0b9cOuXn5jAAVFhahwmJhVgRqQ3hEOAIDAuokCGQFILypX9t2JmLC+FtYeQaDgfkf0LYFEQTa3ghn2y9l0Pr5Ia5zJ5w5dwFhocHM2kDjSNYQsvwQ6YmICEf79u2gcbGkcAtCY59QjusaSxDefvstrF27Tmbt/HKOgPchQG85sbGx+PLLLxEVFVWlgfQQf+qpp3DgwAFZDae9440b10Ol9CxByM3NYw9IemhSP4KCAtneOZ0AyM8vQJcucWzRI4U5+p76Q3vJlE6fPo1evXrhypUr6NChA9vftlgqUEIP3/BwWf2Vc7GnCAKRAVrkac+cFnRadMi5jfazdSUl8PHRIDDQHvXRYDCyPXUib5VOfABbCOkNuqyMFi0tK4veoOktnrC0WqzMelBC+/uhIcwHwe7gWBMBsmjQG3FQUBArT6PxYXVRvRaLFRqNmr2p03YHLaD0hm4fOxMbFyII/v7+bHxCgoMl+yCQBYW2VFgSRdbeq1dLERUZSXAgi8a/XTs2X+jNnT6kvtFc0ul0zFeBCEq76OhKq5ezv9VlwWvzQaB2E65UJ/ldkA8GWUP8/bTMr4K2fMLDQhh5I/JCdSuVKhZ0iXAirAsKChAdHc26QJgTgXHOY1ekOUGQc+cB4ARBJoD88usWAVokly5dyt5iKNED/amnFuLQoYOyleGagiDQovfmW2+iV8/e2Lx5E9uX/eAfi/D5F1/g5MmTzNu7b9++ePGFF7B16zYYjQb07NULfXr3xot/eQm64mK89967WLVqNW68cTSOHTuGxMREZGZl4bapU/HHP/6RLWbNnexOivJ9EJq73WzxIguCG4LQHO1p6fprIwjN0W9nHZwgyESbEwSZAPLLr2sEiCT85+uv2VvT888+hz1798gmBwRYUxAEco1YsmQJe+MiEkPe5s88/TQ+/vhjqDUa5nBHC/wHixbhH4sWIWF8AgtS3CUujploFy1ahAkTJmLfvr1YuHAh9u7dh8Q9ibjn7uk4dfoUZs6cWfnW1pyDbjJZoG/NBKGNCyWplc05W6rWxQmCTOw9RRCc+7Qym8Mvd4OA/WSw++R6Ppn9Ld+Hjo8F6f2Tt3uHGHTp2gW7du6EUqViZlkWLMgNQhabkmnfk4uCwuUMt40kdx3XNAVBIGLw+uuvI7ZTJ5w7dw6ZGRl45eVXkLhnD5LPJCPnyhVmwv7qq6/Y4r9kydcYn3Ar29s1lpfj++++w43/dxNSL1/C4sWL8fPPv7DjcxkZGWx/eOrUqS1iQTCZLdB74BRDS0zoln6Dp1gIlGrb4mgOPMiC0JIEAYIa0VE8FkOjx9oTBKFCYUWmNr/RbeAX1o/AILUZ7BATnXu2We12S1qBbDZUFAOmdLs9k3EDhQJ6XwFp3TT1F8xz1IMAAWqDYk43CDa7CA4bBgj4PDADGgcZq4ynxIRvRJTt0aBsmbXKaYdUrRrrw/0cUQk974NAi//f/v53tmdN/gTkj/DSSy9h+/btyMhIx4kTJ/Hkk09i8OBB+PbbbzF8+HBkZmayqTR4yBB88MEH6Bgbi/vvuw8XL11ix+2SkpLYNmRAQCBmzZyJuC5xzT5j5FoQSq7qPXLqpDEdZ/yQglI25mIPXOMM1tRSwaJsFCiqpTpPxEgQEBISxIM1NXYueYIgGFVmJAenNbYJ/Lr6EBCBqT7l0Cpqf2c1ZgH6pKqF6EJVSBrKCUJ90Er6ngjCP4eDmQyIIziGIT/qAvyF2k01hSsFFCyoOl7HQ33wYafQJiMI1Bdy4iJHNjo2Sc5gZKkgh0Ry8CosLERUVDQ7w07+Cs5z8+QoR85u9D0J5yiUSpCnu0ajYc5s5JlPzmotFZFPjpMiCSJRP1qq7ZLmF8/UZAjwcM8yoeUEQSaAzXT5VE3DCEJJsBJHh/s0U+uu92psUHwwHIJjvRcdHun5EQ0jCEmhvvhXp5AmJQjX40jIIQgVFWamFUCqgDy1PQRM5eVMc8EpruWKgE53FRCtVaOECgKE7OxssfpxjLYHnb3HbYkgCKU2iH4CBKN9D1kMakHvmQZOOCdBMJaTqA6gUV97OyULQmkSYBUEqB173sUhShwb5v0EQShzjomNWe/FQG8cExeC4CQJKsBJEDKyfBEcZEFQ4DVxLrIgXHpeAYtCgTCjmY328TANPowN4wShgXOfE4QGAsazVyLACYLMydBmCILRCkWpDTCJQLkIW7gC8FVC0FshhqtadqNMwhg6CUJBoQq6UiUiwy20NY6QYCuM2UDGcSUoVEmQzQaS9jGEKXF8sJdvMRisEAw2COUATDbYwpUgaUHBZIMYpmq5jdsa4+EgCFZAJP7i2FcmghCgtuLw0UAknQzADcNL2Zd9440ggvDTu4HQqUWMKjRBr1bCoLDio9im3WKQMJVaXRZOEFrdkHlNgzlBkDkUbYYgVIiA3gpliQirrwiFHhA1gEhutrG+gKoFPWkkjCERBD/BBqOZgs0oQWJh/r4i2kVVMIJQckxAvkqJQJsNekGAKkjAiSFeThDMIlBmhcIowqawQdCLENT2KHuI9QNUEoBplix2gkDEoHKbQWm3IASorMjO8cXydeEIDjAjPNSKyQk6FK8ScPYFFVICVfCzAlc1PlBXmPFFTCC3IDRwzDhBaCBgPDu3IHhqDrQVgqAwAsgwMcuBUELmbBEIUgE6K8ROasDHu/conRaElFQ/+PlZYbOKMJiUiO9cjvIrwPkTCvgIAnxEEXpSfwsScHZwzeAtnpo3nihHQcqquWaIoQooCsl2L0LQKmHTVQBdfCH6egtpq0YQaCvEscUQoLThm18iERUmokRvQ36+BvNm5qF0HfDRomC0K7cg3AoUa5RQWWxY0l7LCUIDJ09zEASjsZztU5eXG9lRTiKpToVC2o5mSodqDTMeqdUq9j8p9+Xl5TG1TXLqJJVBeqxERkawrduWSNRWantte+7V20N58/Pzq6iFOqNRtkTbm6JObkGQiWpbIQgyYWrxyxvqpFgUpsJxpwXBYRJv8U602gZc22Jwbi9QV/Ki63ZSLHzSyo63kf4BpeY4xdBqIa6j4c1BEPbs2YPdiXtQXFyEN994AytWrkRWZha6d++OPn36IDMzg0kDk6bEXdOmsZMhl1NT2YsGfa836KEr1rGTIwMH9GcKlbVFV2zq8dny+1ZcvnQJM2fNZFLSJLNN049CVJOWhZ+flslukyoo/ZDC5oABA1hMENLR2LlzJ8aMGeOQVg5q9ac/OEGQOeM4QZAJYDNd3lCCwE8xeHJgHBYEKtKxzUC+CPwUgycxdl9WcxCE337bxFQlszIzce+992LdunVMXTImJgajRt2ADRvWIysrGz179URkRCSMRiP279/H3r579e7NItvm5uYwfYxhw4Yxz/gJE25t9gWW4uMMHToEly9fxujRo/Ha668jvkc8OnWKZYTAZhMxfPgwLF++Ap06d8bIESPw008/4uChwyxORb/+/XHp0kWMHzceQ4cObRHlTE/OKk4QZKLJCYJMAJvj8lp0EMhB0RlMsDYdhCoWhOZoY0PraE1WDZsNig/tPgiUBHJWdDnFwD6sEoQeKFph10Fw/fhEqAaLO/FTDA2dKk1NEMisTvEn6C2atgdI9yE1LQ15ublo36E9enTvzhb8zVu2QK3SYMRIu8CU0WBgAZaGjxiO9LR0FkCIAixRvAvSlYiLa35RqTVr1jJrAYlhRUZG4sMPP2TWDLIm0P9FRcUsINVvv21Et27dkZAwHldycrFj+w4WtKncaMSFlBS89uorbMukJfrQ0PlRV35OEGSi6QmCYBVsyPMpqXTgktkkz15eZRubydy5lF/tf2+RJ2ZtdjZchCgAPVQVUNI7Dr3BusiiKQQRllIRFTlOhT/7tUatAjlRarCLXfrM1uWW7GcNtwLX9l3rs3OQXJSKPTsvpJbGmiTCZ0xH5khpU4hQ2AQobAo8oS2EWgVU2ESo6Py0o/kWm4iys4BlhxUiU1ayp3w/BQ4F+HIfBKnYO/I1NUEg03ppaSk2bNyI6Kgo3DJmDJPUpqiWZCGgvfpjx46juKgQuXl5zEehS5cubPEkEpFy6RKsVhsLiyxAhDYgADeOHt0iWwxEdmibg8ShqF9r167FbbfdxsgPWRCI0JC/BPlakIhWcLDd38Lpe0C/6fmiUNiP67R2gSlOEBp4s1XP7gmCILMJ3nU5hcB1POmdOvr03Lc4PlO5rFjOfErSVHD0gvabWfQ2ptVfdTVUQGT70ZTXtWzXchzvqFXqo9LteQQ4xXvJ/fDaOk9ecw5KIaBS79+7gG3drbHrptjH1jnach6enojFIFoqICgpNoTNIbZPstD2icC+UzlOsVDoZ0Zg6nf6rK4P47yGFBVbYk+dZk1TE4TWPTN567kFoQnngCcIAj06rVYLyk1mFr+7vmQym1FRYWUa3Vqt/Y3KNcl5ayR2TGyZ4qn7+mrY85ISxU+nz6ku+1u4/VnqTCqlki3ez2ak4e5iXX1daNbvVYINFqd8Xx01EwExQYGEAf2J+zdrG3llDUPAEwQBK1+HGDsIwsnfgKHTIAZHQ1j7NnDzPCDrFMQpL0A8vgnC/u+AdvEsVoc4+n4o2nd329jp9/wRsx98AJs2b0ZMTEe88OfnmXn9008/w/z589g91NyJE4TmRvz6qY9bEGSOpScIQoXFgkfmzcfDcx6W3BoaOB9fX8n5yblGqDBB8Kn/GtpH8/Xzk1z27sREPPfcc1CqNVigK8KMA/th85V2vSAqYCK9dx/pRwobtP1OWwRS9wQEwPjU05hyLIkTBMmj3zIZZRMECti1+A6Iw/4IIbIjQJYEUzlwZisQOwBIOwoxJAbCgMlA0lrWSXHcE4Cvv1vZ4dzcXGzduhXHT5xge/AqhYJFftRqtZg+fTq+/XYZ/Pzqv/88jSgnCJ5GtO2UxwmCzLH2BEGgva5HH30UjzzyiOTW0DlicuSpy+xpvXoVNmM5BJWS4u6iePVGaNpFIfj2iXXWQ97HtE8oNe3YsRNPLXwKSrUaC3Q6PHT8GAT/AKmXV56JdncBEYJ8CrnoSGaxAi/nfIbPY16EVun+gcsEg1ioVukaDcXzH8GEo4c5QZA8ei2TUS5BEIuyIfznQSD+RmDAVMCkhxjTF8LBnyBGxkNIOwQxtCOEIXcChWnAxkXA1L9AbN8LAml115JycnIwPiEBRw4fZvvV5NHfu08f5hGfnJzMiMLYsWObHTA5BIEFa1KreSyGZh8176iQEwSZ4+DNBMGSlwdbUTFsFvtCKVJwdR81/HrFSyYIn332OTONOoVDNm3axI4vTZ9+T6VTmVyCUB8hsYkiUs2Z0NvsmvyUaAOgnSoMEepQt32h/WD6IYJAjkcHDx7C6NE3sPxU5+HDR9h3t9wyprIMThBk3hDNdLlcggCrBVj9FlBWCNz5KrDl3/Z7xGKGUJQJ8eY5QPZZCAMmAqUFwNaPgfFPQgzvDCG8o9tezp07F5988gmKiopQUlLCnN3oCOCjjz6C9es3MAtCQkJCM6Fkr6YugkAkml5QfLWB8POtasWjLUQezbFZh8rrKquTIJRcBWw8WFOdg+bNBEF/+Dh0y9ci/OEZDoc/ESpfX2g6xUoiCCQSEhPTgYl/DBo0CHQEKDs7C+fOncOkSZMwefJkVo5cguBUVXPXKFrk38z9GiP9eiPex952siq0U4cjUOnvti+uFoRPP/0U7777Li5dusS8kJctW4aOHTti5cpVePPNN9C5c2dWDicIXveMqrVBsgkCzaHiHBZDRAiKgqi7wn6DrE36YvbgE5VqCP6h9sBkuRchtHPve+BsJM0v8s4/c/YsO95H3v0hISGVBLu4uBihoe5JbVOg31iCQG0h50oi1zYrnSjhqS0hQNZp+qE1rvZojqXEqHk0x7omhTcTBHaD5xVAHRXRoHntfKOfP38+vv76a0ycOBHr169nZaxYsQJXS65ixp9mMJOpK0FQqNV4qgm2GKgOi2hFiaUM4epgyX2hNyCRPNQBRgbIBLxy1Sr84c47UVhYiP0HDjALQ8L48ezsMycIkqFt8YyeIAgt3olmakD9BMEGX21ADQsCNY98lyjkM5EEntoeAnTyRq3WVFqLXRHQ6ewEgcgDWWLZdjcP91x1kng7QWjMlCaCQDrpe/fuRa9evXDhwgXEx8cjMXEPSkp0SLmYgvbtOjCzKU2KprYgNKYPdI2TIKSlpTGZ1LCwMJw+fZpJoyYmJjIfjtWrV2PWrFlMNY0ThMYi3fzXcYIgHXM5BMF+H3HbgXS0r7ec1/RJqvdMV1IKQbRvMXCC4GbcWwNBOF+eihKbAcO1fSTN3rp8AuhNwvnAcJ7rvkYQ6BRDscedFF0bXbx8DYKnToBCwikLJ0GozUnR6Z/gPJ/uzMO3GCRNkRbPJJcgiOSDQKI2DgdW0Wyy71vRmxCF+nSTRItF0kmgFgfIpQHuCIIzMBH5IAhKHwQFVj95xI/6etM4elNbaO6UlFwFCc1xglDHyHgrQShYsgzqiHAE3zEZG0p24VD5RbwR/RBMl9NQ+NXX6PDu2257VZ/TYPULm5ogpM1ZgNh//Q0Kfy0uzZiD2E8WQR0eivxPvkLQrePgE9+t1r6QeZSe+vwUgzc9WjzTFrkEASd2AAd/u6a3TccenYmp4NWerBpfFE5eyEgys6iSGV5krgyMXxApre1vJsTlyFPlb4fDrUNHyi4k5TjH6yy7vnrsAbAEREXUvv3mjiBQD50qgOy3SP9bmW7UNekyz4wXL6X1I+A8MWdXilSwee4kB+wZ69DjEbKzs0VudrIPuLcShLS5TyD8gfsRcPNobCzZjYPlKYwgmNOzcPGe+9D7wE6vIQjkyEX65rUlsaICZ4ePQ69DWyGoNbh83zx0/Pff7QTh0/9A074dgqfd5oYg8GOOrf+xVHsPZBMEGcBUffZVl7p2muPdfV5fxQ0t71p+d0eeayUIDqUzpxXBaVEjosCf7fWNUdv93um46PrbdXuBkOEEwWV+eIogPPLoo5g3d64kOVeqnjz/aVGt8VAQRVhKriIl4U703LcFVpUCq3RbccKUgVejZkFjFXBm2I3ouXsrFAG1i76U6EoQGFT7gl391qCHyc5du/H00wsdQknFmH0sCdC6P11QvQzyDyCfh5pl26Bb/StKt2xFp08/gs1gROrsJ9DxH29D07kjjKeSkfb4AvTc+XutuLlqpDsfek687G+AdhOq6wOx5LHHMZHrIHj9E7AlCYLXg1OtgXURBKcVwXkfuN4LnCi0tpFu2va6rjXViYKrFyMnCE1AEObNn4+HZz8kbYQdMse1qbKZ0zNxYeo0RC94DBHzH2ae/zdfnI+8igIc7/UjolRhKP19O7JefANxPy6Bb4+aR7coVntDzjTt2bcXzz7zDBRMSbEY9x05Amh8JPdFqVBCram571v032XI/fBjdFvxAzTduqB0+26kTP0DgqZMRbef/8sW9vQ5j8NmKEfcT/+tlSSUG8ultYNRXwGGBU9iYtJRLpQkHbUWyckJgnTY3RIEOyuoLIiTA+mYtuWcrlsNDIdqUv+cIDQBQWiokqK7CVq2IxFX3nkPnb/6DJq4Tizb9tLDSDPnYHa43RRv1ZUg9cGHET7zAYTcc6fsuS7XB8FdA7JffBM2kxExi9+3L/42G7Lfeg+RT8yHOiqSXVa2aw+yXnsbPbeuA5zBdWT0iDspygCvGS/lBEE62HUSBGcx/KSCdEB5zmsI1BLAjBMELyYIotVqP4tar7ywyJQV3cnGNuQeaCqCQBH1QGI1Ls7UrlsDlc825oXt3rGsIX3hBKEhaLVcXk4QpGMviSBIL47n5AjUiQAnCF5MEFpi7jYVQWiJvnCC0BKoN7xOThCkY8YJgnSseE75CHCC4AUEoSxxP0q37kDE3Aegjukgf1RpO9JmQ85f/w7/USMQNGGc5DLlEASybBb/8DMqLqUj+uVn7VK3HkiGA4dRuu8gwmfeA1WEfTtCSuIEQQpKLZ+HEwTpY8AJgnSseE75CHCC0FIEgaITWq0wpaYj/fHnYCnIQ/zO36BsQOTFuoafFusL4xJgM4ro/OW/4NOtCxR+PkAd58KpvEYRBNJ2t1hQmrgfGQsWIPSu6ejw19flz05HCTa9HufG3YqQSZMQ8dijUIYEQeHjU8OhpnqFnCB4bAiatCBOEKTDywmCdKx4TvkIcILQDAShQrRAgACVcG1vvfinFSj456ewaVVo9+wzCJo6QYKvQcMGnBTm9HsPI+ev78OcnYXop55E+LwHKwuxijYmouLarjoJgtP5qZozy8Xb70NFbjZ842LR4YP3oY5p7/m+2Gwo/OhLFPzwAxQKJTr//C18OsVcA8QpjuNCgDhBaNh8aancniII1Y+/OvvjGglUTh/pqG1DhLrk1OXuWk4QmgJVXqY7BDhBaGKCcMhwhp08yLAU4N8xz1TWRlsAdCyBg0Q/AAAYc0lEQVTJUw55dVsTmKway+Ksz2grx/NZH6G3XzfMCp2EYKVdu8BJEOiY41MuUsuixYr8jz5H2H13QVSqKk8e0DUkgCQ6gnw09a3GHvYsLKmy0oJgvpwG3fc/QxXdHmFzZ1Y2gROEph4Nz5TvCYJAi/ehQ4fYCZlhw4YxVUH6Py6uCy5fvsy0Rm69NYEF9jIajUzzkJQGnZE/nT0hHQ+KeGrQ66H190fXrl3RpUsX7Ni5E7riYkRGRqJf336IdJy8cV5nEs1YUrgOe/UnMDN0MiYGjfIMONVK4QShSWDlhbpBgBOEJiQI9Ib+ffFvOF1+Gbm2q1ja8aVah6FsVyL8R4+CoFLVO1EpfgI9xIKkbEWQxvambQieMLaGP8Bxw3n8pPsd4eowPBQ6BWGqoDoJgqWkFPpde+E/bACsogCfDu1qtLVCrECKKQu9fePq7Qct9BSRkcLn+kmIxWC0mXCuPA2DtPE1yi7buRfGYyehUKoQ/uQcThDqRd+7MsglCBSD48CBA7h6tRTmCjOLSDdxwgRkZmZBr9cjOTkZBoMeDz74IFv8hw4dyqRBVq5YidmzH0ReXh6io6MZKGQkKyjIx759+5CQcCuLDHo06ShSL1+G1WpjxCMyMgIJCQlVQHw/71u8mvsf+IsaxGjC8Evn99DXr6vHgeYEweOQ8gLrQIAThCYkCFQ0vVm8ceWrKgSBrAeZf34TCh81rCWlKPllFfwG9kXX1d+zGAV1peW/LEdGRgaeefaaNaK2/PSgS/3jHOg2rEXE/EeY/4GloBjtX3oami52TYVPC5bDKFokEQTKX558FqrQ4CoE4VfdbuzWH4NaUCHTko9lxevxrw5/xuOR0+vsR0pKCrZt344rV67gjdfr9lfQWcrQ59wMRKvDMTlgJETYkG0pwpLYV6EUFExkqejL/wEVVk4QWuHjTi5BoC5TkCJa/GnhH3vLLQyFTZs2o6ysFDpdCYqLi7BgwQIcPHgIY8bczL5fsXwFpt01DefOnUfv3r0cBEHEkiVLmKWACMHYsbcwEkuh0QsKCkFkZP78edBoNFWQnnX5ZZQLwEC/Hlic/z0+6PAMZodN8fhocILgcUh5gZwgSJsDnpJadhVKchKEfFsZPo95ji2ktKBZ8gpYowSlAhenz0DHv70H7Yhhtcbqdm19aVkZli5diqcWLKi3U+bUNKTceS+6b1gNQWX3f1CGhUDhiHD3z7zvqQGYFTIBEeoQ5ifhbouBkZ0LF6AMCGC7FZqY9qw8g9UIva2c9ckMMx5K/yt+jnsXoQ6LhLtG0pvYqtWr4a/VYtKkSfX25evCdcgx52N++B8c8WwERKpDKx/qxUuWQSyvQNj8ByCo7ZYYvsVQL6xekUEuQSBycOjQYeTn50Gr1TKpbwoDTgSUlD1HjBiOI0ePImH8eGzfvgODBw9iWwyr16zGA7NmYd++/fi//7uRYUEEYMmSpWwLYcKtt4KinJLfwdq1a3Hu/AUMHTIEISHBGDlyZBXs1up24r60F2FR+CBSGYhT8T8gWCVN4rwhg8AJQkPQ4nnlIsAtCC4INiVB2KU/gffbPYqbAwfXGLPaBIPcDSztpX7zzTd4/PHHJY09RUFUUKiuWtInBcthFUWcM6XinzEL4SNo6iQI5afJghCEK395Bx2X/quG/0RD+nH8+HG8/sYbuPmmm/Dcc89J7EvtTmLMgvD1tzAlJUN743CE3Hc3JwiSEPWOTHIJAs1xIglpaakoLi6GTqfDzTffzKxTBYWF7DfdAWPHjmV/h4YSsRRY/iFDhoC27VSO7b30tHRkZ2cx/xab1YaAwED07dsHBr0Bp06fRvv27REVFcmISPWUbc7HEeMZJASOhJ9Cojx5A4eAE4QGAsazy0KAE4QmJgjkh5BsvMRiyfb3uxYroez3HTClpiH49klQRUZ6TDOgxmyw2WDR6aBbtRF+MVHwn3RrZRZqlwJKdPZpV/lAc1oQKNriQhcnRbrIWlICwccXgiCy386U8+o70I4ahoBb/s++RVKLZKesWeq4mI5Slp+7iKs/r0L4gnlQRYSzb2g7xXw6mT30ffr1rqyKWxA8gXrTlyGXIDR9C72nBk4QvGcs2kJLOEFoYoLgbhKZcvNhSTqG7MVfwJyZjrgP34f/uJsBZf2OilInpuHwUWQ9/jxsWl90eOpR+NwwgoVUritdO+aoxgKdDg8dPwbBv2Z0RtcyyDdBn3gA2e++g7B7/4TwWffCt18fqc2sNx9JThsPJ+HcxCmImvs4QqZNgt+QQVD4XSMptRXCCUK90HpFBk4QpA8DJwjSseI55SPACUILEQTXoct+4S1k/+s9DDh7vjIok/yhBY6GRSB8+gPo/MUHkt/qGyWU5HzDt4k41bsPfKJiEL9ri+Q66+ur8egJnL5xFPodOwbfnjVPMbi7nhOE+pD1ju85QZA+DpwgSMeK55SPACcIXkAQSGPAZjYxdUBP6iJYDUbmsOd0SpQyXeQQBCrfZq6AaDYxZ0ZPJZvZzIJRKXw0DRJg4gTBUyPQtOVwgiAdX04QpGPFc8pHgBMELyAI8ofRcyXIJQiea4n8kjhBkI9hc5TACYJ0lDlBkI4VzykfAU4QOEGoMos4QZB/U/ESGoaAXIJQUlKCDRs2gMqhRD6ykydPZvoGPXv2RFZWFq5evYqRI0ewEwvO0zZ01La6ngE5vJLCIh2RJD0FOuJIP6SfMGBAfyQm7sH48eNw9tw5JB1NQkxMB3Ts2BGWCgt69upZ2fGy0jIcOXoE4eER6Nevb8MAqSM3Jwgeg5IXJAEBThC8nCBcef8jKFQiop9/urKlvxRtxd2hY6FwPBANh44i5x+L0fWHpbKdHJuKINgMBqTPexLhD89E4Hh7dElyPsxf/AWinncc2bTZkP/JVyjZuBXdN/wsYfrWnYVbEGRD2CwFyCUItOBv2Pgbzp45w04LDRo0GOPG3sKUOgsKCnD6NCkpGphq4rZt29GrV0927PG3TZswZ86cKscc6bgkEYtNmzZhwoQJiImJQUCAP3766Wekp6cxBdOJEycxrYUvv/oSw4cNx+EjhzGgf3/ceeedDC86ivzjjz+iY2wsUi+nov+A/rhx9GiPYMkJgkdg5IVIRIAThCYgCI88+ijmz5vHdOHrS84AM+6CwOQt/gS5H3+CPof3QhkagvOmdAw6/wDuD5mIr2Lt0s15f12EnM8/R/+MCzXqdAaqkdqWnbt2YeHChVCqNVigK8bs40kQtNL8CZxvZrXVRWTg/Jgp8OnRGXFLv7S3+6NPcOXVd9Fj6zpoRwyBzWDEmf6j4T9qJOK++7wKdPRmZ8eKfupPlPfqY49jwtHDENlywJO3IiCXIFC/9uzZy6wESpWSxVq4bepUrF+/gXWZtA/ouyeffAIHDx7EmDFj2OerVq1iizrJNN9www3sM1L4vHDhArZu3YoRI0eiS1wcwsLCcebsGRw9chSDBw9mOgidOnXCsmXLMGDgIJxJTkbfvn2Z/DLd8qR0uvbX9egaF4f09HQEBwVhxp9meAR+ThA8AiMvRCICnCA0AUGYP38+ezORmujtJjg4uFZCYTUaUfztDzAmn0Psh39DjrkQD2f8P7wcPRuj/QfAmleIMyNGoO/JE1AEBtaQINAV66CtR77ZtZ2Je/bgmaefBgVrWqArwv1HkyD41n2c0PV6s9nM3q5qS5aSq0ibPQ8dXnsFfoP7Q3/gMDIfW4i4Fd/Dp2scCpZ8C9PZFLR79bkaYa+ZUqPZLIl0sboFAfrHn8CEpCOcIEidiC2UzxMEYdmy7zBlymQUFRWzBf/+++/Dtm3bGKkcOHAQIwb0/a5du9lWA1HGNWvX4u6778bpU6fQf8AA1nuaY98tWwalSs3EkEhqmYSVaKFPSbnI7i8SYbp8ORWrV69mCoynT59mIkzdu9t1Tuh+/v677xEQGICiYh2GDRmCESNHeARdThA8AiMvRCICnCA0AUFwlVqWMg5kkvT393e7+JF5/vyYSei5fxugUDKCsKj9QoSrg6Fb8yssGVcQ8eS8WquiNydJgZ0cV8vdYigtLUVgoHuJ2eLla2BMOo4O77wOi64EqVPvQvc9W0lMHyljb0fXDb9AEeBfoy+0X0ypIeF2+RaDlNnX8nk8QRA2bNiIwKBAJhdOcz4hYTxOnjwJ8k+ggE3migpMnjQJ586dg9bProJ48dJF5qtAFoYOHTqwz8hfISoqikkyUxlkDTCWl6PcaET//v1RWFCA8xcuYNDAQcjJzWXWBiIJZ86cwfDhIyoJOtV76dJlRvy7dImTTmzrGQ5OEFp+vralFnCC0AoIAjXxwrg70W3tdxD8/TE7/S38s8MzjCDkv/8B/CfcCu0Q+xtQ9dTcBKG++kynknHl7x8i7psvKwlCt8StEMvLcXb4Lehzan+t/bBvMdQutezuhuUEoXU8yjxBEDzd04bIhnu67rrK4wShOdHmdXGC0EoIAu3PK7Rk6hfwRcFK3Bc6EYFKf9hMJrvOgcLuwe3tBIEiWYomM1NBJJ2Gwn9/jKgX/8yabSvT12o9oO84Qbh+H1beSBC8FW1OELx1ZK7PdnGC0EoIQmOnX31v9NXLlbvF0ND6pPaLEwSpSLW+fJwgSB8zThCkY8VzykeAE4TWTBCslnqPNTZ0wW4JgmCjrQPHkU13U5oTBPk3u7eWwAmC9JHhBEE6VjynfAQ4QWgtBEEUUXElF4LSvpVgM5mR+/6/EbPoTSi0fm5ngjcSBJPNjEJLCTuwqBQUSDXlYLchCX+Omum2H5wgyL/ZvbUEThCkjwwnCNKx4jnlI8AJQishCBTquPjntaA9fJZEkcVZCBwxCOquXVoVQciqyMOusmOwiFaI7BCiAKWgwr0h4xlhqC1xgiD/ZvfWEuQSBDrhcvVqKUpKdCChIzo5QNoDmZn2EwmFRYVMGyE+Ph42m8icXSmfSqWqcSqGjjkmJydXqi3S9XTC4eLFi+wIZXh4GPvft5ajv4cNZ3C+/DJuDBiCzpq6o6Y2diw4QWgscvy6xiDACUIrIgipsx+Db3Q4EBrMznHTG3jw5CnQDh3oNQShvmOO1NAUUyYeSnsNEwJHwUF34KvQ4PmoB6AUlJwgNOZObsXXyCUItPh/990y5ObmITAwCEFBgfjTn/6EpKQkqFRqnE4+jXJjOebOnYM1a9ZAqVQyAnDmzFm89NJfmPaBU3KZyAapL+7YsQPjxo2HVuuHS5cuYXdiIiMVtBUWH9+DiSK5pl9L9uCOtBeghAbdNFHY1e0zRKnDPD4qnCB4HFJeYB0IcILgYYJAWu8NUVKk6umcNomy1Kd2aL5aCnN6JgL69qo3lLJTN4DKrkuXoPrc2LlzF55+emGlUNK9h4/CNyhI4k0kwqA3QOtfU8fAtQB6OF8wZKKjTwS0KvfbI67X0MOZSJFCWTuBqN5AqqN4/qOYcpwLJUkcvBbLJpcgkHVp166dyM/PZwu/UqViSoorV65EdHQ0MrOycbVEh7lz52L//v2VSoorV5KS4h1Yu+5XTPuDXSaZrv/m22+ZFUKtUuGmm26CWq3G+vXr4evnhyvZ2ZgxY0aNe2rW5VdwsiID/X0644I5C09G3IuZoRM9jiknCB6HlBfICYK0OeDj4wM/P8eCJYqgRdb5o1T7IDDALrBSPb399ltYu3Zd5QOGRFnIjEmm8/pShYVMnUq7wIo0FeH6iqzxvU0UoZAg+8wuFAT2QLQJCjyelYlyS0XlW36DK27hC0YYzFjYuwdXUmzhcaiverkEgcrfsuV3FBcXwdfXDxarFXdN+wOzAtDc79+vP5KSjrLYCvTZqFGjWJPonr3nnulsKyI2tuM1gvDNN0w9kUSUaBvCZqXgTTtYzIWRI0aw4Ey0XeGaFud9j38X/owodRROGs/jYPev0devW31db/D3nCA0GDJ+gQwEuAXBBTxPEAQZY+FVlxJXUTQVY2mmnhLnIprGk3cjIJcg0Fv/8WPH4ePnC5VSiSNHjmDatGksngJtedE2Q5lej+l334U9e/bYrW+iyOIukOopSSWTSiKlU6dOYfOWrfD19UFYaCgiIiNwy5gxTGHx0KHD6NQpFu3atWOxGFwTncT5rGAVfi87gMfC78aEoJFNAjonCE0CKy/UDQKcIHCCwG8OjkCLIiCXILRo45u5ck4QmhnwNl4dJwgeJghk3gwKDGSOUM2VLJYK5r+gVKqaq0peD0dAFgLkGFheXm73uxEU+G3jeqiU9lMFdO/Q52QZoC0+8j8xWQRER4bIqvN6uJgThOthFFtPHzhB8DBBCA4JxuZNWxyhiT03ERxW0RoFuvvcczXzkjgCnkWA5uymzZvwysuvOE4UAJs2beQEQQLMnCBIAIln8RgCnCB4mCCQc9PGjRsZQaCf5krON67mqo/XwxFoLAI0Vzdv2YxXX3nVYS1QYCO3IEiCkxMESTDxTB5CgBOEVkAQpCz+UvJ4aM7wYjgCshDgBKHx8HGC0Hjs+JUNR4AThFZKEKoTAk4QGj75+RUtg0B1guAJHwSy1qWnpyM2tpP9yDAA0iShz8vK9KioMDNNBKdlz6k5Ul17hL6vqLBUAqNU2n0iDAYDcnJyERUVyY5C1+ZjRBLiZTYDgpWBULkR/JKLOCcIchHk1zcEAU4QPEAQXnvtVaxYuQpKhQL+AQHYuGEDNBSC2cOJHLYqrFb4NEHZHm4qL44j4BYBWoQ3bd6Cl195GT4aDSosFuzauZMJEzXGSZGcGBcv/pA5NtLiTTLIDz00G9u376Do6Eg6epRpIzz37LP45Zfl0Ol0rG2ZmZl4552/Vmkn3WOFhYXYtm0bbhk7Fv5aLTLSM7Bm7Vp2hJLESvoNGIBJE6uKIO3WH8eYlEcgKHwRpwrDmZ4/QqPQeHwWcILgcUh5gXUgwAmCBwhCRUUFe1vhiSPAEWgEAoIAg8EIpYBGEQSq8Z+LF2P4sGGsnN69eyEyMhJLly5F//4DcPFiCvR6A+bMnYMDLkqKK1aswB133IEPP/oIf37+edZwIi9Llv4XEeFhzGpAYkkkw7xi+XL0HzAQBw8exIwZ9yKomrroA2lvYJP+MIZqukCt9MX0kATMCp3UCDDqvoQTBI9DygvkBEHaHGisUJK00nkujgBHoDYEaFEuKtKBApU2xoJAZZ44cQJqjQaFBYVMzIiEjPbs3QujwYBevXvjWFISpk6dil27dmPMmJtZM0hq+a67plWJxUBt+d///oewsDCmvEjPBLIqrFq9BseOJaFf334YMWI4unbtWqUrb1z5DL+U7ESsTwy2lO7D3m5fYJS/XXzJk8lktkBfWsK2OJxYVe6peLIiXhZHgIR1s7Ozxeb0tvdm1DlB8ObR4W27XhGQQhDMFgFRbnQQyMcgJeUCzp+/gL59+yAvPx/Dhg7FunW/oqiokMU5KSkpYbEY6IQRbUlQOp2cjLffeguHDtsllCmRheCnn36G1l+L6KgotG/fHrfffjuL5pi4Zy/iOndG506xiO/Zs8pwmMUKvJj9KVaVbMWr0XMxJ/x2SVLrDR3TcpMFhjJOEBqKG8/fOAQ4QXDBjROExk0ifhVHQA4CrgTB+WZcXSjJbFUgKiK4zmpIeInuYWeqFFqy2QW3KcYIfUZv3pSIKFR3NnTGXnGWYRcgs0d/pG1EZ/tqawiFLifJZXcRSeVg5LzWThCuwuk8yfoiNc6KJxrAy2hTCHCCwAlCm5rwvLPeh4AkglCHBcH7etR0LeIEoemw5SXXRIAThDoIAj246C2D3ipUGl8E+EsLTcwnGkeAIyAdATtBKIFKafdBoB9XCwLdfyS1XJ8FQXqNrTeniSwI+quV/gfcgtB6x7I1tJwThHoIgtPkKAoqBAX6c2tea5jVvI2tCgGLxYayslIoBFwz4Ts0xJ2xGKw2ESEhIW3+/tMbzLCYDZVEihOEVjXVW11jOUGogyDQV06CwH6LAmw2q11shb5kUsrOcMJ1/O0aMKHybwnXSSnbNQ+vh51TlzQmHLfGYeUh3Jzb5hTJkfbTiRy4Wg+cIZmdfgT2+xCw2mwQRRu7a+3O1Z68jxzS6E15j7L2Sq/nGk6CHR+KbSU4/nZYWto8a2p1y27raTAnCO4IgoMAOB9QTgU2elDxUx+tZ4LzlnovArTQuf44txbsER4FRsCr33fO/9vaPVgbTtx64L1z+3ppGScIdREEF5LQVh9M18tE5/3wXgSqE4Uqb8QuJKG5A6B5G2JOWWgnkeKWA28boeuvPZwg1EcQKrcSnCbNa7+vv+nAe8QRaF4EasREqO3IniMqqqvVoC1aEJwjUxk/gh9vbN7J2gZrYwShDfa71i6TLryvXx0nFZoxfDMfE45Am0JAymLH7z/7lJCCVZuaPLyzTYXA/wcayYanJrKzPgAAAABJRU5ErkJggg==;" vertex="1" parent="cg8t9oTA7BQWd0N7k8i4-5">
          <mxGeometry y="30" width="243.75" height="150" as="geometry" />
        </mxCell>
        <mxCell id="cg8t9oTA7BQWd0N7k8i4-4" value="路口控制系统" style="text;html=1;strokeColor=none;fillColor=none;align=center;verticalAlign=middle;whiteSpace=wrap;rounded=0;fontSize=15;fontStyle=1;fontColor=#0000FF;" vertex="1" parent="cg8t9oTA7BQWd0N7k8i4-5">
          <mxGeometry x="72.88" width="98" height="20" as="geometry" />
        </mxCell>
        <mxCell id="cg8t9oTA7BQWd0N7k8i4-6" value="GIS平台" style="rounded=1;whiteSpace=wrap;html=1;fontSize=20;align=center;fontStyle=1;fontColor=#FFFFFF;arcSize=25;strokeColor=none;fillColor=#000066;" vertex="1" parent="1">
          <mxGeometry x="404" y="230" width="112" height="221" as="geometry" />
        </mxCell>
        <mxCell id="cg8t9oTA7BQWd0N7k8i4-9" value="" style="verticalLabelPosition=bottom;verticalAlign=top;html=1;strokeWidth=2;shape=mxgraph.arrows2.arrow;dy=0.6;dx=40;notch=0;fillColor=#000066;fontSize=20;fontColor=#FFFFFF;align=center;opacity=90;strokeColor=none;" vertex="1" parent="1">
          <mxGeometry x="280" y="285.5" width="90" height="50" as="geometry" />
        </mxCell>
        <mxCell id="cg8t9oTA7BQWd0N7k8i4-10" value="" style="verticalLabelPosition=bottom;verticalAlign=top;html=1;strokeWidth=2;shape=mxgraph.arrows2.arrow;dy=0.6;dx=40;notch=0;fillColor=#000066;fontSize=20;fontColor=#FFFFFF;align=center;opacity=90;strokeColor=none;rotation=-180;" vertex="1" parent="1">
          <mxGeometry x="280" y="345.5" width="90" height="50" as="geometry" />
        </mxCell>
        <mxCell id="cg8t9oTA7BQWd0N7k8i4-16" value="信号数据" style="swimlane;strokeColor=#0000CC;fontSize=14;fontColor=#FFFFFF;opacity=90;align=center;fontStyle=0;startSize=30;fillColor=#007FFF;" vertex="1" parent="1">
          <mxGeometry x="280" y="430.5" width="90" height="110" as="geometry">
            <mxRectangle x="170" y="560" width="90" height="30" as="alternateBounds" />
          </mxGeometry>
        </mxCell>
        <mxCell id="cg8t9oTA7BQWd0N7k8i4-17" value="&lt;font color=&quot;#000066&quot;&gt;设备信息&lt;br&gt;控制方案&lt;br&gt;信号计时&lt;br&gt;···&lt;br&gt;&lt;/font&gt;" style="text;html=1;align=center;verticalAlign=middle;resizable=0;points=[];autosize=1;fontSize=14;fontColor=#FFFFFF;" vertex="1" parent="cg8t9oTA7BQWd0N7k8i4-16">
          <mxGeometry x="10" y="35" width="70" height="70" as="geometry" />
        </mxCell>
        <mxCell id="cg8t9oTA7BQWd0N7k8i4-19" value="静态          动态" style="swimlane;strokeColor=#0000CC;fontSize=14;fontColor=#FFFFFF;opacity=90;align=center;fontStyle=0;startSize=30;fillColor=#007FFF;" vertex="1" parent="1">
          <mxGeometry x="250" y="120" width="150" height="110" as="geometry">
            <mxRectangle x="170" y="560" width="90" height="30" as="alternateBounds" />
          </mxGeometry>
        </mxCell>
        <mxCell id="cg8t9oTA7BQWd0N7k8i4-20" value="&lt;font color=&quot;#000066&quot;&gt;设备信息&lt;br&gt;控制方案&lt;br&gt;信号计时&lt;br&gt;···&lt;br&gt;&lt;/font&gt;" style="text;html=1;align=center;verticalAlign=middle;resizable=0;points=[];autosize=1;fontSize=14;fontColor=#FFFFFF;" vertex="1" parent="cg8t9oTA7BQWd0N7k8i4-19">
          <mxGeometry x="5" y="35" width="70" height="70" as="geometry" />
        </mxCell>
        <mxCell id="cg8t9oTA7BQWd0N7k8i4-21" value="&lt;font color=&quot;#000000&quot;&gt;流量&lt;br&gt;事件&lt;br&gt;OD&lt;br&gt;···&lt;br&gt;&lt;/font&gt;" style="text;html=1;align=center;verticalAlign=middle;resizable=0;points=[];autosize=1;fontSize=14;fontColor=#FFFFFF;" vertex="1" parent="cg8t9oTA7BQWd0N7k8i4-19">
          <mxGeometry x="89" y="35" width="40" height="70" as="geometry" />
        </mxCell>
        <mxCell id="cg8t9oTA7BQWd0N7k8i4-26" value="" style="group" vertex="1" connectable="0" parent="1">
          <mxGeometry x="540" y="300" width="235" height="67.25" as="geometry" />
        </mxCell>
        <mxCell id="cg8t9oTA7BQWd0N7k8i4-22" value="" style="verticalLabelPosition=bottom;verticalAlign=top;html=1;strokeWidth=2;shape=mxgraph.arrows2.arrow;dy=0.6;dx=40;notch=0;fillColor=#000066;fontSize=20;fontColor=#FFFFFF;align=center;opacity=90;strokeColor=none;" vertex="1" parent="cg8t9oTA7BQWd0N7k8i4-26">
          <mxGeometry y="31" width="95" height="32.5" as="geometry" />
        </mxCell>
        <mxCell id="cg8t9oTA7BQWd0N7k8i4-23" value="&lt;font color=&quot;#000000&quot; style=&quot;font-size: 12px&quot;&gt;设备信息&lt;br&gt;&lt;div&gt;&lt;span&gt;设备状态&lt;/span&gt;&lt;span&gt;···&lt;/span&gt;&lt;/div&gt;&lt;/font&gt;" style="text;html=1;align=left;verticalAlign=middle;resizable=0;points=[];autosize=1;fontSize=14;fontColor=#FFFFFF;" vertex="1" parent="cg8t9oTA7BQWd0N7k8i4-26">
          <mxGeometry width="70" height="40" as="geometry" />
        </mxCell>
        <mxCell id="cg8t9oTA7BQWd0N7k8i4-25" value="&lt;font size=&quot;1&quot;&gt;&lt;b style=&quot;font-size: 16px&quot;&gt;设备运维系统&lt;/b&gt;&lt;/font&gt;" style="rounded=1;whiteSpace=wrap;html=1;strokeColor=#0000CC;fontSize=14;fontColor=#FFFFFF;opacity=90;align=center;fillColor=#000066;" vertex="1" parent="cg8t9oTA7BQWd0N7k8i4-26">
          <mxGeometry x="105" y="27.25" width="130" height="40" as="geometry" />
        </mxCell>
        <mxCell id="cg8t9oTA7BQWd0N7k8i4-27" value="" style="group" vertex="1" connectable="0" parent="1">
          <mxGeometry x="540" y="353" width="235" height="67.25" as="geometry" />
        </mxCell>
        <mxCell id="cg8t9oTA7BQWd0N7k8i4-28" value="" style="verticalLabelPosition=bottom;verticalAlign=top;html=1;strokeWidth=2;shape=mxgraph.arrows2.arrow;dy=0.6;dx=40;notch=0;fillColor=#000066;fontSize=20;fontColor=#FFFFFF;align=center;opacity=90;strokeColor=none;" vertex="1" parent="cg8t9oTA7BQWd0N7k8i4-27">
          <mxGeometry y="33" width="95" height="32.5" as="geometry" />
        </mxCell>
        <mxCell id="cg8t9oTA7BQWd0N7k8i4-29" value="&lt;span style=&quot;font-size: 12px ; color: rgb(0 , 0 , 0)&quot;&gt;信号计时&lt;br&gt;路口位置···&lt;/span&gt;&lt;font color=&quot;#000000&quot; style=&quot;font-size: 12px&quot;&gt;&lt;br&gt;&lt;/font&gt;" style="text;html=1;align=left;verticalAlign=middle;resizable=0;points=[];autosize=1;fontSize=14;fontColor=#FFFFFF;" vertex="1" parent="cg8t9oTA7BQWd0N7k8i4-27">
          <mxGeometry width="70" height="40" as="geometry" />
        </mxCell>
        <mxCell id="cg8t9oTA7BQWd0N7k8i4-30" value="&lt;font size=&quot;1&quot;&gt;&lt;b style=&quot;font-size: 16px&quot;&gt;车载导航系统&lt;/b&gt;&lt;/font&gt;" style="rounded=1;whiteSpace=wrap;html=1;strokeColor=#0000CC;fontSize=14;fontColor=#FFFFFF;opacity=90;align=center;fillColor=#000066;" vertex="1" parent="cg8t9oTA7BQWd0N7k8i4-27">
          <mxGeometry x="105" y="29.25" width="130" height="40" as="geometry" />
        </mxCell>
        <mxCell id="cg8t9oTA7BQWd0N7k8i4-31" value="" style="group" vertex="1" connectable="0" parent="1">
          <mxGeometry x="540" y="410" width="235" height="67.25" as="geometry" />
        </mxCell>
        <mxCell id="cg8t9oTA7BQWd0N7k8i4-32" value="" style="verticalLabelPosition=bottom;verticalAlign=top;html=1;strokeWidth=2;shape=mxgraph.arrows2.arrow;dy=0.6;dx=40;notch=0;fillColor=#000066;fontSize=20;fontColor=#FFFFFF;align=center;opacity=90;strokeColor=none;" vertex="1" parent="cg8t9oTA7BQWd0N7k8i4-31">
          <mxGeometry y="31" width="95" height="32.5" as="geometry" />
        </mxCell>
        <mxCell id="cg8t9oTA7BQWd0N7k8i4-33" value="&lt;span style=&quot;font-size: 12px ; color: rgb(0 , 0 , 0)&quot;&gt;信号计时&lt;br&gt;渠化信息···&lt;/span&gt;&lt;font color=&quot;#000000&quot; style=&quot;font-size: 12px&quot;&gt;&lt;br&gt;&lt;/font&gt;" style="text;html=1;align=left;verticalAlign=middle;resizable=0;points=[];autosize=1;fontSize=14;fontColor=#FFFFFF;" vertex="1" parent="cg8t9oTA7BQWd0N7k8i4-31">
          <mxGeometry width="70" height="40" as="geometry" />
        </mxCell>
        <mxCell id="cg8t9oTA7BQWd0N7k8i4-34" value="&lt;span style=&quot;font-size: 16px&quot;&gt;&lt;b&gt;无人/辅助驾驶&lt;/b&gt;&lt;/span&gt;" style="rounded=1;whiteSpace=wrap;html=1;strokeColor=#0000CC;fontSize=14;fontColor=#FFFFFF;opacity=90;align=center;fillColor=#000066;" vertex="1" parent="cg8t9oTA7BQWd0N7k8i4-31">
          <mxGeometry x="105" y="27.25" width="130" height="40" as="geometry" />
        </mxCell>
        <mxCell id="cg8t9oTA7BQWd0N7k8i4-35" value="" style="group" vertex="1" connectable="0" parent="1">
          <mxGeometry x="540" y="245" width="235" height="67.25" as="geometry" />
        </mxCell>
        <mxCell id="cg8t9oTA7BQWd0N7k8i4-36" value="" style="verticalLabelPosition=bottom;verticalAlign=top;html=1;strokeWidth=2;shape=mxgraph.arrows2.arrow;dy=0.6;dx=40;notch=0;fillColor=#000066;fontSize=20;fontColor=#FFFFFF;align=center;opacity=90;strokeColor=none;" vertex="1" parent="cg8t9oTA7BQWd0N7k8i4-35">
          <mxGeometry y="31" width="95" height="32.5" as="geometry" />
        </mxCell>
        <mxCell id="cg8t9oTA7BQWd0N7k8i4-37" value="&lt;span style=&quot;font-size: 12px ; color: rgb(0 , 0 , 0)&quot;&gt;拥堵信息&lt;br&gt;绿波路线···&lt;/span&gt;&lt;font color=&quot;#000000&quot; style=&quot;font-size: 12px&quot;&gt;&lt;br&gt;&lt;/font&gt;" style="text;html=1;align=left;verticalAlign=middle;resizable=0;points=[];autosize=1;fontSize=14;fontColor=#FFFFFF;" vertex="1" parent="cg8t9oTA7BQWd0N7k8i4-35">
          <mxGeometry width="70" height="40" as="geometry" />
        </mxCell>
        <mxCell id="cg8t9oTA7BQWd0N7k8i4-38" value="&lt;span style=&quot;font-size: 16px&quot;&gt;&lt;b&gt;诱导发布系统&lt;/b&gt;&lt;/span&gt;" style="rounded=1;whiteSpace=wrap;html=1;strokeColor=#0000CC;fontSize=14;fontColor=#FFFFFF;opacity=90;align=center;fillColor=#000066;" vertex="1" parent="cg8t9oTA7BQWd0N7k8i4-35">
          <mxGeometry x="105" y="27.25" width="130" height="40" as="geometry" />
        </mxCell>
        <mxCell id="cg8t9oTA7BQWd0N7k8i4-39" value="" style="group" vertex="1" connectable="0" parent="cg8t9oTA7BQWd0N7k8i4-35">
          <mxGeometry y="-54" width="235" height="67.25" as="geometry" />
        </mxCell>
        <mxCell id="cg8t9oTA7BQWd0N7k8i4-40" value="" style="verticalLabelPosition=bottom;verticalAlign=top;html=1;strokeWidth=2;shape=mxgraph.arrows2.arrow;dy=0.6;dx=40;notch=0;fillColor=#000066;fontSize=20;fontColor=#FFFFFF;align=center;opacity=90;strokeColor=none;" vertex="1" parent="cg8t9oTA7BQWd0N7k8i4-39">
          <mxGeometry y="31" width="95" height="32.5" as="geometry" />
        </mxCell>
        <mxCell id="cg8t9oTA7BQWd0N7k8i4-41" value="&lt;span style=&quot;font-size: 12px ; color: rgb(0 , 0 , 0)&quot;&gt;信号状态&lt;br&gt;拥堵指数&lt;/span&gt;&lt;span style=&quot;font-size: 12px ; color: rgb(0 , 0 , 0)&quot;&gt;···&lt;/span&gt;" style="text;html=1;align=left;verticalAlign=middle;resizable=0;points=[];autosize=1;fontSize=14;fontColor=#FFFFFF;" vertex="1" parent="cg8t9oTA7BQWd0N7k8i4-39">
          <mxGeometry width="70" height="40" as="geometry" />
        </mxCell>
        <mxCell id="cg8t9oTA7BQWd0N7k8i4-42" value="&lt;font size=&quot;1&quot;&gt;&lt;b style=&quot;font-size: 16px&quot;&gt;路网态势系统&lt;/b&gt;&lt;/font&gt;" style="rounded=1;whiteSpace=wrap;html=1;strokeColor=#0000CC;fontSize=14;fontColor=#FFFFFF;opacity=90;align=center;fillColor=#000066;" vertex="1" parent="cg8t9oTA7BQWd0N7k8i4-39">
          <mxGeometry x="105" y="27.25" width="130" height="40" as="geometry" />
        </mxCell>
        <mxCell id="cg8t9oTA7BQWd0N7k8i4-43" value="&lt;font color=&quot;#000000&quot; style=&quot;font-size: 24px&quot;&gt;···&lt;/font&gt;" style="text;html=1;align=center;verticalAlign=middle;resizable=0;points=[];autosize=1;fontSize=14;fontColor=#FFFFFF;" vertex="1" parent="1">
          <mxGeometry x="637.5" y="495" width="40" height="30" as="geometry" />
        </mxCell>
      </root>
    </mxGraphModel>
  </diagram>
</mxfile>
